<?xml version="1.0" standalone="no"?>
<!DOCTYPE svg PUBLIC "-//W3C//DTD SVG 1.1//EN" "http://www.w3.org/Graphics/SVG/1.1/DTD/svg11.dtd" >
<svg xmlns="http://www.w3.org/2000/svg" xmlns:xlink="http://www.w3.org/1999/xlink" version="1.1">
<metadata>
Created by FontForge 20170731 at Sun Feb 11 05:24:04 2001
 By nod
Copyright 1991-2001 PIC
</metadata>
<defs>
<font id="PIC-Maechim-Light-KP-92KSC" horiz-adv-x="1000" vert-adv-y="1000" >
  <font-face 
    font-family="PKS Maechim Light"
    font-weight="400"
    font-stretch="normal"
    units-per-em="1000"
    panose-1="0 0 4 0 0 0 0 0 0 0"
    ascent="800"
    descent="-200"
    x-height="568"
    cap-height="755"
    bbox="0 -100 1000 900"
    underline-thickness="20"
    underline-position="-70"
    unicode-range="U+0020-FFE6"
  />
<missing-glyph 
d="M0 0v900h788v-900h-788zM732 56v788h-676v-788h676z" />
    <glyph glyph-name=".notdef" 
d="M0 0v900h788v-900h-788zM732 56v788h-676v-788h676z" />
    <glyph glyph-name="glyph1" horiz-adv-x="500" vert-adv-y="500" 
 />
    <glyph glyph-name="glyph2" horiz-adv-x="500" vert-adv-y="500" 
 />
    <glyph glyph-name="space" unicode=" " horiz-adv-x="500" vert-adv-y="500" 
 />
    <glyph glyph-name="exclam" unicode="!" horiz-adv-x="500" vert-adv-y="500" 
d="M220 567q-14 122 -14 172q0 85 49 85q51 0 51 -79q0 -12 -3 -42l-47 -477q-21 214 -36 341zM209 110q0 49 47 49q20 0 32 -14.5t12 -34.5q0 -49 -44 -49q-21 0 -34 14t-13 35z" />
    <glyph glyph-name="quotedbl" unicode="&#x22;" horiz-adv-x="500" vert-adv-y="500" 
d="M370 830q0 -54 -32 -224h-18q-22 136 -22 224q0 41 36 41t36 -41zM203 830q0 -49 -32 -224h-18q-22 125 -22 224q0 41 37 41q35 0 35 -41z" />
    <glyph glyph-name="numbersign" unicode="#" horiz-adv-x="500" vert-adv-y="500" 
d="M344 419h98v-43h-107l-30 -240h-39l32 240h-150l-31 -240h-40l32 240h-104v43h114l20 168h-109v42h117l29 225h38l-30 -225h148l30 225h38l-29 -225h95v-42h-102zM155 419h151l20 168h-150z" />
    <glyph glyph-name="dollar" unicode="$" horiz-adv-x="500" vert-adv-y="500" 
d="M242 436v-304q52 3 87.5 39t35.5 97q0 52 -37 96q-27 32 -86 72zM214 506v294q-48 -13 -84.5 -52.5t-36.5 -78.5q0 -49 36 -92q26 -31 85 -71zM408 283q0 -83 -49 -129q-44 -40 -117 -46v-97h-28v97q-96 2 -173 51v135h18q15 -72 61 -115q40 -39 94 -46v321
q-82 54 -113 87q-52 55 -52 123q0 66 50 111q45 40 115 49v71h28v-71q81 2 155 -66v-114h-19q-14 79 -53 121q-36 39 -83 36v-314q83 -55 114 -86q52 -54 52 -118z" />
    <glyph glyph-name="percent" unicode="%" horiz-adv-x="500" vert-adv-y="500" 
d="M396 831l-253 -747h-22l225 686q-31 -29 -70 -29q-31 0 -50 16q1 -6 7 -30q5 -19 5 -30q0 -92 -37 -179q-42 -101 -103 -101q-37 0 -57 50q-16 41 -16 98q0 84 39 167q43 91 99 91q25 0 49.5 -26.5t60.5 -26.5q65 0 106 61h17zM475 374q0 -91 -34 -176q-40 -100 -99 -100
q-40 0 -61 46q-17 38 -17 99q0 84 40 164q44 87 100 87q71 0 71 -120zM210 701q0 30 -4 56q-23 7 -31 26q-6 13 -8 13q-20 0 -45 -37q-19 -28 -31 -61q-33 -89 -33 -169q0 -74 55 -74q34 0 66 76q31 73 31 170zM451 372q0 93 -42 93q-49 0 -81 -101q-25 -80 -25 -155
q0 -76 50 -76q38 0 70 91q28 80 28 148z" />
    <glyph glyph-name="ampersand" unicode="&#x26;" horiz-adv-x="500" vert-adv-y="500" 
d="M479 241q-10 -48 -35 -81q-28 -36 -61 -36q-56 0 -108 98q-69 -98 -155 -98q-52 0 -82 47q-28 44 -28 119q0 79 45 149q26 41 90 107q-23 109 -23 158q0 64 26 113q29 54 72 54q39 0 62.5 -35t23.5 -91q0 -68 -37 -118q-22 -30 -78 -74q50 -176 93 -252q25 55 51 111
q33 75 33 116q0 27 -17 35q-6 3 -33 7v26h136v-26q-19 -2 -29.5 -12.5t-25.5 -48.5q-34 -78 -101 -231q53 -112 100 -112q37 0 70 88zM280 750q0 39 -15.5 66.5t-42.5 27.5q-29 0 -47 -27.5t-18 -70.5q0 -89 26 -163q97 55 97 167zM257 247q-57 123 -103 274
q-99 -101 -99 -228q0 -130 79 -130q71 0 123 84z" />
    <glyph glyph-name="quotesingle" unicode="'" horiz-adv-x="500" vert-adv-y="500" 
d="M290 830q0 -52 -34 -224h-21q-25 152 -25 224q0 17 11.5 29t28.5 12t28.5 -12t11.5 -29z" />
    <glyph glyph-name="parenleft" unicode="(" horiz-adv-x="500" vert-adv-y="500" 
d="M362 40l-11 -22q-62 42 -120 130q-56 85 -75 161q-17 66 -17 154q0 260 214 418l9 -19q-72 -66 -102 -122q-83 -154 -83 -270q0 -122 47 -234q49 -118 138 -196z" />
    <glyph glyph-name="parenright" unicode=")" horiz-adv-x="500" vert-adv-y="500" 
d="M362 463q0 -98 -21.5 -170t-75.5 -152q-56 -83 -115 -123l-11 22q89 78 138 196q47 112 47 234q0 116 -83 270q-30 56 -102 122l9 19q214 -159 214 -418z" />
    <glyph glyph-name="asterisk" unicode="*" horiz-adv-x="500" vert-adv-y="500" 
d="M423 315q0 -39 -31 -39q-27 0 -77 55q-34 38 -69 77v-16q0 -70 12 -119t12 -55q0 -17 -10 -31t-26 -14q-30 0 -30 41q0 25 14 89.5t14 102.5q-21 -15 -62 -46q-14 -10 -30 -31q-21 -27 -27 -34q-16 -17 -34 -17q-31 0 -31 34q0 33 25 44q10 5 80 26q47 15 76 39l-19 12
q-14 9 -62 24t-68 25q-32 18 -32 41q0 36 30 36q20 0 51 -35q45 -52 103 -88v16q0 31 -13 87t-13 82q0 41 32 41q31 0 31 -41q0 -6 -12 -66q-11 -55 -11 -121q8 6 74 73q53 54 71 54q31 0 31 -38q0 -33 -20 -42q-19 -4 -57 -14q-42 -11 -95 -48q18 -12 69.5 -30t70.5 -29
q33 -20 33 -45z" />
    <glyph glyph-name="plus" unicode="+" horiz-adv-x="500" vert-adv-y="500" 
d="M268 388v-252h-40v252h-215v45h215v252h40v-252h219v-45h-219z" />
    <glyph glyph-name="comma" unicode="," horiz-adv-x="500" vert-adv-y="500" 
d="M224 79q0 -83 -109 -143l-12 12q54 42 54 43q27 26 27 59q0 21 -14 21q-3 0 -11 -2.5t-13 -2.5q-56 0 -56 50q0 62 52 62q41 0 63 -30q19 -27 19 -69z" />
    <glyph glyph-name="hyphen" unicode="-" horiz-adv-x="500" vert-adv-y="500" 
d="M13 390v44h474v-44h-474z" />
    <glyph glyph-name="period" unicode="." horiz-adv-x="500" vert-adv-y="500" 
d="M182 94q0 -23 -15.5 -39.5t-37.5 -16.5q-23 0 -37 16.5t-14 39.5q0 24 14 44.5t37 20.5q25 0 39 -20t14 -45z" />
    <glyph glyph-name="slash" unicode="/" horiz-adv-x="500" vert-adv-y="500" 
d="M157 123h-44l227 748h47z" />
    <glyph glyph-name="zero" unicode="0" horiz-adv-x="500" vert-adv-y="500" 
d="M464 433q0 -122 -47 -223q-59 -128 -165 -128q-117 0 -172 132q-40 95 -40 228q0 124 42 216q57 122 170 122q117 0 172 -126q40 -92 40 -221zM421 437q0 119 -38 209q-47 110 -131 110t-132 -111q-40 -92 -40 -213q0 -113 40 -209q49 -118 132 -118q84 0 131 118
q38 95 38 214z" />
    <glyph glyph-name="one" unicode="1" horiz-adv-x="500" vert-adv-y="500" 
d="M378 84h-245v18q56 2 78.5 20t22.5 69v460q0 53 -40 53q-28 0 -70 -17v15l153 75v-604q0 -44 29 -59q19 -10 72 -12v-18z" />
    <glyph glyph-name="two" unicode="2" horiz-adv-x="500" vert-adv-y="500" 
d="M468 216l-50 -135h-368v4l170 197q162 188 162 292q0 166 -135 166q-79 0 -122 -58q-15 -21 -49 -105h-23q16 87 60 138q52 62 137 62q78 0 126 -56q44 -52 44 -127q0 -132 -102 -251l-192 -224h219q34 0 64 34q15 18 40 63h19z" />
    <glyph glyph-name="three" unicode="3" horiz-adv-x="500" vert-adv-y="500" 
d="M432 314q0 -107 -75 -170.5t-189 -63.5q-34 0 -61 9q-39 13 -39 40q0 28 25 28q4 0 53 -18t82 -18q64 0 113 49t49 110q0 107 -75 149q-29 16 -70 20q-17 1 -76 0v2q187 61 187 179t-136 118q-50 0 -84 -48q-20 -40 -41 -79h-24q11 63 48 106q45 53 116 53q65 0 114 -39
t49 -99q0 -62 -25 -99q-16 -24 -65 -59q69 -37 96.5 -74t27.5 -96z" />
    <glyph glyph-name="four" unicode="4" horiz-adv-x="500" vert-adv-y="500" 
d="M442 216h-61v-132h-45v132h-293v38l293 527h45v-520h61v-45zM335 261v447l-251 -447h251z" />
    <glyph glyph-name="five" unicode="5" horiz-adv-x="500" vert-adv-y="500" 
d="M435 763l-32 -65q-3 -6 -16 -6h-177l-59 -146q121 -29 182 -71q88 -60 88 -163q0 -229 -252 -229q-92 0 -113 44q-1 1 -2 7q0 25 28 25q26 0 73 -18.5t72 -18.5q72 0 112 53q35 46 35 117q0 143 -289 197q0 3 103 248h179q24 0 47 25z" />
    <glyph glyph-name="six" unicode="6" horiz-adv-x="500" vert-adv-y="500" 
d="M415 319q0 -97 -42 -163q-48 -74 -135 -74q-99 0 -147 109q-36 83 -36 204q0 156 96.5 266.5t243.5 119.5v-28q-119 -23 -195 -87q-85 -73 -99 -187q58 61 140 61q79 0 129 -73q45 -65 45 -148zM382 284q0 99 -36 156q-39 61 -113 61q-31 0 -65 -14q-37 -15 -56 -39
q-21 -27 -21 -95q0 -86 34 -153q42 -82 117 -82q62 0 103 54q37 49 37 112z" />
    <glyph glyph-name="seven" unicode="7" horiz-adv-x="500" vert-adv-y="500" 
d="M438 741l-194 -658h-45l183 621h-205q-43 0 -70 -32q-3 -4 -41 -69l-22 3q21 48 53 144h341v-9z" />
    <glyph glyph-name="eight" unicode="8" horiz-adv-x="500" vert-adv-y="500" 
d="M452 239q0 -74 -64 -119q-56 -40 -135 -40q-80 0 -144 44q-70 48 -70 117q0 65 52 118q18 18 110 88l-102 76q-49 42 -49 102q0 66 67 113q63 43 139 43q71 0 124 -38q58 -41 58 -104q0 -57 -57 -109q-31 -29 -110 -77q101 -66 124 -88q57 -54 57 -126zM396 631
q0 50 -46 80q-42 27 -100 27q-52 0 -102 -29q-57 -32 -57 -78q0 -49 50 -90q45 -33 91 -65l106 64q58 41 58 91zM412 232q0 67 -57 116q-13 11 -116 76q-51 -36 -102 -73q-55 -43 -55 -99q0 -59 52 -96t122 -37q59 0 105 30q51 33 51 83z" />
    <glyph glyph-name="nine" unicode="9" horiz-adv-x="500" vert-adv-y="500" 
d="M423 493q0 -158 -94 -273q-99 -123 -258 -137v16q107 22 194 104.5t110 187.5l-2 4q-65 -62 -147 -62q-76 0 -125 67q-43 61 -43 141q0 97 39 162q46 77 135 77q96 0 148 -99q43 -81 43 -188zM382 465v40q0 83 -36 153q-45 86 -123 86q-60 0 -95 -61q-30 -51 -30 -115
q0 -196 141 -196q23 0 66.5 16.5t60 32t16.5 44.5z" />
    <glyph glyph-name="colon" unicode=":" horiz-adv-x="500" vert-adv-y="500" 
d="M302 579q0 -20 -15.5 -36.5t-36.5 -16.5q-23 0 -37.5 15t-14.5 38q0 24 14.5 40.5t37.5 16.5q20 0 36 -18t16 -39zM302 180q0 -22 -16 -38t-38 -16t-36 16t-14 38q0 23 15 40t37 17t37 -17.5t15 -39.5z" />
    <glyph glyph-name="semicolon" unicode=";" horiz-adv-x="500" vert-adv-y="500" 
d="M286 579q0 -21 -14.5 -38t-35.5 -17q-22 0 -36 16.5t-14 38.5q0 21 15 38t35 17t35 -17.5t15 -37.5zM316 139q0 -42 -34 -89q-32 -43 -72 -65l-11 13q78 54 78 117q0 21 -21 21q-4 0 -12 -2.5t-13 -2.5q-46 0 -46 50q0 58 54 58q38 0 59 -32q18 -27 18 -68z" />
    <glyph glyph-name="less" unicode="&#x3c;" horiz-adv-x="500" vert-adv-y="500" 
d="M503 772v-37l-452 -323l452 -322v-37l-477 334v49z" />
    <glyph glyph-name="equal" unicode="=" horiz-adv-x="500" vert-adv-y="500" 
d="M13 557h474v-36h-474v36zM13 307h474v-38h-474v38z" />
    <glyph glyph-name="greater" unicode="&#x3e;" horiz-adv-x="500" vert-adv-y="500" 
d="M12 737v37l476 -337v-51l-476 -335v40l448 321z" />
    <glyph glyph-name="question" unicode="?" horiz-adv-x="500" vert-adv-y="500" 
d="M441 654q0 -39 -19 -93t-42 -87q-75 -107 -101 -219h-18q1 60 71.5 194t70.5 211q0 73 -45 112q-40 35 -104 35q-79 0 -122 -58q-15 -21 -49 -105h-23q16 85 63 137q55 60 140 60q79 0 128.5 -53.5t49.5 -133.5zM313 105q0 -46 -47 -46q-46 0 -46 52q0 21 13 36.5
t33 15.5q47 0 47 -58z" />
    <glyph glyph-name="at" unicode="@" horiz-adv-x="500" vert-adv-y="500" 
d="M481 551q0 -87 -31 -164q-36 -92 -94 -92q-51 0 -54 80q-42 -79 -86 -79q-62 0 -62 131q0 86 35 166q39 92 97 92q43 0 50 -73l9 60l38 -2l-48 -272q-1 -3 0.5 -10t1.5 -9q0 -55 32 -55q43 0 68 87q19 67 19 139q0 119 -56 205.5t-141 86.5q-101 0 -158 -123
q-48 -105 -48 -251q0 -125 60 -216q62 -95 152 -95q77 0 134 46l5 -22q-81 -58 -138 -58q-108 0 -181 103.5t-73 253.5q0 158 65 271q71 120 182 120q95 0 158.5 -93t63.5 -227zM326 572q0 78 -33 78q-46 0 -77 -95q-23 -72 -23 -124q0 -54 3 -65q7 -30 40 -30q28 0 60 100
q30 90 30 136z" />
    <glyph glyph-name="A" unicode="A" horiz-adv-x="678" vert-adv-y="678" 
d="M650 82h-189v19q70 0 70 36q0 5 -1 11q-7 32 -62 160h-284q-47 -121 -47 -160q0 -28 19 -38q13 -7 45 -9v-19h-178v19q13 0 24 4q35 10 93 164l191 511h4l217 -587q18 -48 33 -64q21 -22 65 -28v-19zM455 342l-126 347l-133 -347h259z" />
    <glyph glyph-name="B" unicode="B" horiz-adv-x="627" vert-adv-y="627" 
d="M584 265q0 -90 -68 -138q-61 -43 -157 -43h-316v18q60 3 82.5 25.5t22.5 80.5v462q0 56 -24 74q-19 13 -81 17v18h263q247 0 247 -172q0 -115 -142 -153q173 -35 173 -189zM514 599q0 100 -87 131q-49 18 -170 18q-37 0 -45 -1q-25 -5 -25 -26v-249l132 1q195 1 195 126z
M548 266q0 120 -135 157q-60 16 -226 17v-276q0 -56 114 -56q99 0 165 34q82 41 82 124z" />
    <glyph glyph-name="C" unicode="C" horiz-adv-x="627" vert-adv-y="627" 
d="M580 209q-35 -58 -111 -94q-71 -34 -145 -34q-155 0 -230 100q-66 87 -66 243q0 151 72 249q82 110 230 110q35 0 97.5 -17.5t77.5 -17.5q18 0 28 33l25 2l8 -226l-20 -2q-46 198 -208 198q-142 0 -211 -107q-55 -87 -55 -231q0 -130 60 -211q69 -93 198 -93q64 0 131 34
q62 31 107 80z" />
    <glyph glyph-name="D" unicode="D" horiz-adv-x="627" vert-adv-y="627" 
d="M618 433q0 -161 -88 -254q-91 -95 -253 -95h-267v18q57 4 76.5 23t19.5 74v464q0 57 -18 74t-78 24v18h254q173 0 263.5 -88.5t90.5 -257.5zM582 432q0 316 -363 316q-78 0 -78 -49v-533q0 -50 90 -50q166 0 258.5 80.5t92.5 235.5z" />
    <glyph glyph-name="E" unicode="E" horiz-adv-x="661" vert-adv-y="661" 
d="M597 250l-45 -168h-515v18q61 5 83 24.5t22 72.5v466q0 56 -21 74.5t-84 23.5v18h529l-2 -140h-18q-13 72 -44 91q-27 17 -116 17h-143q-66 0 -66 -35v-241h187q68 0 90 20q18 16 30 77h22v-234h-22q-9 61 -30 79.5t-90 18.5h-187v-268q0 -21 61 -43q22 -8 106 -8
q99 0 146.5 28.5t83.5 108.5h23z" />
    <glyph glyph-name="F" unicode="F" horiz-adv-x="522" vert-adv-y="522" 
d="M508 640h-18q-12 72 -38 90.5t-104 18.5h-123q-61 0 -61 -42v-239h162q60 0 77 23q12 15 20 78h24v-233h-24q-7 64 -20 79q-17 21 -77 21l-162 -1v-237q0 -53 34 -74q26 -17 89 -23v-18h-257v18q60 6 78 28t18 82v453q0 56 -18.5 74.5t-77.5 23.5v18h479z" />
    <glyph glyph-name="G" unicode="G" horiz-adv-x="678" vert-adv-y="678" 
d="M561 361v-213q0 -18 -69 -43q-80 -29 -147 -29q-165 0 -245 119q-64 95 -64 247q0 142 78 237q84 103 228 103q36 0 90 -20t58 -20q27 0 38 40h30l8 -217h-28q-29 90 -68 131q-50 54 -135 54q-119 0 -191 -100q-66 -92 -66 -223q0 -147 69 -231q72 -88 206 -88
q43 0 88 17q55 21 55 53v170q0 58 -17 73q-14 11 -77 17v22h238v-22q-48 -5 -63.5 -19.5t-15.5 -57.5z" />
    <glyph glyph-name="H" unicode="H" horiz-adv-x="678" vert-adv-y="678" 
d="M660 84h-253v18q122 9 122 117v205h-383v-218q0 -90 128 -104v-18h-255v18q58 4 78 34q17 24 17 83v449q0 55 -20 73q-15 13 -75 21v17h255v-17q-66 -6 -92 -21q-36 -21 -36 -73v-210h383v210q0 52 -34 72q-21 13 -88 22v17h253v-17q-58 -5 -76 -21q-21 -19 -21 -73v-462
q0 -54 21 -76t76 -28v-18z" />
    <glyph glyph-name="I" unicode="I" horiz-adv-x="313" vert-adv-y="313" 
d="M284 83h-258v19q61 2 85.5 22.5t24.5 77.5v458q0 59 -25 79q-21 17 -85 22v19h258v-19q-61 -2 -83 -22q-25 -22 -25 -79v-458q0 -56 26 -78q23 -20 82 -22v-19z" />
    <glyph glyph-name="J" unicode="J" horiz-adv-x="365" vert-adv-y="365" 
d="M341 761q-61 -5 -83.5 -27t-22.5 -79v-374q0 -204 -135 -204q-34 0 -56 16q-25 17 -25 50q0 37 30 37q29 0 45.5 -37t28.5 -37q37 0 59 27q19 25 19 59v463q0 57 -21.5 78t-80.5 28v18h242v-18z" />
    <glyph glyph-name="K" unicode="K" horiz-adv-x="678" vert-adv-y="678" 
d="M645 83h-260v19q73 7 73 42q0 26 -110 162q-60 70 -119 140l-83 -60v-187q0 -54 24 -74q21 -18 81 -23v-19h-235v19q61 4 81 28q17 21 17 81v457q0 56 -21 73q-17 14 -77 19v19h237v-19q-62 -3 -82 -17q-25 -19 -25 -75v-244q82 75 164 149q131 124 131 162q0 22 -61 25
v19h238v-19q-54 0 -84 -16q-22 -12 -64 -54l-223 -224l235 -284q64 -77 163 -80v-19z" />
    <glyph glyph-name="L" unicode="L" horiz-adv-x="574" vert-adv-y="574" 
d="M543 257l-43 -173h-473v19q55 4 77 27t22 77v454q0 55 -20.5 74.5t-78.5 23.5v19h245v-19q-62 0 -88 -20.5t-26 -77.5v-495q0 -40 45 -48q9 -2 79 -2q113 0 151 20q48 25 89 121h21z" />
    <glyph glyph-name="M" unicode="M" horiz-adv-x="835" vert-adv-y="835" 
d="M798 84h-255v18q64 5 90 28.5t26 80.5v517l-27 -6l-210 -638h-8l-229 637l-31 2v-490q0 -71 13 -93q19 -32 84 -38v-18h-213v18q56 5 70.5 25.5t14.5 105.5v436q0 59 -11 73q-14 17 -72 20v17h162l215 -612l204 612h177v-17q-61 -5 -83 -20q-29 -20 -29 -73v-470
q0 -52 29 -74q23 -17 83 -23v-18z" />
    <glyph glyph-name="N" unicode="N" horiz-adv-x="678" vert-adv-y="678" 
d="M666 763q-50 -5 -64 -22q-19 -22 -19 -109v-554h-26l-335 594h-37v-428q0 -71 14 -98q20 -41 83 -46v-18h-213v18q59 5 75 45q8 20 8 89v478q-20 31 -34 40.5t-49 10.5v18h129l354 -626v477q0 72 -14 95q-18 30 -85 36v18h213v-18z" />
    <glyph glyph-name="O" unicode="O" horiz-adv-x="678" vert-adv-y="678" 
d="M626 432q0 -133 -65 -232q-79 -120 -222 -120q-141 0 -220 122q-64 99 -64 230q0 135 64 232q78 118 220 118q144 0 222 -116q65 -97 65 -234zM590 433q0 122 -58 214q-70 111 -193 111q-125 0 -194 -109q-58 -91 -58 -216q0 -121 59 -215q71 -111 193 -111
q123 0 193 111q58 92 58 215z" />
    <glyph glyph-name="P" unicode="P" horiz-adv-x="522" vert-adv-y="522" 
d="M488 594q0 -199 -278 -199q-33 0 -69 3v-191q0 -56 27 -79q24 -21 85 -26v-18h-239v18q59 6 78 35q14 22 14 82v444q0 55 -17.5 73.5t-74.5 24.5v18h248q226 0 226 -185zM455 592q0 156 -241 156q-73 0 -73 -43v-273q52 -4 104 -4q210 0 210 164z" />
    <glyph glyph-name="Q" unicode="Q" horiz-adv-x="678" vert-adv-y="678" 
d="M652 -73q-6 0 -19 -1h-19q-222 0 -297 97l-45 58q-105 23 -167 139q-53 97 -53 200q0 127 64 231q80 128 217 128q144 0 222 -117q65 -97 65 -235q0 -117 -63 -221q-76 -124 -202 -136q31 -69 125 -98q63 -20 172 -25v-20zM582 427q0 123 -58 216q-69 111 -191 111
t-190 -111q-57 -93 -57 -216q0 -122 58 -216q68 -112 189 -112t191 112q58 94 58 216z" />
    <glyph glyph-name="R" unicode="R" horiz-adv-x="627" vert-adv-y="627" 
d="M595 84h-123l-211 332l-118 -3v-207q0 -94 123 -104v-18h-254v18q59 5 78 35q15 23 15 82v436q0 56 -18.5 77.5t-74.5 28.5v18h259q237 0 237 -181q0 -128 -215 -172l177 -287q14 -22 125 -37v-18zM475 600q0 76 -76 116q-61 32 -151 32q-51 0 -68 -4q-37 -9 -37 -42
v-256q332 0 332 154z" />
    <glyph glyph-name="S" unicode="S" horiz-adv-x="522" vert-adv-y="522" 
d="M448 237q0 -66 -48 -118q-51 -55 -126 -55q-32 0 -78 18t-58 18q-32 0 -37 -35h-22l-29 213h23q56 -185 192 -185q60 0 104 38q48 41 48 110q0 71 -86 134l-158 102q-86 62 -86 131q0 68 42 117q45 54 117 54q28 0 77 -17.5t57 -17.5q17 0 21 11.5t6 23.5h22l21 -214h-23
q-15 76 -55 126q-48 61 -121 61q-48 0 -89.5 -43t-41.5 -90q0 -67 85 -126l158 -102q85 -67 85 -154z" />
    <glyph glyph-name="T" unicode="T" horiz-adv-x="574" vert-adv-y="574" 
d="M538 614h-22q-15 87 -34 108q-25 27 -106 27h-75v-542q0 -58 35 -82q27 -19 88 -23v-18h-269v18q64 4 92 31.5t28 85.5v530h-77q-81 0 -105 -28q-17 -20 -34 -107h-22l6 167h489z" />
    <glyph glyph-name="U" unicode="U" horiz-adv-x="678" vert-adv-y="678" 
d="M664 762q-60 -11 -76 -30q-19 -24 -19 -107v-265q0 -145 -50 -216q-56 -80 -186 -80q-125 0 -178 84q-42 67 -42 197v319q0 56 -19.5 74.5t-78.5 23.5v18h236v-18q-61 -6 -82 -23q-24 -20 -24 -75v-326q0 -111 35 -167q48 -77 167 -77q107 0 159 80q42 66 42 176v275
q0 74 -7 93q-15 38 -75 44v18h198v-18z" />
    <glyph glyph-name="V" unicode="V" horiz-adv-x="678" vert-adv-y="678" 
d="M639 762q-36 -3 -56 -31q-13 -17 -27 -60l-203 -606l-207 592q-18 51 -36 72q-25 28 -71 33v18h206v-18q-36 -2 -48 -6q-25 -9 -25 -37q0 -9 35 -114l151 -452l162 488q6 18 6 73q0 31 -23 40q-7 3 -49 8v18h185v-18z" />
    <glyph glyph-name="W" unicode="W" horiz-adv-x="887" vert-adv-y="887" 
d="M879 763l-6 -1q-34 -7 -46 -15q-17 -11 -22 -16q-12 -11 -15 -22q-38 -139 -60 -211q-41 -146 -122 -430q-66 219 -163 492l-140 -492l-194 579q-11 30 -17 46q-13 28 -26 41q-23 23 -59 29v18h222v-18q-106 -8 -106 -45q0 -11 10 -41l171 -507l124 431q-14 41 -29 81
q-24 61 -43 73q-5 3 -56 8v18h243v-18q-119 -8 -119 -47q0 -3 26 -79l161 -471l131 473q11 40 11 78q0 40 -52 46v18h176v-18z" />
    <glyph glyph-name="X" unicode="X" horiz-adv-x="678" vert-adv-y="678" 
d="M650 84h-256v18q102 10 93 50q-5 21 -82 143q-39 63 -79 125q-44 -60 -88 -121q-83 -116 -83 -130q0 -25 21 -44t48 -23v-18h-211v18q43 3 82 41q19 18 59 72l160 218l-110 179q-65 105 -105 131q-15 10 -74 18v18h277v-18q-27 -2 -63 -22q-43 -23 -39 -47
q5 -33 140 -238l132 193q42 61 42 77q0 23 -26 31q-5 1 -46 6v18h216v-18q-52 -4 -80.5 -21t-57.5 -59l-170 -243l189 -300q20 -31 50 -33t61 -3v-18z" />
    <glyph glyph-name="Y" unicode="Y" horiz-adv-x="678" vert-adv-y="678" 
d="M659 760q-46 -1 -79 -31q-19 -18 -51 -69l-173 -273v-199q0 -56 34 -72q20 -10 95 -14v-18h-281v18q73 3 94 18q26 19 26 78v185l-148 244q-39 65 -56 85q-42 50 -84 50q-8 0 -16 -2v21h257v-21q-51 -4 -62 -6q-42 -9 -42 -31q0 -21 14 -44l160 -266l175 276q13 21 13 36
q0 35 -73 35v21h197v-21z" />
    <glyph glyph-name="Z" unicode="Z" horiz-adv-x="574" vert-adv-y="574" 
d="M526 261l-23 -176h-437l1 7q144 246 394 661h-201q-82 0 -117 -34q-31 -29 -46 -109h-25l21 169h423v-7l-399 -661h214q80 0 119 38q33 32 54 112h22z" />
    <glyph glyph-name="bracketleft" unicode="[" horiz-adv-x="500" vert-adv-y="500" 
d="M422 51h-179v799h179v-26h-77q-25 0 -45.5 -14.5t-20.5 -36.5v-639q0 -24 21 -40t49 -16h73v-27z" />
    <glyph glyph-name="backslash" unicode="\" horiz-adv-x="500" vert-adv-y="500" 
d="M171 86l-74 359h-85v29h81q-12 75 -45 216q-11 34 -34 42v11h120v-10q-43 -7 -43 -51q0 -17 5 -43l32 -165h106l15 72l-25 128q-10 53 -45 59v10h131v-10q-50 -2 -50 -47q0 -19 8 -49l34 -163h93q13 68 39 215q0 36 -34 43v11h91v-12q-28 -10 -39 -67l-37 -190h73v-29
h-76l-70 -359q-21 118 -68 359h-23zM308 444l43 -221q17 84 41 221h-84zM134 444l46 -229l50 228zM262 518l9 -45h-15z" />
    <glyph glyph-name="bracketright" unicode="]" horiz-adv-x="500" vert-adv-y="500" 
d="M256 51h-178v27h73q28 0 50.5 16t22.5 40v639q0 22 -21.5 36.5t-47.5 14.5h-77v26h178v-799z" />
    <glyph glyph-name="asciicircum" unicode="^" horiz-adv-x="500" vert-adv-y="500" 
d="M397 468l-145 345q-38 -93 -149 -345h-34l164 378h35l166 -378h-37z" />
    <glyph glyph-name="underscore" unicode="_" horiz-adv-x="500" vert-adv-y="500" 
d="M24 10v36h452v-36h-452z" />
    <glyph glyph-name="grave" unicode="`" horiz-adv-x="500" vert-adv-y="500" 
d="M335 695l-152 109q-23 17 -23 38t17 21q16 0 34 -21l129 -147h-5z" />
    <glyph glyph-name="a" unicode="a" horiz-adv-x="417" vert-adv-y="417" 
d="M409 129q-36 -47 -81 -47q-40 0 -47 91q-86 -76 -133 -76q-46 0 -71 31q-24 28 -24 73q0 56 38 96q29 32 87 59q51 22 102 43v66q0 83 -91 83q-25 0 -51 -13q-31 -16 -31 -38q4 -28 4 -37q0 -43 -31 -43q-33 0 -33 42q0 51 51 83q45 28 100 28q78 0 104 -60
q14 -32 14 -104v-196q0 -98 39 -98q7 0 54 42v-25zM280 232v141q-187 -71 -187 -153q0 -85 80 -85q40 0 73.5 29.5t33.5 67.5z" />
    <glyph glyph-name="b" unicode="b" horiz-adv-x="470" vert-adv-y="470" 
d="M444 343q0 -104 -60 -177q-65 -79 -170 -79q-38 0 -80 14q-55 18 -55 46v541q0 64 -54 64q-9 0 -18 -2v18q25 6 55 20q45 21 52 24v-350q21 41 69 74.5t95 33.5q81 0 128 -78q38 -65 38 -149zM408 315q0 219 -143 219q-43 0 -97 -46.5t-54 -85.5v-223q0 -64 124 -64
q72 0 123 68q47 62 47 132z" />
    <glyph glyph-name="c" unicode="c" horiz-adv-x="417" vert-adv-y="417" 
d="M391 244q-70 -159 -188 -159q-71 0 -126 78q-50 72 -50 154q0 103 51 175q59 82 162 82q50 0 91 -27q47 -30 47 -75q0 -39 -35 -39q-22 0 -29 29q-12 43 -19 52q-20 29 -74 29q-46 0 -88 -36q-31 -27 -51 -87q-18 -53 -18 -100q0 -78 40 -138q47 -70 126 -70q48 0 88 48
q10 12 57 89z" />
    <glyph glyph-name="d" unicode="d" horiz-adv-x="470" vert-adv-y="470" 
d="M463 135q-30 -16 -102 -51l1 -1l1 80l-13 -1q-27 -35 -69 -56.5t-83 -21.5q-88 0 -134 76q-37 63 -37 154q0 89 50 166q57 88 145 88q33 0 75 -19q38 -18 63 -41v171q0 29 -22 46.5t-54 17.5q-10 0 -19 -2v18q45 11 125 42v-578q0 -39 16 -55t57 -15v-18zM360 220v197
q0 46 -43 88.5t-92 42.5q-73 0 -122 -83q-42 -71 -42 -147q0 -80 32 -140q40 -77 116 -77q34 0 92.5 44t58.5 75z" />
    <glyph glyph-name="e" unicode="e" horiz-adv-x="406" vert-adv-y="406" 
d="M374 226q-54 -121 -158 -121q-79 0 -125 77q-37 62 -37 138q0 91 38 156q46 77 130 77q65 0 105 -65q33 -52 42 -128h-281q-3 -20 -3 -42q0 -75 30 -123q37 -61 114 -61q86 0 145 92zM218 533q-53 0 -90 -49q-33 -43 -40 -99h249q-15 148 -119 148z" />
    <glyph glyph-name="f" unicode="f" horiz-adv-x="350" vert-adv-y="350" 
d="M328 737q0 -30 -21 -30q-20 0 -41 31t-43 31q-42 0 -63 -31q-19 -26 -19 -67v-102h123v-26h-122v-341q0 -59 19 -79t80 -24v-15h-224v15q56 1 75 26q15 21 15 77v341h-85v26h85q0 14 -1 40v39q0 73 21 105q30 43 111 43q32 0 59 -14q31 -16 31 -45z" />
    <glyph glyph-name="g" unicode="g" horiz-adv-x="470" vert-adv-y="470" 
d="M443 499h-83q7 -23 15 -46q8 -27 8 -48q0 -62 -41 -98.5t-108 -36.5q-7 0 -19 2.5t-18 2.5q-19 0 -51.5 -23.5t-32.5 -40.5q0 -35 64 -41q65 -2 131 -5q80 -7 107 -43q20 -26 20 -51q0 -72 -84 -114q-69 -35 -156 -35q-57 0 -105 21q-62 26 -62 75q0 33 40 72q6 5 69 55
q-64 14 -64 46q0 27 34 51q28 19 57 38q-89 34 -89 128q0 73 39.5 118.5t113.5 45.5q31 0 79 -19.5t68 -19.5h68v-34zM349 394q0 55 -37 101q-40 51 -97 51q-45 0 -77.5 -30.5t-32.5 -66.5q0 -155 139 -155q50 0 77.5 27.5t27.5 72.5zM407 67q0 37 -39 54q-29 12 -84 13h-77
q-17 1 -52 9q-27 -27 -54 -53q-37 -38 -37 -60q0 -77 172 -77q63 0 112 27q59 32 59 87z" />
    <glyph glyph-name="h" unicode="h" horiz-adv-x="470" vert-adv-y="470" 
d="M460 84h-170v15q45 5 61 33q13 21 13 68v195q0 66 -10 93q-19 51 -77 51q-34 0 -71 -39q-13 -14 -52 -68v-232q0 -49 12 -69q15 -26 62 -32v-15h-179v15q47 6 61 32q10 18 10 69v483q0 62 -88 62v18q29 7 122 45v-343l58 70q37 36 78 36q66 0 89 -54q15 -34 15 -108v-209
q0 -50 9 -67q13 -24 57 -34v-15z" />
    <glyph glyph-name="i" unicode="i" horiz-adv-x="261" vert-adv-y="261" 
d="M175 764q0 -52 -47 -52q-19 0 -32 16t-13 36q0 19 13 34.5t32 15.5q21 0 34 -15t13 -35zM246 84h-223v15q57 1 81.5 25t24.5 76v235q0 35 -5 48q-8 24 -36 24q-12 0 -32 -4v16q25 8 54 25q35 20 54 28v-372q0 -51 14 -71q17 -24 68 -30v-15z" />
    <glyph glyph-name="j" unicode="j" horiz-adv-x="261" vert-adv-y="261" 
d="M241 152q0 -91 -26 -149q-33 -74 -105 -74q-32 0 -56 11q-31 14 -31 42q0 27 23 27q20 0 40 -24t36 -24q43 0 68 63q19 48 19 94v316q0 72 -48 72q-6 0 -36 -5v19q26 7 58 24q42 21 58 27v-419zM244 764q0 -52 -47 -52q-19 0 -32 16t-13 36q0 19 13 34.5t32 15.5
q21 0 34 -15t13 -35z" />
    <glyph glyph-name="k" unicode="k" horiz-adv-x="470" vert-adv-y="470" 
d="M462 83h-186v15q71 0 71 27q0 21 -176 247l-33 -27v-183q0 -59 80 -64v-15h-213v15q55 9 73 20q28 17 28 60v496q0 73 -60 73q-9 0 -20 -2v18q26 6 57 21q45 21 55 25v-437q46 39 78 70q79 73 81 90q2 15 -13 20q-6 2 -29 3v14h191v-15q-73 0 -100 -25q-20 -5 -79 -63
q-36 -38 -73 -75l156 -217q50 -70 112 -76v-15z" />
    <glyph glyph-name="l" unicode="l" horiz-adv-x="261" vert-adv-y="261" 
d="M246 84h-221v16q102 10 102 86v489q0 72 -66 72q-9 0 -20 -1v18q28 6 60 20q51 23 59 26l2 -628q0 -45 18.5 -61.5t65.5 -20.5v-16z" />
    <glyph glyph-name="m" unicode="m" horiz-adv-x="731" vert-adv-y="731" 
d="M722 85h-177v15q45 6 58.5 23t13.5 63v212q0 52 -18 88q-24 48 -72 48q-38 0 -77 -28q-35 -25 -59 -61v-252q0 -46 15 -66q17 -23 63 -27v-15h-181v15q45 4 59 24q12 17 12 61v212q0 49 -19 88q-25 49 -71 49q-28 0 -97 -54q-37 -29 -37 -39v-276q0 -60 75 -65v-15h-201
v15q45 0 71 22t26 61v250q0 78 -49 78q-17 0 -24 -3v17q30 14 98 43h1v-93q47 46 70 62q46 35 84 35q68 0 99 -96q80 96 153 96q60 0 89 -63q22 -46 22 -102v-234q0 -68 73 -73v-15z" />
    <glyph glyph-name="n" unicode="n" horiz-adv-x="470" vert-adv-y="470" 
d="M456 84h-170v16q42 5 58 32q11 20 11 65v204q0 55 -18 92q-22 47 -69 47q-45 0 -130 -99v-277q0 -59 72 -64v-16h-193v16q89 6 89 88v244q0 78 -51 78q-8 0 -19 -2v16q30 14 99 43v-97q32 32 63 64q40 34 80 34q59 0 88 -51q22 -41 22 -100v-239q0 -69 68 -78v-16z" />
    <glyph glyph-name="o" unicode="o" horiz-adv-x="470" vert-adv-y="470" 
d="M442 331q0 -96 -53 -167q-59 -80 -155 -80q-98 0 -155 79q-51 70 -51 168q0 95 51 164q56 78 152 78q104 0 161 -73q50 -65 50 -169zM410 313q0 102 -47 168q-51 70 -139 70q-69 0 -119 -63q-45 -58 -45 -125q0 -96 36 -165q49 -95 153 -95q72 0 120 74q41 64 41 136z
" />
    <glyph glyph-name="p" unicode="p" horiz-adv-x="470" vert-adv-y="470" 
d="M452 355q0 -90 -51 -160q-57 -78 -146 -78q-61 0 -111 52v-150q0 -52 19.5 -68.5t73.5 -18.5v-21h-219v20q91 5 91 81v422q0 69 -53 69q-9 0 -19 -2v18q26 7 56 23q49 27 53 29l-2 -96q63 95 155 95q78 0 120 -74q33 -59 33 -141zM418 324q0 84 -27 141q-36 74 -109 74
q-45 0 -91.5 -39t-46.5 -70v-207q0 -29 42 -57q39 -27 70 -27q70 0 117 58q45 54 45 127z" />
    <glyph glyph-name="q" unicode="q" horiz-adv-x="470" vert-adv-y="470" 
d="M7 376q0 -95 54 -169q59 -81 153 -81q64 0 117 54v-157q0 -54 -20.5 -72t-77.5 -19v-22h230v21q-96 5 -96 85v443q0 72 56 72q9 0 20 -2v19q-28 7 -59 24q-52 29 -56 30l3 -100q-67 99 -163 99q-82 0 -126 -77q-35 -62 -35 -148zM43 343q0 88 28 148q38 78 115 78
q47 0 96 -41t49 -74v-217q0 -30 -45 -60q-41 -28 -73 -28q-73 0 -121.5 59t-48.5 135z" />
    <glyph glyph-name="r" unicode="r" horiz-adv-x="313" vert-adv-y="313" 
d="M302 518q0 -33 -29 -33q-15 0 -33.5 9t-29.5 9q-20 0 -45.5 -42.5t-25.5 -65.5l2 -208q0 -49 23 -68q19 -17 69 -20v-16h-221v16q93 14 93 81v248q0 72 -48 72q-19 0 -28 -3v17q26 8 58 25q55 28 56 29v-112l46 70q32 44 62 44q51 0 51 -52z" />
    <glyph glyph-name="s" unicode="s" horiz-adv-x="365" vert-adv-y="365" 
d="M316 207q0 -58 -35.5 -90.5t-94.5 -32.5q-20 0 -57 11.5t-56 11.5q-13 0 -16 -18h-13v156h15q16 -71 33 -96q28 -41 88 -41q42 0 72 22.5t30 63.5q0 49 -60 89l-110 68q-60 45 -60 102q0 56 33 88t89 32q20 0 48.5 -12t35.5 -12q10 0 12 15h15l6 -135h-16q-10 58 -27 85
q-25 39 -75 39q-34 0 -64 -26t-30 -60q0 -47 61 -89q57 -35 115 -70q61 -45 61 -101z" />
    <glyph glyph-name="t" unicode="t" horiz-adv-x="261" vert-adv-y="261" 
d="M256 156q-26 -62 -107 -62q-64 0 -64 116v333h-47q0 12 1 19q37 14 50 55q9 43 17 85h12v-131h109v-28h-109v-312q0 -110 67 -110q31 0 59 40z" />
    <glyph glyph-name="u" unicode="u" horiz-adv-x="470" vert-adv-y="470" 
d="M456 129q-52 -12 -116 -42l-2 107q-30 -36 -61 -73q-38 -37 -83 -37q-53 0 -84 45q-27 38 -27 89v259q0 72 -69 78v14h104v-341q0 -45 20 -75q23 -35 63 -35q44 0 89 46.5t45 89.5v222q0 43 -15 58t-56 17v18h106v-353q0 -32 26 -50q23 -17 60 -18v-19z" />
    <glyph glyph-name="v" unicode="v" horiz-adv-x="470" vert-adv-y="470" 
d="M450 555q-33 -7 -46 -24q-9 -11 -22 -50l-134 -391q-34 98 -63 177q-70 190 -103 256q-10 20 -25 26q-1 0 -37 6v16h166v-16q-30 -5 -37 -9q-15 -9 -15 -33q0 -17 8 -37l113 -286q109 301 109 344q0 16 -35 21v16h121v-16z" />
    <glyph glyph-name="w" unicode="w" horiz-adv-x="678" vert-adv-y="678" 
d="M655 553q-32 -14 -44 -48l-143 -418l-107 314l-133 -314q4 -12 -145 407q-18 50 -60 61v15h143v-15q-52 -11 -52 -44l120 -345l113 266q-9 27 -16 47q-19 50 -31 61q-8 8 -47 15v15h171v-15q-33 -9 -42 -12q-24 -12 -24 -31l116 -328l113 343q0 14 -13 20q-3 1 -25 7v16
h106v-17z" />
    <glyph glyph-name="x" unicode="x" horiz-adv-x="470" vert-adv-y="470" 
d="M443 84h-172v16q39 4 39 28q0 16 -44 99q-31 59 -50 91q-6 -10 -112 -192q6 -17 9 -19.5t33 -6.5v-16h-128v16q24 2 38 15q9 8 23 33l120 209l-84 148q-27 48 -78 48q-10 0 -12 -1v16h188v-16q-15 -2 -34 -16q-22 -17 -22 -31q0 -20 63 -122q81 134 81 158q0 7 -30 11v16
h141v-16q-39 -2 -44 -4q-19 -5 -32 -28l-99 -173l116 -219q9 -17 33 -21q28 -4 57 -7v-16z" />
    <glyph glyph-name="y" unicode="y" horiz-adv-x="470" vert-adv-y="470" 
d="M448 555q-22 -3 -29.5 -9.5t-15.5 -28.5l-153 -416q-24 -64 -60 -111q-48 -62 -99 -62q-63 0 -63 50q0 37 42 37q10 0 29.5 -13t29.5 -13q55 0 113 176q0 8 -28 59l-33 59l-107 238q-11 23 -59 35v14h173v-15q-60 -6 -60 -44q0 -13 10 -34l123 -264q32 98 117 317
q0 16 -19 21q-6 1 -36 4v15h125v-15z" />
    <glyph glyph-name="z" unicode="z" horiz-adv-x="417" vert-adv-y="417" 
d="M381 217l-20 -133h-313v7l259 448h-141q-48 0 -65 -18t-22 -66h-17l1 114h289l3 -6l-258 -449h148q69 0 90 21q15 15 29 83z" />
    <glyph glyph-name="braceleft" unicode="{" horiz-adv-x="500" vert-adv-y="500" 
d="M419 48q-75 0 -108 26q-36 29 -36 99v167q0 43 -14 67t-53 40q39 13 54 41q13 23 13 66v167q0 70 36 99q32 27 108 27v-13q-106 -22 -106 -108v-158q0 -61 -6 -77q-12 -31 -59 -42v-5q46 -9 58 -41q7 -17 7 -77v-158q0 -47 28 -71q22 -19 78 -34v-15z" />
    <glyph glyph-name="bar" unicode="|" horiz-adv-x="500" vert-adv-y="500" 
d="M236 100v755h29v-755h-29z" />
    <glyph glyph-name="braceright" unicode="}" horiz-adv-x="500" vert-adv-y="500" 
d="M292 447q-39 -16 -53 -40t-14 -67v-167q0 -70 -34.5 -97.5t-109.5 -27.5v15q56 15 78 34q28 24 28 71v158q0 60 7 77q12 32 58 41v5q-47 11 -59 42q-6 16 -6 77v158q0 86 -106 108v13q76 0 108 -27q36 -29 36 -99v-167q0 -43 13 -66q15 -28 54 -41z" />
    <glyph glyph-name="asciitilde" unicode="~" horiz-adv-x="500" vert-adv-y="500" 
d="M353 368q-34 0 -104 44.5t-108 44.5q-46 0 -83 -72l-11 20q36 86 100 86q33 0 108 -43t99 -43q41 0 85 70l13 -23q-25 -41 -39 -56q-28 -28 -60 -28z" />
    <glyph glyph-name="uni007F" horiz-adv-x="500" vert-adv-y="500" 
 />
    <glyph glyph-name="exclamdown" unicode="&#xa1;" 
d="M514 696q-19 0 -32.5 15t-13.5 34t13.5 30.5t32.5 11.5q18 0 31 -12t13 -30q0 -49 -44 -49zM515 36q-45 0 -45 75q0 25 14 176l27 296h4q8 -89 30 -296q13 -121 13 -170q0 -81 -43 -81z" />
    <glyph glyph-name="currency" unicode="&#xa4;" 
d="M312 204l-85 -82l-42 42l85 81q-59 76 -59 181q0 113 64 186l-85 77l41 44l87 -80q82 65 186 65q103 0 183 -65l78 80l39 -40l-77 -79q66 -80 66 -181q0 -114 -62 -190l78 -74l-39 -45l-85 78q-74 -64 -182 -64q-113 0 -191 66zM734 429q0 94 -68 163t-162 69
q-98 0 -167 -68.5t-69 -166.5q0 -97 69 -165t166 -68q96 0 163.5 70t67.5 166z" />
    <glyph glyph-name="section" unicode="&#xa7;" 
d="M617 256q56 -37 56 -95q0 -62 -56 -97q-50 -31 -125 -31q-62 0 -109 23q-62 29 -62 86q0 74 48 74q37 0 37 -51q0 -18 -20 -30l-7 -4q-9 -6 -9 -12q0 -29 48 -42q33 -9 74 -9q52 0 89 19q46 25 46 72q0 34 -62 69q-9 5 -91 42q-74 33 -107 59q-49 38 -49 85q1 58 86 128
q-63 49 -63 111q0 60 49 94q44 31 114 31q61 0 106 -28q54 -33 54 -92q0 -29 -12 -50q-16 -25 -44 -25q-35 0 -35 37q0 33 27 45q24 11 24 16q0 33 -46 51q-35 15 -74 15q-117 0 -117 -93q0 -55 93 -96l88 -36q55 -24 83 -50q37 -34 37 -80q0 -34 -23 -75q-20 -36 -48 -61z
M435 525q-69 -63 -69 -107q0 -38 96 -88q51 -24 123 -57q16 21 36 54q23 41 23 56q0 44 -85 88z" />
    <glyph glyph-name="dieresis" unicode="&#xa8;" 
d="M617 876q20 0 33.5 -13.5t13.5 -33.5q0 -19 -13.5 -32.5t-33.5 -13.5t-33.5 13.5t-13.5 32.5q0 20 13.5 33.5t33.5 13.5zM367 876q20 0 33.5 -13.5t13.5 -33.5q0 -19 -13.5 -32.5t-33.5 -13.5t-33.5 13.5t-13.5 32.5q0 20 13.5 33.5t33.5 13.5z" />
    <glyph glyph-name="ordfeminine" unicode="&#xaa;" 
d="M600 744v-126q0 -18 15 -18q12 0 33 13v-16q-21 -21 -49 -21q-29 0 -33 35q-22 -18 -56.5 -31t-56.5 -13q-59 0 -59 62q0 46 64 78q52 19 105 39q0 84 -66 84q-35 0 -44 -10q-5 -6 -5 -31t-28 -25q-19 0 -19 18q0 23 17 35q37 29 89 29q54 0 75 -25q18 -23 18 -77z
M563 627v103q-139 -40 -139 -89q0 -25 5 -34q9 -14 40 -14q12 0 50.5 12.5t43.5 21.5zM385 477v21h253v-21h-253z" />
    <glyph glyph-name="uni00AD" unicode="&#xad;" 
d="M171 457h656v-39h-656v39z" />
    <glyph glyph-name="degree" unicode="&#xb0;" 
d="M258 829q54 0 93.5 -37t39.5 -91q0 -53 -39.5 -91t-93.5 -38q-53 0 -91 38t-38 91q0 54 37.5 91t91.5 37zM258 607q39 0 68 27.5t29 66.5t-28.5 66t-68.5 27q-39 0 -66.5 -27t-27.5 -66q0 -38 28 -66t66 -28z" />
    <glyph glyph-name="plusminus" unicode="&#xb1;" 
d="M480 776h43v-262h317v-43h-317v-262h-43v262h-316v43h316v262zM164 155h676v-43h-676v43z" />
    <glyph glyph-name="uni00B2" unicode="&#xb2;" 
d="M314 503h-199v8l97 107q60 66 60 118q0 76 -71 76q-57 0 -77 -63l-11 2q8 44 37.5 70.5t75.5 26.5q42 0 66 -24t24 -66q0 -37 -44 -95q-30 -37 -76 -87l-37 -41h110q26 0 39.5 8t24.5 32l8 -3z" />
    <glyph glyph-name="uni00B3" unicode="&#xb3;" 
d="M166 676v10q35 2 63 25t28 57q0 59 -59 59q-53 0 -84 -55l-10 7q39 84 117 84q30 0 55 -19.5t25 -49.5q0 -38 -53 -81q72 -23 72 -90q0 -119 -157 -119q-66 0 -66 35q0 7 6.5 13.5t13.5 6.5q17 0 40.5 -14.5t39.5 -14.5q83 0 83 64q0 82 -114 82z" />
    <glyph glyph-name="acute" unicode="&#xb4;" 
d="M520 850l53 -26l-154 -159l-18 12z" />
    <glyph glyph-name="paragraph" unicode="&#xb6;" 
d="M633 740v-658q0 -27 57 -25v-24h-95v707h-78l-1 -707h-92v20q49 6 49 26v331q-83 1 -130 58q-45 53 -45 135q0 81 64 132q60 48 145 48h196v-43h-70zM473 731q-53 -1 -91.5 -41t-38.5 -87q0 -60 29 -97q34 -42 101 -43v268z" />
    <glyph glyph-name="periodcentered" unicode="&#xb7;" 
d="M492 497q37 0 63.5 -26t26.5 -63t-26 -63.5t-64 -26.5q-37 0 -63.5 26.5t-26.5 63.5t26.5 63t63.5 26z" />
    <glyph glyph-name="cedilla" unicode="&#xb8;" 
d="M470 42l35 82h28l-36 -60q37 8 41 8q30 0 50.5 -19.5t20.5 -48.5q0 -36 -34 -57q-30 -18 -73 -18q-46 0 -77 12l5 22q43 -13 58 -13q30 0 55.5 13.5t25.5 37.5q0 43 -73 43q-14 0 -26 -2z" />
    <glyph glyph-name="uni00B9" unicode="&#xb9;" 
d="M290 484h-179v11h10q38 0 48.5 7.5t10.5 39.5v226q0 36 -18 36q-7 0 -28 -10q-23 -13 -28 -14l-6 9q54 27 118 72l5 -5v-314q0 -31 17 -41q11 -6 38 -6h12v-11z" />
    <glyph glyph-name="ordmasculine" unicode="&#xba;" 
d="M495 571q-58 0 -95 37t-37 90q0 59 35.5 97.5t96.5 38.5q62 0 100 -34.5t38 -89.5q0 -58 -37 -97q-39 -42 -101 -42zM373 459v35h250v-35h-250zM491 814q-43 0 -68 -34q-21 -30 -21 -71q0 -115 99 -115q42 0 71 39q25 35 25 73q0 45 -26 75q-29 33 -80 33z" />
    <glyph glyph-name="onequarter" unicode="&#xbc;" 
d="M164 355v17q17 1 45 7q13 5 13 23v269q0 36 -18 36q-7 0 -18 -4l-24 -8v19l103 44v-346q0 -20 14 -27q5 -2 25 -5q6 -1 22 -4v-21h-162zM277 46h-43l464 698h43zM828 107v-69h-29v69h-188v32l188 326h29v-327h53v-31h-53zM799 412l-157 -274h157v274z" />
    <glyph glyph-name="onehalf" unicode="&#xbd;" 
d="M832 63h-192v35q50 58 101 115q57 70 57 110q0 49 -10 73q-17 37 -62 37q-54 0 -87 -87l-14 3q27 114 118 114q41 0 68 -35t27 -75q0 -53 -66 -136q-48 -58 -97 -115h101q33 0 49.5 9t34.5 36l8 -3zM277 46h-43l464 698h43zM162 354v22q5 0 14.5 -1t14.5 -1q35 0 35 36
v259q0 27 -14 27l-34 -9v19l85 50v-346q0 -23 22 -28q3 -1 40 -2v-26h-163z" />
    <glyph glyph-name="threequarters" unicode="&#xbe;" 
d="M199 331q-66 21 -66 43q0 9 7.5 17t15.5 8q23 0 48 -17q1 -1 17 -16q9 -9 19 -9q39 0 67.5 19t28.5 57q0 65 -34 92q-28 21 -91 22v27q64 20 72 24q33 18 33 54q0 30 -20.5 55t-50.5 25q-53 0 -99 -75l-9 3q35 95 114 95q42 0 69 -20q31 -23 31 -65q0 -28 -17 -56
q-21 -33 -56 -41q42 -10 69 -46t27 -76q0 -59 -47 -92q-42 -29 -104 -29q-12 0 -24 1zM828 107v-69h-29v69h-188v32l188 326h29v-327h53v-31h-53zM799 412l-157 -274h157v274zM277 46h-43l464 698h43z" />
    <glyph glyph-name="questiondown" unicode="&#xbf;" 
d="M513 704q-19 0 -34 15t-15 34q0 21 14 34.5t35 13.5q20 0 34 -14t14 -34q0 -21 -13.5 -35t-34.5 -14zM516 32q-83 0 -138 47q-58 49 -58 131q0 39 24 91q21 49 49 82q89 106 122 217h11q-5 -63 -66 -197q-58 -128 -58 -202q0 -68 35 -109q37 -44 104 -44q39 0 78 23
q44 26 44 62q0 11 -22 33q-18 18 -18 44q0 36 32 36q46 0 46 -61q0 -74 -57 -116q-51 -37 -128 -37z" />
    <glyph glyph-name="AE" unicode="&#xc6;" 
d="M850 144l-34 -132h-413v19q13 -1 24 -1q67 0 67 51v239h-206q-23 -58 -41 -105q-43 -112 -52 -152q-5 -24 36 -36v-15h-123v15q35 7 48 22q10 11 27 55l243 631h387v-112h-17q-34 92 -114 92h-109q-47 0 -47 -48v-262h117q47 0 101 63h17v-149h-17q-44 66 -101 66h-117
v-305q0 -21 16 -34.5t41 -13.5h110q56 0 89 33q11 12 53 79q2 3 4 3q1 0 3 -4t4 -4q2 1 4 5zM494 710h-57l-141 -373h198v373z" />
    <glyph glyph-name="Eth" unicode="&#xd0;" 
d="M243 735h193q169 0 263.5 -91t94.5 -254q0 -170 -100 -274t-272 -104h-184v19q57 14 57 79v272h-80v29h80v226q0 40 -14 56q-9 10 -38 19v23zM429 712q-61 0 -75 -7q-25 -12 -25 -64v-230h104v-29h-104v-268q0 -82 88 -82q150 0 241 86q100 94 100 271q0 171 -99 253
q-84 70 -230 70z" />
    <glyph glyph-name="multiply" unicode="&#xd7;" 
d="M785 772l28 -28l-293 -293l296 -296l-23 -32l-299 303l-299 -299l-27 28l299 298l-299 303l23 24l301 -301z" />
    <glyph glyph-name="Oslash" unicode="&#xd8;" 
d="M695 629q70 -103 70 -260q0 -158 -86.5 -265.5t-206.5 -107.5q-89 0 -159 64l-68 -102l-21 16l70 104q-100 110 -100 288q0 171 79 275.5t208 104.5q119 0 197 -95l89 133l21 -16zM481 725q-106 0 -177 -98q-74 -103 -74 -264q0 -67 22 -136q22 -72 61 -122l345 516
q-69 104 -177 104zM673 597l-343 -513q59 -63 142 -63q96 0 173 96q82 103 82 246q0 136 -54 234z" />
    <glyph glyph-name="Thorn" unicode="&#xde;" 
d="M438 733v-14q-20 0 -34 -18.5t-14 -35.5v-101q43 6 84 6q105 0 168 -40q72 -47 72 -137q0 -173 -249 -173q-34 0 -75 3v-143q0 -13 16.5 -26t32.5 -24v-18h-138v12q51 40 51 56v585q0 17 -15 35.5t-34 18.5v14h135zM470 548q-41 0 -59 -11q-21 -13 -21 -44v-244
q51 -3 82 -3q96 0 145 26q64 34 64 116q0 89 -72 130q-54 30 -139 30z" />
    <glyph glyph-name="germandbls" unicode="&#xdf;" 
d="M625 566q0 -125 -93 -146q-1 -3 -1 -13q0 -12 1 -13q58 -2 97.5 -56.5t39.5 -139.5q0 -46 -23 -96q-28 -62 -72 -62q-32 0 -39 2q-15 5 -25 28t-27 23q-20 0 -20 -28q0 -24 31 -41q27 -14 54 -14q67 0 115 66q46 62 46 139q0 144 -121 190v13q46 18 66 85q11 36 11 65
q0 91 -52 135q-43 36 -116 36q-150 0 -150 -225v-434q0 -53 -65 -53v-22h102v582q0 61 35 97q32 32 79 32q51 0 87 -37q40 -42 40 -113z" />
    <glyph glyph-name="ae" unicode="&#xe6;" 
d="M800 117q-65 -102 -159 -102q-37 0 -74 20q-43 21 -63 58q-80 -47 -82 -48q-47 -24 -82 -24q-45 0 -74.5 30.5t-29.5 76.5q0 64 43 107q33 32 100 58q55 21 110 41v57q0 40 -31 65.5t-71 25.5q-32 0 -53.5 -15.5t-19.5 -42.5q5 -55 -32 -55q-30 0 -30 36q0 45 42 73
q39 27 94 27q83 0 128 -55q58 49 118 49q69 0 109 -59q34 -51 40 -132h-261q-1 -127 14 -174q28 -89 123 -89q35 0 78 34q41 31 41 48q0 3 -1 4q-3 -5 11.5 -7.5t11.5 -6.5zM737 334q0 57 -29 97q-32 45 -88 45q-94 0 -97 -142h214zM489 125v185q-109 -42 -139 -60
q-75 -45 -75 -109q0 -37 20.5 -62t59.5 -25q25 0 73 21q55 25 61 50z" />
    <glyph glyph-name="eth" unicode="&#xf0;" 
d="M501 2q-90 0 -144 71q-51 66 -51 161t59.5 170.5t138.5 75.5q29 0 70 -19q48 -23 84 -63q-28 83 -77 128t-132 61q-14 3 -46 11l-60 -83l-24 20l55 75q-67 16 -73 37q-2 9 9 33q17 -13 33 -20q23 -10 54 -19l58 81l27 -24l-52 -68l36 -10q236 -66 236 -329q0 -18 -1 -38
q-6 -111 -63 -181t-137 -70zM504 452q-77 0 -119 -68q-36 -60 -36 -151q0 -80 40 -138q45 -64 118 -64q70 0 114 71q36 58 41 131q4 81 -32 144q-44 75 -126 75z" />
    <glyph glyph-name="divide" unicode="&#xf7;" 
d="M492 733q23 0 39 -16t16 -39t-16 -39t-39 -16q-22 0 -38 16t-16 39t16 39t38 16zM125 463h742v-43h-742v43zM492 276q23 0 39 -16t16 -39t-16 -39t-39 -16q-22 0 -38 16t-16 39t16 39t38 16z" />
    <glyph glyph-name="oslash" unicode="&#xf8;" 
d="M397 89q52 -44 114 -44q72 0 123 79q47 75 43 160q-6 118 -66 172zM595 469q-47 34 -108 34q-70 0 -119 -67q-46 -63 -46 -147q0 -17 2 -34q16 -107 58 -152zM660 582l16 -13l-49 -86q89 -68 89 -192q0 -111 -59 -189q-61 -81 -156 -81q-65 0 -118 42l-34 -58l-16 13
l34 59q-82 77 -82 191q0 109 55 182q59 77 156 77q63 0 114 -32z" />
    <glyph glyph-name="thorn" unicode="&#xfe;" 
d="M532 72q-89 0 -147 57l1 -146q0 -45 52 -68h-123q37 16 37 68v637q0 47 -11 59.5t-54 11.5v10q31 6 99 24v-269q41 57 80 72q23 8 89 8q73 0 114 -64q36 -55 39 -140q4 -96 -37 -171q-49 -89 -139 -89zM510 505q-51 0 -91 -44q-33 -36 -33 -62v-233q0 -20 45 -45.5
t83 -25.5q69 0 105 64q29 53 29 133q0 76 -29 136q-37 77 -109 77z" />
    <glyph glyph-name="dcroat" unicode="&#x111;" 
d="M718 57q-20 -6 -41 -18q-29 -17 -42 -23v66q-76 -70 -163 -70q-80 0 -129 76q-45 68 -45 158q0 107 55 178.5t144 71.5t138 -57v148h-183v32h183v31q0 39 -39 65q-10 6 -50 6q-5 0 -6 9q0 9 6 12q50 22 85 22q41 0 41 -36v-109h65v-32h-65v-487q0 -43 46 -43zM635 365
q0 35 -39 69q-43 38 -101 38q-68 0 -114 -69q-42 -63 -42 -138q0 -100 41.5 -164.5t109.5 -64.5q46 0 97 39q48 38 48 69v221z" />
    <glyph glyph-name="Hbar" unicode="&#x126;" 
d="M588 11v10q77 4 77 64v275h-348v-275q0 -60 77 -64v-10h-189v10q77 4 77 64v432h-85v27h85v118q0 60 -77 64v9h189v-9q-77 -4 -77 -64v-118h348v118q0 60 -77 64v9h189v-9q-77 -4 -77 -64v-118h71v-27h-71v-432q0 -60 77 -64v-10h-189zM665 517h-348v-129h348v129z" />
    <glyph glyph-name="hbar" unicode="&#x127;" 
d="M609 12v17q63 0 63 51v264q0 132 -126 132q-39 0 -73 -31q-26 -28 -52 -57v-308q0 -23 18 -37t45 -14v-17h-184v17q75 0 75 51v472h-113v26h113v72q0 23 -34 25q9 0 -51 -2l1 16l130 36v-147h122v-26h-122v-130q54 80 145 80q149 0 149 -157v-265q0 -51 79 -51v-17h-185z
" />
    <glyph glyph-name="dotlessi" unicode="&#x131;" 
d="M392 12v17q46 0 61.5 12t15.5 45v534q0 47 -42 47h-16q-10 -1 -15 -1l1 23q28 6 115 36v-639q0 -57 79 -57v-17h-199z" />
    <glyph glyph-name="IJ" unicode="&#x132;" 
d="M618 759h151l-1 -24q-32 0 -44 -15t-12 -53v-469q0 -200 -107 -200q-31 0 -53 14q-25 16 -25 45q0 33 26 33q22 0 29 -14q1 -3 6 -32q4 -23 38 -23q23 0 37 29q12 26 12 63v554q0 36 -12.5 52t-46.5 16zM402 18h-149v24q35 0 47 14t12 54v557q0 38 -12.5 51t-43.5 17v24
h146v-24q-33 0 -46 -19q-10 -15 -10 -49v-557q0 -38 8 -51q11 -17 48 -17v-24z" />
    <glyph glyph-name="ij" unicode="&#x133;" 
d="M695 652q-16 0 -27.5 11.5t-11.5 27.5t11.5 27.5t27.5 11.5t27.5 -11.5t11.5 -27.5t-11.5 -27.5t-27.5 -11.5zM327 652q-16 0 -27.5 11.5t-11.5 27.5t11.5 27.5t27.5 11.5t27.5 -11.5t11.5 -27.5t-11.5 -27.5t-27.5 -11.5zM569 -88q-27 0 -49 10q-28 13 -28 36
q0 33 40 33q17 0 39 -20t44 -20q28 0 50 31q20 28 20 54v366q0 35 -21 42q-5 2 -42 2v20l106 35v-372q0 -217 -159 -217zM241 6v20q46 0 56 2q28 8 28 38v349q0 29 -31 29q-7 0 -21 -1.5t-20 -1.5l1 16q25 3 56 17q43 19 54 23v-431q0 -40 101 -40v-20h-224z" />
    <glyph glyph-name="kgreenlandic" unicode="&#x138;" 
d="M710 494q-31 -14 -55 -27q-57 -29 -73 -45t-49.5 -51.5t-59.5 -61.5l141 -208q21 -32 38 -46q30 -24 80 -33v-17h-205v17q67 0 67 32q0 13 -12 32q-37 53 -139 198l-46 -41v-163q0 -28 28 -44q24 -14 58 -14v-17h-222v17q96 0 96 58v330q0 45 -35 45q-1 0 -26 -1v22
l101 42v-246q48 44 96 89q55 53 83 98q3 16 -21 35l1 16h153z" />
    <glyph glyph-name="Ldot" unicode="&#x13f;" 
d="M520 437q-13 0 -23.5 11t-10.5 28t10.5 28t23.5 11t23.5 -11t10.5 -28t-10.5 -28t-23.5 -11zM382 735q-34 -3 -46 -19t-12 -49v-587q0 -45 138 -45h80q35 0 73 15t81 105h16l-36 -143h-435v22q17 10 34.5 21.5t17.5 24.5v587q0 54 -52 68v22h141v-22z" />
    <glyph glyph-name="ldot" unicode="&#x140;" 
d="M603 408q-18 0 -30.5 12.5t-12.5 30.5t12.5 30.5t30.5 12.5t30.5 -12.5t12.5 -30.5t-12.5 -30.5t-30.5 -12.5zM363 696q27 6 54 18q37 16 53 22v-656q0 -37 13 -48.5t53 -11.5v-15h-174v15q39 0 53.5 12t14.5 48v540q0 42 -14 54q-11 9 -53 9v13z" />
    <glyph glyph-name="Lslash" unicode="&#x141;" 
d="M682 4h-459v18q78 1 78 58v319l-69 -52v22l69 52v241q0 63 -78 64v19h193v-19q-80 -1 -80 -64v-219l71 52v-25l-71 -52v-338q0 -22 42 -37q38 -14 84 -14q109 0 148 15q65 25 98 115h17z" />
    <glyph glyph-name="lslash" unicode="&#x142;" 
d="M414 703q27 6 53 18q36 16 53 22v-240l77 52v-29l-77 -52v-394q0 -22 13 -32q8 -6 49 -25v-18h-179v18q44 5 55 11q22 11 22 46v350l-77 -52v29l77 52v168q0 36 -13.5 48t-52.5 12v16z" />
    <glyph glyph-name="napostrophe" unicode="&#x149;" 
d="M795 347q0 73 -35 111t-90 38q-116 0 -189 -79v75q-36 -15 -98 -39l-1 -8q42 3 52 -7t10 -63v-297q-15 -10 -29.5 -19.5t-28.5 -11.5v-21h144v20q-13 3 -23 12q-18 15 -26 21v309q26 28 63 51q46 28 82 28q59 0 94 -31.5t35 -78.5v-277q-12 -7 -26 -21q-9 -10 -22 -12
v-21h141v20q-13 4 -25 12q-26 20 -28 21v268zM204 468l-2 1q27 16 52 47q27 35 27 60q0 22 -21 22q-6 0 -17 -2t-15 -2q-34 4 -34 42q0 43 53 43q60 0 60 -81q0 -35 -30 -75t-68 -60l-7 5h2z" />
    <glyph glyph-name="Eng" unicode="&#x14a;" 
d="M717 129v437q0 67 -46 115.5t-111 48.5q-38 0 -97 -23q-66 -25 -81 -53q0 89 -11 89q-4 0 -32 -14q-31 -15 -36 -17q-15 -5 -15 -17t12 -12l45 6v-620q0 -22 -22.5 -25.5t-22.5 -17.5q0 -12 11 -12h105q12 0 12 12q0 13 -21.5 17.5t-21.5 25.5v554q14 23 70 49t86 26
q52 0 90 -27q48 -34 48 -100v-443q0 -50 -2 -64q-6 -34 -28 -34q-9 0 -22 15q-18 22 -19 22q-14 11 -27 11q-27 0 -27 -28q0 -12 8 -23q18 -27 69 -27q86 0 86 129z" />
    <glyph glyph-name="eng" unicode="&#x14b;" 
d="M539 -88q-24 0 -45 10q-25 12 -25 34q0 28 23 28q12 0 22 -10q2 -3 13 -25q6 -13 24 -13q64 0 64 66v339q0 113 -125 113q-34 0 -72 -23t-57 -53v-309q0 -20 15.5 -24t31.5 -7v-12h-133v13q17 2 34.5 5.5t17.5 24.5v403q-35 -7 -64 -7q22 6 54 26q29 18 44 34v-120
q51 83 156 83q64 0 99 -45q33 -41 33 -107v-308q0 -116 -110 -116z" />
    <glyph glyph-name="OE" unicode="&#x152;" 
d="M886 148l-33 -136h-299q-26 0 -82 -3.5t-80 -3.5q-92 0 -166 100q-82 110 -82 270q0 167 85 268q78 94 190 94h64q45 -1 71 -1h293v-105h-23q-10 25 -20 49q-16 33 -38 33h-129q-31 0 -61 -14q-34 -16 -34 -37v-259h147q75 0 106 67h12v-153h-12q-36 69 -106 69h-147
v-306q0 -42 102 -42h90q64 0 133 110h19zM505 595q0 62 -17 86q-22 31 -83 31q-105 0 -170 -121q-53 -100 -53 -210q0 -134 61 -241q65 -112 157 -112q62 0 85 27q20 24 20 88v452z" />
    <glyph glyph-name="oe" unicode="&#x153;" 
d="M686 12q-40 0 -84 29q-49 33 -67 83q-32 -64 -67.5 -88t-90.5 -24q-81 0 -136 80q-49 70 -49 151q0 96 53 170q59 83 154 83q80 0 135 -85q32 48 55 65q29 20 78 20q72 0 110 -56q35 -52 35 -143h-257q-2 -96 24 -165q35 -95 113 -95q29 0 62.5 23t38.5 45q1 -1 2 -3
q2 1 8.5 3t8.5 2t1 -2q-6 -28 -42 -58q-41 -35 -85 -35zM656 470q-46 0 -77 -55q-27 -47 -23 -91h215q0 146 -115 146zM379 469q-66 0 -108 -79q-35 -67 -35 -145q0 -71 39 -133q46 -73 117 -73q64 0 97 59q26 46 28 112v84q-1 70 -36 120q-39 55 -102 55z" />
    <glyph glyph-name="Tbar" unicode="&#x166;" 
d="M250 594l4 139h484q10 -136 25 -149h-35q-7 32 -15 65q-10 41 -20 49q-16 11 -42 12q38 -1 -45 -1h-101v-217h131v-27h-131v-385q0 -50 51 -50v-18h-146v21q51 0 51 47v385h-110v27h110v217h-108q-57 -8 -75 -36q-5 -8 -6 -39q-2 -34 -4 -40h-18z" />
    <glyph glyph-name="tbar" unicode="&#x167;" 
d="M401 465q24 23 50 67q21 39 42 77v-117h111v-27h-111v-38h112v-27h-112v-280q0 -58 8 -75.5t31 -17.5q6 0 26.5 1.5t35.5 1.5h2q-42 -36 -85 -36q-38 0 -49 34q-9 26 -9 108v264h-55v27h55v38h-52z" />
    <glyph glyph-name="caron" unicode="&#x2c7;" 
d="M539 652h-78l-173 240h58l154 -205l154 205h58z" />
    <glyph glyph-name="uni02D0" unicode="&#x2d0;" 
d="M505 537l-137 189h275zM361 30l138 189l137 -189h-275z" />
    <glyph glyph-name="breve" unicode="&#x2d8;" 
d="M502 670q-65 0 -107.5 35t-50.5 96h41q5 -45 42 -73q33 -27 75 -27q45 0 77 29.5t39 70.5h43q-17 -61 -60 -96t-99 -35z" />
    <glyph glyph-name="dotaccent" unicode="&#x2d9;" 
d="M500 664q-39 -1 -66.5 27.5t-28.5 67.5q-1 40 28 66.5t69 26.5t66.5 -27.5t26.5 -65.5q0 -40 -27.5 -67t-67.5 -28z" />
    <glyph glyph-name="ring" unicode="&#x2da;" 
d="M597 726q0 42 -27.5 70.5t-71.5 28.5t-70 -25.5t-26 -73.5q0 -99 96 -99q43 0 71 27t28 72zM498 864q60 0 100.5 -39t40.5 -96q0 -70 -38.5 -105.5t-102.5 -35.5q-62 0 -98 34q-39 36 -39 104q0 63 39 100.5t98 37.5z" />
    <glyph glyph-name="ogonek" unicode="&#x2db;" 
d="M520 -63q-28 0 -45 16.5t-17 43.5q0 42 33 73h30q-26 -41 -26 -54q0 -47 48 -47q11 0 30 15q13 10 26 21l5 -20q-29 -48 -84 -48z" />
    <glyph glyph-name="hungarumlaut" unicode="&#x2dd;" 
d="M510 617q52 106 61 127q30 70 38 132h50q-35 -143 -149 -259zM338 617q65 132 81 259h53q-21 -87 -45 -137q-31 -63 -89 -122z" />
    <glyph glyph-name="Alpha" unicode="&#x391;" 
d="M520 783q142 -348 259 -617q31 -71 119 -79v-31h-251v31q91 0 91 47l-72 172h-352l-38 -84q-26 -62 -26 -88q0 -31 32 -41q18 -6 58 -6v-31h-227v31q70 19 103 93l254 567zM495 720l-168 -383h328z" />
    <glyph glyph-name="Beta" unicode="&#x392;" 
d="M180 755h328q99 0 167 -31q91 -41 91 -129q0 -65 -56 -113q-47 -42 -112 -55q85 -17 140 -61q67 -52 67 -130q0 -102 -118 -148q-82 -32 -203 -32h-308v31q58 0 73 5q32 12 32 58v500q0 53 -25 66q-15 8 -76 8v31zM430 87q115 0 195 24q123 37 123 125q0 81 -84 129
q-70 40 -160 41l-170 2v-250q0 -42 26 -58q21 -13 70 -13zM334 439h169q68 0 133 39q73 44 73 105q0 141 -252 141q-63 0 -85 -9q-38 -15 -38 -65v-211z" />
    <glyph glyph-name="Gamma" unicode="&#x393;" 
d="M199 755h543l71 -160l-32 -8q-52 76 -105 106q-56 31 -145 31h-82q-99 0 -99 -63v-503q0 -54 31 -66q13 -5 82 -5v-31h-264v31q64 0 77 6q25 11 25 65v503q0 50 -28 60q-10 3 -74 3v31z" />
    <glyph glyph-name="uni0394" unicode="&#x394;" 
d="M498 687l-262 -605h511zM823 37h-646l316 720h20z" />
    <glyph glyph-name="Epsilon" unicode="&#x395;" 
d="M180 755h543l66 -148l-23 -8q-66 85 -152 109q-56 16 -192 16q-94 0 -94 -66v-212h103q126 0 149 17q29 21 29 89h32v-238h-32q-10 61 -31 77.5t-151 16.5h-99v-254q0 -41 33 -56q23 -11 73 -11q186 0 244 28q52 25 127 121l23 -16l-74 -164h-574v31q101 0 101 78v493
q0 43 -31 57q-20 9 -70 9v31z" />
    <glyph glyph-name="Zeta" unicode="&#x396;" 
d="M700 37h-469v27l444 660h-172q-78 0 -133 -30t-117 -97l-23 10l67 143h430v-20l-447 -663h190q63 0 87 7q106 19 196 146l30 -10z" />
    <glyph glyph-name="Eta" unicode="&#x397;" 
d="M109 755h253v-31q-61 0 -77 -9q-25 -15 -25 -69v-215h472v215q0 55 -24 69q-17 9 -78 9v31h253v-31q-61 0 -77 -9q-25 -15 -25 -69v-481q0 -56 25 -69q15 -9 77 -9v-31h-253v31q56 0 75 11q27 16 27 67v235h-472v-235q0 -56 25 -69q15 -9 77 -9v-31h-253v31q56 0 75 11
q27 16 27 67v481q0 55 -24 69q-17 9 -78 9v31z" />
    <glyph glyph-name="Theta" unicode="&#x398;" 
d="M380 279h-30v238h30v-40q0 -57 53 -57h134q38 0 48 15q8 11 8 42v40h27v-238h-27v43q0 32 -11.5 43t-44.5 11h-134q-34 0 -45 -14q-8 -10 -8 -40v-43zM181 385q0 -125 90 -225q97 -107 236 -107q123 0 214 90q99 98 99 255q0 161 -96 249q-86 80 -221 80q-129 0 -219 -84
q-103 -94 -103 -258zM134 380q0 166 100.5 273t265.5 107q157 0 257 -92q110 -101 110 -278q0 -150 -102 -256q-105 -110 -262 -110q-138 0 -249 98q-120 106 -120 258z" />
    <glyph glyph-name="Iota" unicode="&#x399;" 
d="M624 64v-27h-250v27h43q60 0 60 73v517q0 66 -60 66h-43v30h253v-30h-40q-63 0 -63 -66v-520q0 -60 56 -70h44z" />
    <glyph glyph-name="Kappa" unicode="&#x39a;" 
d="M373 64v-27h-246v27h43q26 0 39 14.5t18 55.5v516q0 37 -13.5 53t-46.5 21h-44v26h250v-26h-43q-24 0 -42 -18.5t-18 -51.5v-304l307 267q54 47 54 71q0 10 -9.5 18t-18.5 14q-26 0 -50 4v26h287v-26q-37 0 -47 -4q-68 -15 -146 -83l-190 -166l265 -326q44 -54 88 -69
q26 -9 87 -9v-30h-294v30q9 0 20.5 1.5t15.5 1.5q45 0 45 27q0 22 -31 60l-229 286l-154 -133v-173q0 -41 12.5 -57t47.5 -16h43z" />
    <glyph glyph-name="Lambda" unicode="&#x39b;" 
d="M363 37h-236v30q59 5 92 50q18 24 48 100l210 540h33l250 -633q11 -29 38 -41q23 -10 79 -16v-30h-247v30q86 0 86 43l-231 589l-192 -492q-21 -55 -21 -79q0 -20 11 -31q19 -30 80 -30v-30z" />
    <glyph glyph-name="Mu" unicode="&#x39c;" 
d="M317 37h-230v27q100 0 100 73v510q0 37 -9 52q-11 21 -45 21h-50v30h153l272 -655l246 655h159v-30h-40q-31 0 -43 -11q-17 -16 -17 -62v-510q0 -44 26 -59q20 -11 74 -14v-27h-246v27q53 0 71 10q26 15 26 63v557l-254 -674h-20l-270 650v-533q0 -37 20.5 -53.5
t76.5 -16.5v-30z" />
    <glyph glyph-name="Nu" unicode="&#x39d;" 
d="M353 64v-27h-226v27q52 5 74 27t22 79v480q0 52 -40 67q-13 2 -60 7v26h143l478 -635v489q0 66 -20.5 91t-83.5 25v30h237v-26q-51 0 -75.5 -28.5t-24.5 -98.5v-577h-20l-501 667v-520q0 -67 40 -93q16 -10 57 -10z" />
    <glyph glyph-name="Xi" unicode="&#x39e;" 
d="M797 37h-600v132h26v-23q0 -26 18.5 -44.5t51.5 -18.5h414q63 0 63 63v23h27v-132zM337 297h-27v206h30v-37q0 -50 50 -50h220q47 0 47 50v37h30v-209h-30v40q0 43 -47 43h-227q-46 0 -46 -43v-37zM237 615h-27v135h577v-135h-30v27q0 34 -14 48.5t-50 14.5h-390
q-38 0 -52 -13t-14 -50v-27z" />
    <glyph glyph-name="Omicron" unicode="&#x39f;" 
d="M510 27q-158 0 -261 94q-112 100 -112 273q0 178 116 278q101 88 250 88q144 0 250 -103q110 -106 110 -260t-104.5 -262t-248.5 -108zM497 734q-109 0 -207 -94q-106 -103 -106 -240q0 -152 103 -253q95 -93 220 -93q122 0 214 92q99 99 99 251q0 148 -98 245
q-93 92 -225 92z" />
    <glyph glyph-name="Pi" unicode="&#x3a0;" 
d="M363 37h-236v30h40q60 0 60 67v516q0 70 -60 70h-44v30h750v-30h-43q-57 0 -57 -70v-510q0 -43 17 -59q12 -11 43 -11h40v-33h-236v33h36q57 0 57 70v510q0 39 -16 56q-12 12 -44 18h-343q-35 0 -44 -7q-16 -13 -16 -67v-516q0 -38 12.5 -52.5t47.5 -14.5h36v-30z" />
    <glyph glyph-name="Rho" unicode="&#x3a1;" 
d="M456 67v-30h-253v30h40q30 0 43.5 14.5t13.5 55.5v513q0 45 -14 59q-11 11 -46 11h-40v30h273q160 0 245 -57q76 -51 76 -139q0 -91 -85.5 -140.5t-245.5 -49.5h-117v-227q0 -40 13 -55t47 -15h50zM346 654v-260h127q108 0 182 33q95 43 95 127q0 95 -109 138
q-78 32 -188 32q-50 0 -72 -10q-35 -16 -35 -60z" />
    <glyph glyph-name="Sigma" unicode="&#x3a3;" 
d="M764 37h-564v20l307 323l-287 354v16h513l47 -196l-27 -10q-22 49 -46 90q-51 90 -204 90h-222l275 -338l-285 -307h357q37 0 70 20t46 50l34 77l26 -3z" />
    <glyph glyph-name="Tau" unicode="&#x3a4;" 
d="M219 755h590l66 -164l-27 -12q-114 145 -227 145q-82 0 -82 -70v-508q0 -45 35 -55q12 -4 74 -4v-31h-265v31q57 0 73 5q36 11 36 54v508q0 70 -82 70q-70 0 -132 -45q-39 -28 -102 -100l-24 16z" />
    <glyph glyph-name="Upsilon" unicode="&#x3a5;" 
d="M213 550h-26q3 34 16 100q41 110 140 110q88 0 134 -93q8 -25 26 -93q16 64 34 96q51 90 130 90q96 0 136 -110q14 -39 14 -100h-24q-30 162 -133 162q-50 0 -91 -66t-41 -105v-407q0 -67 57 -67h50v-30h-266v30h50q25 0 42.5 19t17.5 48v407q0 28 -39 106q-47 68 -97 68
q-108 0 -130 -165z" />
    <glyph glyph-name="Phi" unicode="&#x3a6;" 
d="M531 610v-413q109 6 181 58q78 58 78 149q0 88 -76 147t-183 59zM482 197v417q-114 0 -190 -55q-82 -59 -82 -159q0 -90 80 -148q77 -55 192 -55zM482 117v53q-155 0 -243 74q-79 66 -79 160q0 96 73 160q87 76 249 76v45q1 25 -30 33q-22 6 -74 6v26h253v-26
q-15 2 -27 2q-56 0 -73 -36v-50q155 0 240 -81q69 -67 69 -159q0 -86 -79 -155q-90 -78 -230 -78v-53q0 -53 57 -53q15 0 40 3v-27h-246v27q62 0 74 4q26 9 26 49z" />
    <glyph glyph-name="Chi" unicode="&#x3a7;" 
d="M407 67v-30h-270v30q94 0 176 110l163 219l-176 251q-52 64 -71 72q-11 5 -76 5v26h273v-26q-53 0 -60 -4q-25 -8 -25 -30q0 -21 22 -53l139 -205l151 202q28 38 28 54q0 36 -91 36v26h267v-26q-99 0 -174 -100l-162 -215l187 -265q47 -67 153 -80v-27h-270v30
q80 0 80 36q0 19 -23 51l-152 219l-159 -213q-19 -25 -19 -47q0 -46 89 -46z" />
    <glyph glyph-name="Psi" unicode="&#x3a8;" 
d="M122 614l-10 13q51 67 98 67q40 0 59.5 -17.5t27.5 -61.5q12 -82 36 -221q27 -123 148 -150v430q0 39 -21 48q-7 2 -52 2h-24v26h244v-26h-30q-36 0 -46 -4q-24 -9 -24 -46v-430q59 10 91 39.5t54 98.5q7 21 27 135q19 109 19 117q24 56 68 56t116 -56l-13 -17
q-13 11 -24 18q-28 19 -46 20q-7 1 -13 1q-36 0 -48 -63q-16 -85 -31 -170q-19 -94 -38 -119q-32 -44 -72 -63q-28 -12 -90 -24v-83q0 -43 18 -58q11 -10 48 -16h30v-23h-240v23h27q70 0 70 74v83q-51 0 -101.5 30t-74.5 77q-15 29 -32 135q-9 64 -19 128q-9 25 -17 51
q-12 23 -41 23q-19 0 -34 -14q-30 -26 -40 -33z" />
    <glyph glyph-name="uni03A9" unicode="&#x3a9;" 
d="M423 79v68q-113 17 -180 105q-63 84 -63 198q0 131 91 220.5t226 89.5q151 0 240 -88q86 -85 86 -218q0 -108 -59 -194q-69 -99 -187 -113v-68h140q40 0 55 17t15 56v47h30v-162h-267v130q227 52 227 290q0 118 -80 199q-79 78 -190 78q-117 0 -195 -74q-85 -81 -85 -220
q0 -105 48 -166q52 -65 178 -107v-130h-263v165h27v-53q0 -34 20 -52t50 -18h136z" />
    <glyph glyph-name="alpha" unicode="&#x3b1;" 
d="M557 150q-1 15 3 227q2 150 -90 150q-68 0 -121 -105q-52 -101 -52 -222q0 -136 117 -136q46 0 81 24q27 18 62 62zM560 110q-78 -83 -163 -83q-69 0 -120 53t-53 134q-3 125 74 232.5t176 107.5q153 0 153 -190v-104q56 126 70 184q26 69 23 96l54 -26q-23 -65 -67 -174
q-36 -76 -83 -150q0 -66 3 -76q9 -31 30 -31q16 0 37 21q20 15 50 76l23 -10q-37 -75 -65 -106q-32 -34 -68 -34q-28 0 -48 24t-26 56z" />
    <glyph glyph-name="beta" unicode="&#x3b2;" 
d="M350 287q-1 -28 -7 -90q31 -77 74 -108q35 -25 93 -25q65 0 108 50q45 54 45 143q0 56 -12 86q-16 43 -64 77l-50 -10q-35 0 -57.5 14t-22.5 30q0 20 40 20q25 0 93 -27q97 32 97 163q0 127 -117 127q-128 0 -170 -180q-44 -187 -50 -270zM313 -76h-86q24 93 100 473
q45 213 86 277q58 90 170 90q78 0 124 -41t46 -109q0 -122 -133 -187q68 -49 91 -95q19 -36 19 -95q0 -54 -29 -105t-74 -78q-58 -24 -90 -24q-128 0 -200 120z" />
    <glyph glyph-name="gamma" unicode="&#x3b3;" 
d="M243 417l-20 10q52 67 97 93q34 25 73 25q49 0 84 -41q44 -52 40 -160q58 81 110 133q35 35 120 73l30 -76q-52 -14 -70 -19q-33 -10 -50 -21q-40 -20 -84.5 -64.5t-59.5 -79.5q-4 -204 -63 -330q-20 -43 -37 -43q-20 0 -20 53q0 152 97 330q0 8 1.5 19.5t1.5 14.5
q0 77 -35.5 120t-87.5 43q-33 0 -63 -20q-26 -17 -64 -60z" />
    <glyph glyph-name="delta" unicode="&#x3b4;" 
d="M353 197q3 -68 31.5 -107.5t72.5 -39.5q108 0 153 160q21 74 21 146q0 89 -31 128t-75 39q-41 0 -82 -36q-97 -106 -90 -290zM540 547q-59 49 -80 83q-17 27 -17 60q0 32 22 51t55 19q32 0 104 -33.5t96 -62.5q16 -20 16 -40q0 -14 -9 -20q-7 -10 -19 -10q-11 0 -21 10
q-7 0 -40 33q-33 27 -87 67q-35 20 -53 20q-40 0 -40 -37q0 -30 27.5 -61t95.5 -82q61 -46 86 -91.5t27 -118.5q3 -115 -68 -211t-168 -96q-81 0 -131 54q-53 56 -53 156q0 88 43 168q40 73 101 115q43 30 91 30q12 0 22 -3z" />
    <glyph glyph-name="epsilon" unicode="&#x3b5;" 
d="M673 130l10 -20q-104 -80 -193 -80q-67 0 -113.5 38.5t-46.5 91.5q0 111 143 150q-60 36 -76 60q-20 31 -20 64q0 48 40 86q37 35 103 35q82 0 160 -55l-13 -16q-66 36 -121 36q-49 0 -79 -30t-30 -72q0 -35 22.5 -60.5t57.5 -33.5q66 6 73 6q70 0 70 -23q0 -17 -23 -17
q-14 -6 -37 -6q-30 0 -87 13q-113 -32 -113 -120q0 -40 32 -70q35 -33 85 -33q71 0 156 56z" />
    <glyph glyph-name="zeta" unicode="&#x3b6;" 
d="M373 767l17 -17q-24 -24 -24 -58q0 -31 22 -53t45 -22q10 0 27 3q65 60 93 80q59 41 96 41q12 0 21 -4q7 -7 7 -14q0 -15 -34 -39q-20 -15 -60 -44q-56 -31 -116 -46q-59 -70 -117 -187q-37 -108 -37 -157q0 -81 97 -96l160 -24q61 -9 87 -40q31 -31 31 -65
q0 -41 -43.5 -74t-128.5 -33q-78 0 -123 29q-30 19 -30 40q0 30 27 30q8 0 47 -23q63 -37 116 -37q84 0 84 50q0 16 -15 31.5t-39 18.5l-166 20q-150 18 -150 153q0 55 46 159.5t127 204.5q-29 0 -50 6q-26 7 -46.5 31t-20.5 53q0 42 50 83z" />
    <glyph glyph-name="eta" unicode="&#x3b7;" 
d="M277 437l-20 17q77 97 143 100q25 1 45 -18q24 -23 28 -62q69 77 146 77q51 0 87 -36t36 -93q0 -27 -9 -75l-83 -427h-87q67 195 100 347q26 117 26 155q0 44 -26 72.5t-65 28.5q-41 0 -75 -33q-20 -19 -41.5 -45t-21.5 -31l-83 -377h-74l47 150q19 62 41 155.5t22 117.5
q0 26 -13.5 40t-28.5 14q-16 0 -34 -14q-21 -13 -60 -63z" />
    <glyph glyph-name="theta" unicode="&#x3b8;" 
d="M640 394l-293 -4q-28 -116 -28 -194q0 -146 98 -146q148 0 223 344zM357 417l290 3q14 90 14 155q0 162 -84 162q-81 0 -150 -123q-50 -89 -70 -197zM577 760q71 0 112 -58t41 -162q0 -121 -53 -253q-54 -135 -111 -195q-64 -68 -153 -68q-68 0 -108 50q-45 58 -45 173
q0 119 60 273q45 116 117 180q67 60 140 60z" />
    <glyph glyph-name="iota" unicode="&#x3b9;" 
d="M680 207l20 -13q-146 -165 -253 -167q-55 -1 -86 27.5t-31 79.5q0 23 10 63q23 85 47 170q28 102 40 170h93q-55 -124 -103 -263q-22 -65 -34 -134q0 -30 22.5 -48t57.5 -18q103 0 217 133z" />
    <glyph glyph-name="kappa" unicode="&#x3ba;" 
d="M333 37h-66l106 493h60l-36 -200q71 23 153 114q59 66 67 73q29 27 63 27q22 0 36.5 -13.5t14.5 -28.5q0 -14 -10 -24.5t-21 -10.5q-13 0 -50 20q-16 0 -30 -10q-23 -16 -57 -53q-78 -84 -156 -114q101 -11 146 -40q36 -23 47 -66q0 -3 1.5 -46.5t1.5 -47.5
q11 -28 42 -28q20 0 35 18q31 23 63 80l20 -10q-21 -41 -40 -66q-60 -77 -120 -77q-25 0 -44 20.5t-19 49.5v83q0 52 -31 75q-34 25 -122 32z" />
    <glyph glyph-name="lambda" unicode="&#x3bb;" 
d="M283 37h-93q12 31 68 115q67 101 145 198q61 75 127 144q-4 144 -60 173q-10 7 -60 13q-63 8 -63 44q0 12 15 22.5t35 10.5q44 0 85.5 -30.5t54.5 -73.5t16 -126l7 -197q2 -49 8 -84q13 -75 45 -106q37 -36 97 -36q43 0 43 -34q0 -43 -60 -43q-61 0 -102.5 55.5
t-53.5 154.5q0 11 -2 78t-2 125q-117 -154 -146 -203q-74 -126 -104 -200z" />
    <glyph glyph-name="uni03BC" unicode="&#x3bc;" 
d="M270 -76h-73q10 53 33 110q19 45 60 146q0 128 27 227q17 62 40 105t40 43t17 -26q0 -90 -97 -325q0 -79 30.5 -114t70.5 -35q63 0 122 75q30 38 37 74q3 80 43 226q32 116 62 116q21 0 21 -30q0 -36 -20 -122q-27 -116 -90 -227q9 -97 74 -97q22 0 39 12q26 18 67 72
l17 -14q-22 -39 -63 -80q-34 -34 -78 -34q-33 0 -51.5 23.5t-24.5 84.5q-31 -44 -80 -77q-35 -24 -78 -24q-38 0 -68 21q-28 27 -47 80q-26 -89 -30 -210z" />
    <glyph glyph-name="nu" unicode="&#x3bd;" 
d="M360 27l-30 20q37 82 37 203q0 78 -10 117q-15 60 -60 100q-17 21 -24 43q0 37 37 37q34 0 60 -40q41 -64 41 -155q0 -41 -8 -105q-7 -57 -23 -133q89 30 177 126q45 49 67 98q31 66 66 212l20 -3q-12 -229 -123 -373q-37 -49 -84 -79q-50 -34 -143 -68z" />
    <glyph glyph-name="xi" unicode="&#x3be;" 
d="M430 117q153 -12 196 -33q37 -18 37 -70q0 -44 -45 -77q-49 -37 -125 -37q-48 0 -80.5 18.5t-32.5 41.5q0 20 20 20q10 0 37 -14q34 -17 40 -19q37 -7 53 -7q39 0 63 15.5t24 38.5q0 24 -32 34q-28 8 -105 12q-126 6 -176 40q-44 30 -44 94q0 118 173 193q-90 22 -90 113
q0 76 110 134q-50 35 -50 66q0 36 26.5 57.5t63.5 21.5q30 0 57 -15q15 -8 15 -20q0 -5 -5 -10q-7 -10 -13 -7q-18 4 -67 13q-20 0 -33.5 -12t-13.5 -28q0 -34 57 -50q67 20 120 20q82 0 90 -36q2 -9 -11 -14l-32 -10q-20 -6 -77 -6q-45 0 -97 13q-48 -15 -80.5 -49
t-32.5 -71q0 -75 100 -93q102 26 153 26q74 0 74 -33q0 -13 -40.5 -23t-93.5 -10q-33 0 -90 10q-46 -6 -104 -58q-62 -55 -62 -102q0 -68 123 -77z" />
    <glyph glyph-name="omicron" unicode="&#x3bf;" 
d="M353 230q5 -97 33 -136.5t87 -39.5q62 0 106 57q43 54 58 146q7 44 7 84q0 88 -32 140.5t-85 52.5q-75 0 -122 -88q-44 -82 -52 -216zM717 330q0 -39 -20 -116q-33 -86 -91 -135t-129 -49q-83 0 -135 60q-55 63 -55 170q0 118 78 209q76 88 168 88q76 0 128 -59
q56 -64 56 -168z" />
    <glyph glyph-name="pi" unicode="&#x3c0;" 
d="M223 417l-16 13q50 79 110 97q30 5 120 10q83 1 186 1h30q85 0 94 2q25 5 36 11q15 8 50 36l14 -10q-51 -85 -117 -97q-17 -3 -83 -3q-44 -140 -44 -307q0 -73 64 -73q35 0 74 33q15 12 59 60l17 -10q-91 -150 -177 -150q-80 0 -80 127q0 105 50 317h-170l-27 -144
q-19 -101 -59 -183t-87 -117l-44 40q115 111 160 267q17 58 27 137h-27q-59 0 -88 -8q-41 -12 -72 -49z" />
    <glyph glyph-name="rho" unicode="&#x3c1;" 
d="M403 344q-16 -62 -16 -127q0 -78 35 -121q31 -39 78 -39q71 0 122 85t51 208q0 170 -103 170q-121 0 -167 -176zM340 -86h-77q3 150 20 243q14 77 47 160q91 227 240 227q78 0 125.5 -55.5t47.5 -148.5q0 -80 -38 -160q-40 -84 -98 -113q-49 -33 -104 -33q-61 0 -94 25
q-44 33 -72 125q-9 -31 -9 -96q0 -78 12 -174z" />
    <glyph glyph-name="sigma" unicode="&#x3c3;" 
d="M363 427q-19 -32 -32 -88q-15 -60 -15 -117q0 -90 37 -132q31 -36 81 -36q69 0 113 63q67 95 67 225q0 90 -40 135q-36 40 -77 40q-81 0 -134 -90zM611 477q68 -66 68 -175q0 -114 -72 -192q-75 -81 -172 -81q-80 0 -133 59.5t-53 161.5q0 121 74 204q66 73 167 86
l167 21q25 2 66 7q14 6 24 20l10 -7q-13 -86 -87 -86q-5 0 -26.5 -10t-32.5 -8z" />
    <glyph glyph-name="tau" unicode="&#x3c4;" 
d="M323 424l-13 10q29 55 47 73q15 15 46 23q18 5 97 7h153q53 0 87 40l17 -13q-28 -49 -58 -66q-36 -21 -109 -21h-63q-70 -240 -70 -320q0 -67 63 -80q55 0 117 97l20 -14q-67 -133 -164 -133q-31 0 -53 22q-27 27 -27 75q0 32 20 106l67 247h-40q-47 0 -73.5 -10.5
t-63.5 -42.5z" />
    <glyph glyph-name="upsilon" unicode="&#x3c5;" 
d="M620 540l13 10q70 -83 70 -180q0 -109 -87 -221q-92 -119 -199 -119q-50 0 -87 37q-43 41 -43 107q0 8 11.5 98.5t11.5 121.5q0 5 -7 66q-1 10 -1 19q0 31 12 48t29 17q44 0 44 -70q0 -22 -17 -97l-40 -177q-1 -16 -7 -50q0 -93 97 -93q78 0 140 80q80 103 80 267
q0 37 -9 79q-10 50 -11 57z" />
    <glyph glyph-name="phi" unicode="&#x3c6;" 
d="M503 520q-93 -5 -158 -77.5t-68 -178.5q-2 -79 45 -135.5t115 -61.5q23 102 43 237q14 90 23 216zM483 64q122 14 185 91q55 66 55 165q0 176 -183 204q-8 -50 -23 -140q-5 -40 -17 -124q-10 -73 -17 -196zM400 -76l30 120q-220 37 -220 226q0 107 80 184.5t213 92.5
l10 203h87q-29 -86 -53 -203q139 -17 204 -111q42 -61 42 -119q0 -78 -47 -147q-79 -113 -263 -126v-120h-83z" />
    <glyph glyph-name="chi" unicode="&#x3c7;" 
d="M330 -76h-80l223 346l-20 114q-10 59 -28 83.5t-52 29.5q-55 0 -100 -90l-20 13q43 92 74 116q17 14 56 14q31 0 55 -25q27 -28 35 -81l20 -137l134 230h80l-204 -317q25 -168 50 -210q24 -33 60 -33q57 0 114 103l16 -10q-75 -156 -153 -156q-72 0 -87 116l-20 150z" />
    <glyph glyph-name="psi" unicode="&#x3c8;" 
d="M180 414l-17 13q82 117 150 117q74 0 74 -87q0 -27 -10 -60l-44 -150q-13 -30 -13 -70q0 -100 120 -100h20l23 150q13 80 34 243l26 277h70l-66 -297l-17 -93q-6 -53 -17 -127l-16 -150q135 23 220 164q28 67 28 110q0 33 -13.5 57t-64.5 83q-11 9 -11 22q0 28 34 28
q30 0 57 -49q30 -54 30 -125q0 -108 -76 -198q-80 -94 -204 -118l-7 -117h-63l23 113q-91 0 -142 39.5t-51 107.5q0 13 6 47l37 120q8 38 20 90q1 5 1 9q0 31 -44 31q-37 0 -97 -80z" />
    <glyph glyph-name="omega" unicode="&#x3c9;" 
d="M483 147q-44 -58 -73 -82q-47 -38 -100 -38q-74 0 -115 72q-35 60 -35 139q0 102 67 189q61 79 160 127l13 -14q-87 -62 -125 -129q-42 -73 -42 -174q0 -65 24 -110q30 -57 90 -57q35 0 75 43q31 33 51 74q0 10 -1.5 31t-1.5 32q0 119 40 174q12 6 18 6q13 0 12 -23
q6 -13 6 -46q0 -90 -46 -187q12 -54 25 -77q22 -37 65 -37q78 0 127 102q40 84 40 172q0 65 -25 109q-18 30 -75 87l6 14q71 -38 115 -93q52 -65 52 -137q0 -100 -61 -188q-67 -99 -163 -99q-98 0 -123 120z" />
    <glyph glyph-name="uni0401" unicode="&#x401;" 
d="M341 883q21 0 36 -12.5t15 -33.5t-15 -35.5t-36 -14.5q-19 0 -34 15.5t-15 34.5q0 18 15 32t34 14zM609 883q48 0 48 -49q0 -21 -13.5 -34t-34.5 -13q-20 0 -34.5 14t-14.5 33q0 20 14.5 34.5t34.5 14.5zM180 755h543l66 -148l-23 -8q-66 85 -152 109q-56 16 -192 16
q-45 0 -66 -12q-25 -16 -25 -54v-212h100q126 0 149 17q29 21 29 89h32v-238h-32q-10 61 -31 77.5t-151 16.5h-96v-254q0 -41 31 -56q22 -11 72 -11q186 0 244 28q52 25 127 121l23 -16l-74 -164h-574v31q101 0 101 78v493q0 43 -31 57q-20 9 -70 9v31z" />
    <glyph glyph-name="uni0410" unicode="&#x410;" 
d="M610 62v22q46 1 63 5q37 10 37 41q0 25 -63 175h-331l-36 -80q-25 -58 -25 -84q0 -51 84 -54v-25h-224v25q88 9 124 99q54 131 108 263q95 231 95 245q0 17 -22 19q7 -1 -35 -1v17q40 1 63 14q4 2 51 36l259 -613q22 -51 44 -66t76 -16v-22h-268zM477 715l-153 -386h316z
" />
    <glyph glyph-name="uni0411" unicode="&#x411;" 
d="M180 755h547l70 -160l-31 -8q-65 91 -83 106q-40 31 -123 31h-128q-104 0 -104 -63v-222h131q144 0 234 -36q120 -48 120 -156t-128 -157q-89 -34 -216 -34h-289v31q66 0 78 5q27 12 27 66v503q0 46 -30 57q-14 6 -75 6v31zM760 244q0 164 -331 164h-101v-250
q0 -71 94 -71q137 0 209 20q129 36 129 137z" />
    <glyph glyph-name="uni0412" unicode="&#x412;" 
d="M180 755h328q99 0 167 -31q91 -41 91 -129q0 -65 -56 -113q-47 -42 -112 -55q85 -17 140 -61q67 -52 67 -130q0 -102 -118 -148q-82 -32 -203 -32h-308v31q58 0 73 5q32 12 32 58v500q0 53 -25 66q-15 8 -76 8v31zM430 87q115 0 195 24q123 37 123 125q0 81 -84 129
q-70 40 -160 41l-170 2v-250q0 -42 26 -58q21 -13 70 -13zM334 439h169q68 0 133 39q73 44 73 105q0 141 -252 141q-63 0 -85 -9q-38 -15 -38 -65v-211z" />
    <glyph glyph-name="uni0413" unicode="&#x413;" 
d="M199 755h543l71 -160l-32 -8q-52 76 -105 106q-56 31 -145 31h-82q-99 0 -99 -63v-503q0 -54 31 -66q13 -5 82 -5v-31h-264v31q64 0 77 6q25 11 25 65v503q0 50 -28 60q-10 3 -74 3v31z" />
    <glyph glyph-name="uni0414" unicode="&#x414;" 
d="M500 724q-48 0 -73 -22q-20 -18 -30 -110q-20 -190 -54.5 -309.5t-72.5 -195.5h306q103 0 103 74v497q0 42 -28 56q-19 10 -64 10h-87zM364 56q-81 0 -133 -25t-98 -88l-24 8l51 136q81 0 115 88q92 235 92 459q0 55 -29 74q-23 16 -80 16v31h570v-31q-57 0 -73 -6
q-32 -13 -32 -60v-497q0 -57 27 -69q12 -5 82 -5l23 -136l-23 -4q-34 77 -83 97q-31 12 -131 12h-254z" />
    <glyph glyph-name="uni0415" unicode="&#x415;" 
d="M180 755h543l66 -148l-23 -8q-66 85 -152 109q-56 16 -192 16q-94 0 -94 -66v-212h103q126 0 149 17q29 21 29 89h32v-238h-32q-10 61 -31 77.5t-151 16.5h-99v-254q0 -41 33 -56q23 -11 73 -11q186 0 244 28q52 25 127 121l23 -16l-74 -164h-574v31q101 0 101 78v493
q0 43 -31 57q-20 9 -70 9v31z" />
    <glyph glyph-name="uni0416" unicode="&#x416;" 
d="M371 755h253v-31q-59 0 -75 -10q-23 -15 -23 -68v-200q94 11 153 95q40 74 80 149q45 78 106 78q53 0 53 -38q0 -32 -43 -32q-25 0 -51 12q-13 6 -39 -43q-28 -53 -57 -107q-39 -67 -75 -91l193 -303q50 -79 131 -79v-31h-243v31q63 0 63 28q0 34 -20 67l-160 267
q-56 -32 -91 -35v-249q0 -55 22 -69q16 -9 76 -9v-31h-253v31q58 0 77 11q29 15 29 67v249q-48 3 -103 29l-165 -267q-15 -24 -15 -43q0 -46 72 -46v-31h-243v31q75 0 123 76l192 304q-41 34 -93 148q-43 95 -73 95q-9 0 -26 -6t-25 -6q-43 0 -43 32q0 41 59 41
q62 0 104 -79q39 -75 77 -151q59 -85 159 -95v200q0 55 -27 69q-17 9 -79 9v31z" />
    <glyph glyph-name="uni0417" unicode="&#x417;" 
d="M484 771q92 0 164 -41q86 -49 86 -135q0 -117 -156 -152q180 -60 180 -192q0 -104 -101 -162q-84 -49 -196 -49q-119 0 -227 67v137h32q0 -77 64 -126q60 -46 139 -46q92 0 161 47q76 53 76 140q0 92 -89 135q-67 33 -172 33h-78v31h78q105 0 156 20q81 31 81 117
q0 70 -69 111q-59 34 -136 34q-139 0 -180 -141h-31v121q117 51 218 51z" />
    <glyph glyph-name="uni0418" unicode="&#x418;" 
d="M129 755h249v-31q-60 0 -76 -10q-25 -14 -25 -68v-410l446 398v12q0 54 -26 69q-17 9 -79 9v31h249v-31q-59 0 -75 -10q-22 -14 -22 -68v-481q0 -56 22 -69q14 -9 75 -9v-31h-249v31q57 0 77 11q28 16 28 67v426l-446 -398v-28q0 -56 24 -69q15 -9 77 -9v-31h-249v31
q56 0 75 11q26 16 26 67v481q0 54 -24 68q-16 10 -77 10v31z" />
    <glyph glyph-name="uni0419" unicode="&#x419;" 
d="M129 755h249v-31q-60 0 -76 -10q-25 -14 -25 -68v-410l446 398v12q0 54 -26 69q-17 9 -79 9v31h249v-31q-59 0 -75 -10q-22 -14 -22 -68v-481q0 -56 22 -69q14 -9 75 -9v-31h-249v31q57 0 77 11q28 16 28 67v426l-446 -398v-28q0 -56 24 -69q15 -9 77 -9v-31h-249v31
q56 0 75 11q26 16 26 67v481q0 54 -24 68q-16 10 -77 10v31zM395 888q43 0 43 -39q0 -5 -6 -17t-6 -18q0 -35 74 -35q70 0 70 35q0 5 -5.5 17t-5.5 18q0 39 43 39q19 0 32.5 -14t13.5 -33q0 -46 -55 -67q-39 -15 -93 -15q-55 0 -95 15q-57 21 -57 67q0 20 14 33.5t33 13.5z
" />
    <glyph glyph-name="uni041A" unicode="&#x41a;" 
d="M203 755h253v-31q-61 0 -77 -9q-25 -15 -25 -69v-201q86 0 98 1q64 6 89 31q33 33 69 115q44 98 60 122q38 57 88 57q21 0 39.5 -12t18.5 -31q0 -17 -11.5 -32t-27.5 -15q-7 0 -21 4t-22 4q-19 0 -35 -12q-9 -7 -35 -64q-32 -71 -52 -104q-36 -59 -74 -75l159 -256
q57 -91 170 -91v-31h-265v31q31 0 37 2q21 5 21 26q0 25 -24 66l-136 234q-24 -6 -73 -6q-36 -1 -73 -1v-243q0 -56 24 -70q15 -8 78 -8v-31h-253v31q55 0 75 12q27 16 27 66v481q0 55 -24 69q-17 9 -78 9v31z" />
    <glyph glyph-name="uni041B" unicode="&#x41b;" 
d="M514 724q-44 0 -61 -12q-20 -14 -36 -128q-15 -117 -31 -234q-22 -146 -56 -219q-42 -91 -106 -91q-42 0 -72 38q-27 34 -27 76q0 87 56 87q38 0 38 -40q0 -18 -22 -42t-22 -40q0 -18 17.5 -30.5t37.5 -12.5q29 0 54 33q37 48 76 273q35 204 35 299q0 32 -28 40
q-11 3 -54 3v31h539v-31q-60 0 -74 -6q-32 -12 -32 -60v-504q0 -48 32 -61q15 -6 74 -6v-31h-255v31q59 0 74 6q32 13 32 61v504q0 66 -105 66h-84z" />
    <glyph glyph-name="uni041C" unicode="&#x41c;" 
d="M168 755h150l189 -581l192 581h142v-31q-86 0 -86 -47q0 -26 8 -75l69 -420q9 -54 25 -75q21 -28 70 -28v-23h-232v23q40 0 59 9q27 14 27 50q0 11 -7 61l-67 474l-195 -594h-20l-199 594l-67 -456q-7 -48 -7 -63q0 -45 21 -61q18 -14 65 -14v-23h-250v23q113 0 132 120
l70 441q5 32 5 53q0 31 -94 31v31z" />
    <glyph glyph-name="uni041D" unicode="&#x41d;" 
d="M109 755h253v-31q-61 0 -77 -9q-25 -15 -25 -69v-215h472v215q0 55 -24 69q-17 9 -78 9v31h253v-31q-61 0 -77 -9q-25 -15 -25 -69v-481q0 -56 25 -69q15 -9 77 -9v-31h-253v31q56 0 75 11q27 16 27 67v235h-472v-235q0 -56 25 -69q15 -9 77 -9v-31h-253v31q56 0 75 11
q27 16 27 67v481q0 55 -24 69q-17 9 -78 9v31z" />
    <glyph glyph-name="uni041E" unicode="&#x41e;" 
d="M504 771q151 0 253 -107.5t102 -259.5q0 -150 -104 -257t-251 -107q-155 0 -261 105.5t-106 258.5q0 156 106 261.5t261 105.5zM504 72q138 0 222 100q78 94 78 232q0 140 -77 234q-84 102 -223 102q-144 0 -232 -99q-83 -94 -83 -237t84 -235q87 -97 231 -97z" />
    <glyph glyph-name="uni041F" unicode="&#x41f;" 
d="M125 755h750v-31q-59 0 -76 -10q-26 -14 -26 -68v-481q0 -56 25 -69q15 -9 77 -9v-31h-255v31q56 0 75 11q26 16 26 67v481q0 49 -48 67q-30 11 -92 11h-163q-148 0 -148 -78v-481q0 -56 24 -69q14 -9 77 -9v-31h-246v31q55 0 75 12q27 16 27 66v481q0 54 -25 68
q-16 10 -77 10v31z" />
    <glyph glyph-name="uni0420" unicode="&#x420;" 
d="M188 755h277q316 0 316 -191q0 -104 -117 -152q-86 -36 -207 -36h-122v-222q0 -53 31 -63q10 -4 79 -4v-31h-254v31q58 0 72 6q26 12 26 61v511q0 47 -29 60q-16 7 -72 7v23zM335 408h118q103 0 176 29q100 41 100 127q0 160 -292 160q-53 0 -71 -7q-31 -12 -31 -52v-257
z" />
    <glyph glyph-name="uni0421" unicode="&#x421;" 
d="M555 741q-138 0 -226 -112q-80 -103 -80 -241q0 -127 93.5 -220t223.5 -93q163 0 188 188h35v-160q-117 -63 -219 -63q-153 0 -260 96q-111 100 -111 252q0 170 105 278.5t273 108.5q74 0 200 -31v-157h-35q-8 76 -58.5 115t-128.5 39z" />
    <glyph glyph-name="uni0422" unicode="&#x422;" 
d="M219 755h590l66 -164l-27 -12q-114 145 -227 145q-82 0 -82 -70v-508q0 -45 35 -55q12 -4 74 -4v-31h-265v31q57 0 73 5q36 11 36 54v508q0 70 -82 70q-70 0 -132 -45q-39 -28 -102 -100l-24 16z" />
    <glyph glyph-name="uni0423" unicode="&#x423;" 
d="M148 755h236v-31q-82 0 -82 -31q0 -16 17 -53l177 -386l152 343q22 50 22 73q0 54 -88 54v31h266v-31q-70 0 -107 -35q-28 -25 -61 -99l-159 -352q-44 -97 -70 -131q-51 -67 -123 -67q-61 0 -103 33q-45 36 -45 96q0 75 54 75q30 0 30 -40q0 -12 -15.5 -37.5t-15.5 -36.5
q0 -29 34 -45q28 -13 61 -13q49 0 85 43q18 22 51 87l-192 427q-26 58 -43 73q-25 22 -81 22v31z" />
    <glyph glyph-name="uni0424" unicode="&#x424;" 
d="M372 755h253v-31q-57 0 -72 -7q-27 -13 -30 -60q123 -6 210 -58q107 -65 107 -176q0 -106 -109 -174q-91 -56 -208 -63q0 -69 16 -84t86 -15v-31h-253v31q65 0 83.5 17.5t18.5 81.5q-120 7 -206 62q-104 65 -104 175q0 106 106 173q88 55 204 61q-2 47 -29 60
q-16 7 -73 7v31zM523 217q104 7 178 55q87 57 87 151q0 97 -86 151q-70 45 -179 51v-408zM474 625q-100 -7 -172 -55q-86 -57 -86 -147q0 -91 85 -149q73 -50 173 -57v408z" />
    <glyph glyph-name="uni0425" unicode="&#x425;" 
d="M156 755h267v-31q-46 0 -61 -3q-29 -5 -29 -25q0 -15 16 -39l156 -229q173 232 173 261q0 25 -29 32q-12 3 -49 3v31h255v-31q-69 0 -100 -19q-21 -13 -116 -148q-56 -81 -112 -161q46 -66 109 -149q89 -115 118 -132q48 -28 105 -28v-31h-279v31q71 -3 71 34
q0 23 -27 59l-135 184l-138 -191q-19 -26 -19 -45q0 -39 74 -41v-31h-265v31q104 10 170 97q53 70 158 209q15 -22 -187 269q-36 52 -126 62v31z" />
    <glyph glyph-name="uni0426" unicode="&#x426;" 
d="M105 755h250v-31q-61 0 -77 -9q-25 -15 -25 -69v-481q0 -54 36 -69q22 -9 90 -9h201q50 0 83 16q40 19 40 58v497q0 42 -14 56q-12 11 -43 11h-24q-18 -1 -29 -1v31h259v-31q-58 0 -74 -6q-32 -12 -32 -60v-497q0 -57 27 -68q13 -6 82 -6l24 -136l-24 -4q-32 77 -83 97
q-31 12 -131 12h-536v31q56 0 75 11q27 16 27 67v481q0 55 -24 69q-17 9 -78 9v31z" />
    <glyph glyph-name="uni0427" unicode="&#x427;" 
d="M591 755h253v-31q-60 0 -77 -9q-25 -15 -25 -69v-481q0 -55 24 -69q16 -9 78 -9v-31h-253v31q56 0 75 11q27 16 27 67v184q-125 -51 -259 -51q-98 0 -141 41.5t-43 138.5v152q0 63 -18 80q-15 14 -80 14v31h249v-31q-65 0 -82 -14q-20 -16 -20 -80v-152q0 -80 45 -112
q40 -28 129 -28q105 0 220 51v257q0 55 -24 69q-17 9 -78 9v31z" />
    <glyph glyph-name="uni0428" unicode="&#x428;" 
d="M64 755h252v-31q-60 0 -77 -10q-24 -14 -24 -68v-481q0 -57 42 -71q20 -7 96 -7q63 0 85 9q36 16 36 69v481q0 55 -24 69q-17 9 -78 9v31h253v-31q-61 0 -77 -9q-25 -15 -25 -69v-481q0 -57 45 -72q20 -6 97 -6q63 0 85 9q37 16 37 69v481q0 54 -25 68q-17 10 -77 10v31
h252v-31q-60 0 -77 -10q-24 -14 -24 -68v-481q0 -56 24 -69q14 -9 77 -9v-31h-873v31q56 0 75 11q26 16 26 67v481q0 54 -24 68q-17 10 -77 10v31z" />
    <glyph glyph-name="uni0429" unicode="&#x429;" 
d="M46 755h252v-31q-60 0 -76 -10q-25 -14 -25 -68v-481q0 -54 42 -69q24 -9 96 -9q64 0 85 9q36 15 36 69v481q0 55 -24 69q-17 9 -78 9v31h253v-31q-61 0 -77 -9q-25 -15 -25 -69v-481q0 -78 141 -77q123 1 123 73v497q0 53 -25 63q-7 3 -77 3v31h255v-31q-56 0 -71 -6
q-30 -13 -30 -60v-497q0 -57 27 -68q13 -6 82 -6l24 -136l-24 -4q-29 77 -60 95q-25 14 -111 14h-713v31q56 0 75 11q26 16 26 67v481q0 54 -24 68q-16 10 -77 10v31z" />
    <glyph glyph-name="uni042A" unicode="&#x42a;" 
d="M320 724q-73 0 -111 -28t-68 -97l-32 8l51 148h405v-31q-57 0 -70 -5q-28 -11 -28 -58v-203q200 0 269 -17q159 -40 159 -178q0 -207 -330 -207h-245v31q57 0 70 5q28 11 28 58v511q0 47 -28 58q-13 5 -70 5zM565 87q274 0 274 176q0 164 -285 164h-87v-277q0 -47 28 -58
q13 -5 70 -5z" />
    <glyph glyph-name="uni042B" unicode="&#x42b;" 
d="M82 755h248v-31q-57 0 -70 -5q-28 -11 -28 -58v-203q141 0 176 -3q111 -9 171 -46q77 -48 77 -146q0 -207 -308 -207h-266v31q57 0 70 5q28 11 28 58v511q0 47 -28 58q-13 5 -70 5v31zM348 87q250 0 250 176q0 164 -261 164h-105v-277q0 -46 37 -58q16 -5 79 -5zM648 755
h256v-31q-58 0 -75 -10q-23 -15 -23 -68v-481q0 -55 22 -69q16 -9 76 -9v-31h-250v31q56 0 74 11q26 15 26 67v481q0 55 -27 69q-17 9 -79 9v31z" />
    <glyph glyph-name="uni042C" unicode="&#x42c;" 
d="M230 755h244v-31q-55 0 -68 -6q-26 -11 -26 -57v-203q138 0 175 -3q110 -9 170 -46q76 -48 76 -146q0 -207 -309 -207h-262v31q57 0 70 5q28 11 28 58v511q0 47 -28 58q-13 5 -70 5v31zM492 87q256 0 256 176q0 164 -264 164h-104v-277q0 -45 35 -57q17 -6 77 -6z" />
    <glyph glyph-name="uni042D" unicode="&#x42d;" 
d="M430 771q155 0 255 -107.5t100 -263.5q0 -149 -106.5 -254.5t-256.5 -105.5q-120 0 -223 55v141h31q11 -75 63.5 -119.5t128.5 -44.5q134 0 223 100q85 95 85 228q0 17 -2 53q-111 -92 -153 -92q-35 0 -99.5 36.5t-100.5 36.5q-31 0 -90 -34l-15 16q16 21 57.5 39.5
t70.5 18.5q27 0 91.5 -35.5t92.5 -35.5q36 0 141 85q-17 113 -97 182.5t-196 69.5q-67 0 -114.5 -36.5t-65.5 -100.5h-31v117q126 51 211 51z" />
    <glyph glyph-name="uni042E" unicode="&#x42e;" 
d="M31 755h253v-31q-61 0 -77 -9q-25 -15 -25 -69v-192h114q14 137 102 224q93 93 239 93t242 -113q90 -107 90 -254q0 -144 -93 -252q-98 -112 -239 -112q-159 0 -254 112q-90 105 -90 262h-111v-249q0 -55 24 -69q16 -9 78 -9v-31h-253v31q55 0 75 12q27 16 27 66v481
q0 55 -24 69q-17 9 -78 9v31zM637 72q130 0 208 104q71 95 71 228q0 135 -70 230q-78 106 -209 106q-137 0 -218 -104q-74 -94 -74 -232t74 -230q81 -102 218 -102z" />
    <glyph glyph-name="uni042F" unicode="&#x42f;" 
d="M570 724q-272 0 -272 -152q0 -162 231 -162h156v255q0 43 -38 54q-17 5 -77 5zM685 375h-218q-51 -139 -90 -205q-59 -101 -150 -161l-12 20q70 51 128 161q47 91 73 195q-83 28 -105 44q-65 47 -65 143q0 183 324 183h262v-31q-55 0 -68 -5q-30 -10 -30 -54v-519
q0 -44 30 -54q13 -5 68 -5v-31h-241v31q54 0 66 5q28 10 28 54v229z" />
    <glyph glyph-name="uni0430" unicode="&#x430;" 
d="M520 568q79 0 109 -36q27 -32 27 -113v-281q0 -42 19 -51q9 -4 59 -4v-27h-120v57q-33 -30 -84.5 -51.5t-95.5 -21.5q-49 0 -83.5 33t-34.5 81q0 80 113 144q40 22 185 77v44q0 50 -20 82q-24 39 -74 39q-82 0 -106 -36q-9 -12 -16 -68q-4 -36 -39 -36q-31 0 -31 31
q0 56 65 98q60 39 127 39zM449 73q73 4 165 75v195q-49 -19 -98 -39q-68 -28 -105 -57q-49 -39 -49 -82q0 -38 18 -63q23 -31 69 -29z" />
    <glyph glyph-name="uni0431" unicode="&#x431;" 
d="M500 568q110 0 174 -69.5t64 -180.5q0 -119 -58 -194q-64 -84 -180 -84q-108 0 -174 85q-60 78 -60 189q0 250 140 360q55 43 148 43q105 0 173 60l11 -18q-11 -18 -58 -53q-34 -26 -164 -36q-172 -13 -207 -234q80 132 191 132zM500 71q95 0 149 82q47 70 47 165
q0 96 -44 154q-49 65 -146 65q-90 0 -146 -78q-49 -68 -49 -157q0 -91 46 -156q52 -75 143 -75z" />
    <glyph glyph-name="uni0432" unicode="&#x432;" 
d="M281 552h207q101 0 145 -14q82 -25 82 -103q0 -87 -106 -109q51 -10 83 -43q35 -36 35 -86q0 -141 -239 -141h-207v27q42 0 48 2q23 6 23 37v364q0 31 -23 37q-6 2 -48 2v27zM488 83q193 0 193 114q0 113 -180 113h-107v-188q0 -17 19 -28t40 -11h35zM394 337h105
q170 0 170 98q0 90 -181 90h-35q-21 0 -40 -11t-19 -28v-149z" />
    <glyph glyph-name="uni0433" unicode="&#x433;" 
d="M301 552h367l39 -129l-27 -8q-34 73 -79 94q-34 16 -124 16q-21 0 -39 -10q-21 -12 -21 -29v-364q0 -31 22 -37q7 -2 49 -2v-27h-187v27q44 0 50 2q24 6 24 37v364q0 31 -24 38q-6 1 -50 1v27z" />
    <glyph glyph-name="uni0434" unicode="&#x434;" 
d="M531 525q-42 0 -57 -14q-11 -11 -17 -52q-31 -230 -117 -380h183q87 0 87 40v386q0 20 -79 20zM398 52q-69 0 -102.5 -22.5t-61.5 -86.5l-27 4l51 132q71 0 125 167q43 135 43 228q0 38 -19 47q-9 4 -52 4v27h368v-27q-71 0 -71 -20v-386q0 -32 26 -38q6 -2 52 -2
l20 -132l-27 -4q-25 74 -61 94q-29 15 -113 15h-151z" />
    <glyph glyph-name="uni0435" unicode="&#x435;" 
d="M500 540q-63 0 -111 -59q-42 -52 -50 -116h312q0 70 -38 119q-42 56 -113 56zM336 337q-2 -26 -2 -39q0 -83 42 -149q50 -77 132 -77q72 0 160 70l12 -20q-92 -82 -172 -82q-105 0 -165 79q-54 71 -54 179q0 102 53 181q60 89 158 89q91 0 149 -71q54 -67 54 -160h-367z
" />
    <glyph glyph-name="uni0436" unicode="&#x436;" 
d="M404 552h183v-27q-40 0 -47 -2q-20 -7 -20 -37v-149q89 1 137 61q6 6 61 110q31 60 79 60q17 0 31.5 -12t11.5 -27q-3 -19 -20 -19q-4 0 -15.5 1.5t-19.5 1.5q-27 0 -62 -66q-42 -81 -64 -98l118 -189q39 -63 114 -77v-27h-219v27q24 0 43 9q24 12 24 33q0 22 -119 200
q-31 -13 -100 -21v-182q0 -30 25 -37q8 -2 51 -2v-27h-192v27q43 0 50 2q24 6 24 37v181q-63 5 -98 18q-31 -46 -63 -93q-60 -90 -60 -106q0 -22 26 -36q22 -12 45 -12v-27h-214v27q69 13 112 80l120 187q-64 50 -83 106q-21 60 -60 60h-10q-7 -1 -9 -1q-21 0 -28 23
q-5 15 10.5 27t32.5 12q40 0 70 -60q45 -91 62 -111q52 -60 147 -60v149q0 31 -24 37q-7 2 -50 2v27z" />
    <glyph glyph-name="uni0437" unicode="&#x437;" 
d="M484 568q72 0 124 -28q64 -34 64 -101q0 -79 -113 -117q129 -36 129 -145q0 -68 -68 -106q-55 -31 -128 -31q-81 0 -164 51v113h27q0 -60 38.5 -98t98.5 -38q58 0 101 26q49 30 49 83q0 86 -77 113q-44 16 -151 16v27q102 0 137 10q75 21 75 96q0 48 -47 77
q-41 24 -95 24q-93 0 -121 -117h-27v106q90 39 148 39z" />
    <glyph glyph-name="uni0438" unicode="&#x438;" 
d="M242 552h183v-27q-42 0 -48 -2q-22 -6 -22 -37v-284l298 259v25q0 31 -24 37q-7 2 -50 2v27h187v-27q-42 0 -49 -2q-22 -6 -22 -37v-364q0 -31 22 -37q7 -2 49 -2v-27h-187v27q43 0 50 2q24 6 24 37v304l-298 -259v-45q0 -31 22 -37q6 -2 48 -2v-27h-183v27q42 0 49 2
q22 6 22 37v364q0 31 -22 37q-7 2 -49 2v27z" />
    <glyph glyph-name="uni0439" unicode="&#x439;" 
d="M242 552h183v-27q-42 0 -48 -2q-22 -6 -22 -37v-284l301 259v25q0 31 -24 37q-7 2 -50 2v27h184v-27q-42 0 -49 -2q-22 -6 -22 -37v-364q0 -31 22 -37q7 -2 49 -2v-27h-184v27q43 0 50 2q24 6 24 37v304l-301 -259v-45q0 -31 22 -37q6 -2 48 -2v-27h-183v27q42 0 49 2
q22 6 22 37v364q0 31 -22 37q-7 2 -49 2v27zM607 759q33 0 33 -47q0 -55 -44 -86q-38 -27 -96 -27t-98 27q-46 31 -46 86q0 47 33 47q24 0 24 -31q0 -8 -12 -22.5t-12 -24.5q0 -25 44 -42q36 -13 67 -13t62 13q39 17 39 42q0 10 -11.5 24.5t-11.5 22.5q0 31 29 31z" />
    <glyph glyph-name="uni043A" unicode="&#x43a;" 
d="M242 552h196v-27q-43 0 -50 -2q-24 -6 -24 -37v-155q97 8 152 69q3 3 71 111q37 57 89 57q16 0 29.5 -11.5t13.5 -27.5q0 -43 -59 -43q-50 0 -68 -33q-37 -68 -83 -103l138 -193q42 -59 126 -74v-27h-238v27q67 0 67 42q0 29 -128 200q-62 -24 -89 -24q-12 0 -21 3v-182
q0 -31 24 -37q7 -2 50 -2v-27h-196v27q49 0 54 1q28 6 28 38v364q0 32 -28 38q-5 1 -54 1v27z" />
    <glyph glyph-name="uni043B" unicode="&#x43b;" 
d="M547 525q-38 0 -46 -53q-25 -165 -50 -249q-55 -183 -138 -183q-32 0 -55.5 28.5t-23.5 61.5q0 26 10 48q13 26 37 26q35 0 35 -31q0 -13 -13.5 -38t-13.5 -36q0 -31 24 -31q30 0 55 33q33 43 68 182q33 130 33 195q0 31 -30 42q-16 5 -56 5v27h359v-27q-39 0 -46 -2
q-20 -7 -20 -37v-364q0 -30 20 -37q7 -2 46 -2v-27h-180v27q43 0 50 2q24 6 24 37v364q0 29 -31 36q-12 3 -58 3z" />
    <glyph glyph-name="uni043C" unicode="&#x43c;" 
d="M212 552h149l137 -392l152 392h139v-27q-45 0 -58 -10t-13 -53v-308q0 -71 71 -71v-27h-186v27q73 0 73 71v371h-11l-168 -469h-15l-160 465v-371q0 -67 70 -67v-27h-172v27q74 0 74 67v312q0 45 -20 56q-12 7 -62 7v27z" />
    <glyph glyph-name="uni043D" unicode="&#x43d;" 
d="M242 552h180v-27q-42 0 -48 -2q-22 -6 -22 -37v-168h304v168q0 31 -24 37q-7 2 -50 2v27h184v-27q-42 0 -49 -2q-22 -6 -22 -37v-364q0 -31 22 -37q7 -2 49 -2v-27h-184v27q43 0 50 2q24 6 24 37v168h-304v-168q0 -31 22 -37q6 -2 48 -2v-27h-180v27q42 0 49 2
q22 6 22 37v364q0 31 -22 37q-7 2 -49 2v27z" />
    <glyph glyph-name="uni043E" unicode="&#x43e;" 
d="M500 568q112 0 179 -78q63 -74 63 -188q0 -102 -70 -180q-72 -82 -172 -82q-102 0 -167 82q-60 75 -60 180q0 107 59 183q64 83 168 83zM500 68q91 0 148 76q52 68 52 158q0 101 -46 164q-53 74 -154 74q-86 0 -139 -81q-45 -70 -45 -157q0 -80 49 -152q55 -82 135 -82z
" />
    <glyph glyph-name="uni043F" unicode="&#x43f;" 
d="M242 552h524v-27q-42 0 -49 -2q-22 -6 -22 -37v-364q0 -31 22 -37q7 -2 49 -2v-27h-181v27q43 0 50 2q24 6 24 37v364q0 39 -95 39h-125q-4 0 -15 1h-17q-55 0 -55 -40v-364q0 -31 22 -37q6 -2 48 -2v-27h-180v27q42 0 49 2q22 6 22 37v364q0 31 -22 37q-7 2 -49 2v27z
" />
    <glyph glyph-name="uni0440" unicode="&#x440;" 
d="M378 583v-70q27 23 71.5 39t81.5 16q101 0 153 -82q43 -69 43 -176q0 -104 -63 -175q-66 -75 -168 -75q-71 0 -118 30v-73q0 -35 21 -45q12 -6 50 -6v-27h-191v27q42 0 54 5q24 10 24 46v445q0 26 -28 33q-10 2 -50 2v28q35 0 65 17q7 5 55 41zM378 129q20 -15 56 -26.5
t62 -11.5q79 0 135 74q50 66 50 145q0 86 -37 149q-45 77 -128 77q-32 0 -72.5 -19.5t-65.5 -44.5v-343z" />
    <glyph glyph-name="uni0441" unicode="&#x441;" 
d="M535 541q-90 0 -146 -80q-50 -70 -50 -159q0 -83 51 -148q56 -71 141 -71q77 0 164 102l16 -8q-83 -137 -207 -137q-91 0 -151 82q-56 74 -56 168q0 113 66 193q70 85 180 85q53 0 95 -26q50 -30 50 -80q0 -43 -36 -43q-43 0 -43 39q0 5 2 14t2 14q0 28 -26 43
q-21 12 -52 12z" />
    <glyph glyph-name="uni0442" unicode="&#x442;" 
d="M680 552l43 -129l-20 -4q-62 106 -125 106q-24 0 -39.5 -14.5t-15.5 -36.5v-352q0 -31 22 -37q6 -2 48 -2v-27h-190v27q46 0 52 2q26 6 26 37v352q0 23 -17 37t-42 14q-64 0 -129 -106l-20 4l47 129h360z" />
    <glyph glyph-name="uni0443" unicode="&#x443;" 
d="M230 552h211v-27q-67 0 -67 -39q0 -21 17 -64l120 -305l112 312q16 45 16 57q0 39 -71 39l6 27h192v-27q-77 0 -110 -90l-143 -392q-44 -120 -142 -120q-78 0 -78 50q0 12 16.5 20.5t32.5 8.5q21 0 44 -11.5t36 -11.5q21 0 41 36q4 6 25 54l-148 370q-34 86 -110 86v27z
" />
    <glyph glyph-name="uni0444" unicode="&#x444;" 
d="M525 771v-234q40 31 84 31q94 0 151 -87q49 -77 49 -175q0 -94 -44 -172q-53 -94 -140 -94q-60 0 -100 37v-72q0 -30 24 -38q12 -5 49 -5v-23h-203v23q44 0 57 4q31 8 31 39v76q-41 -41 -116 -41q-89 0 -140 93q-43 77 -43 173q0 100 49 175q56 87 150 87q57 0 100 -34
v116q0 30 -33 39q-16 4 -59 4v23q87 20 134 55zM525 108q38 -40 100 -40q66 0 106 93q32 74 32 145q0 77 -36 147q-45 87 -118 87q-46 0 -84 -31v-401zM367 68q77 0 116 44v393q-38 35 -100 35q-73 0 -117 -87q-37 -70 -37 -147q0 -73 31 -145q40 -93 107 -93z" />
    <glyph glyph-name="uni0445" unicode="&#x445;" 
d="M250 552h206v-27q-29 0 -37 -1q-22 -5 -22 -23q0 -20 45 -86l56 -78q100 138 100 164q0 18 -22 23q-8 1 -37 1v27h195v-27q-84 0 -140 -87l-80 -125l102 -143q62 -87 136 -87v-27h-235v27q75 0 75 32q0 20 -48 90q-29 42 -58 83q-30 -41 -60 -81q-51 -72 -51 -92
q0 -32 63 -32v-27h-204v27q69 0 130 84l106 146l-108 151q-44 61 -112 61v27z" />
    <glyph glyph-name="uni0446" unicode="&#x446;" 
d="M242 552h184v-23q-42 0 -50 -3q-20 -7 -20 -40v-364q0 -43 62 -43h145q38 0 52 4q31 9 31 39v364q0 33 -22 41q-8 2 -52 2v23h186v-23q-40 0 -48 -3q-19 -7 -19 -40v-364q0 -33 21 -40q8 -3 50 -3l19 -140h-27q-14 71 -42.5 94t-100.5 23h-369v23q44 0 52 2q22 8 22 41
v364q0 33 -22 41q-8 2 -52 2v23z" />
    <glyph glyph-name="uni0447" unicode="&#x447;" 
d="M562 552h184v-27q-42 0 -48 -2q-22 -6 -22 -37v-364q0 -31 22 -37q6 -2 48 -2v-27h-184v27q44 0 50 2q24 6 24 37v178q-82 -33 -175 -33q-88 0 -119 43q-21 29 -21 93q0 5 1 16v15q0 45 -11 64q-15 27 -57 27v27h186v-27q-74 0 -74 -61v-56q0 -73 32 -96q23 -18 86 -18
q83 0 152 32v160q0 31 -24 38q-6 1 -50 1v27z" />
    <glyph glyph-name="uni0448" unicode="&#x448;" 
d="M102 552h184v-27q-42 0 -49 -2q-22 -6 -22 -37v-364q0 -39 82 -39h113q71 0 71 39v364q0 31 -24 37q-7 2 -50 2v27h180v-27q-40 0 -47 -2q-20 -7 -20 -37v-364q0 -39 70 -39h111q66 0 66 39v364q0 31 -22 37q-6 2 -48 2v27h183v-27q-42 0 -49 -2q-22 -6 -22 -37v-364
q0 -30 30 -37q8 -2 56 -2v-27h-793v27q43 0 50 2q24 6 24 37v364q0 31 -24 37q-7 2 -50 2v27z" />
    <glyph glyph-name="uni0449" unicode="&#x449;" 
d="M108 552h184v-27q-42 0 -49 -2q-22 -6 -22 -37v-364q0 -39 82 -39h113q59 0 59 39v364q0 31 -24 37q-7 2 -50 2v27h180v-27q-40 0 -47 -2q-20 -7 -20 -37v-364q0 -39 76 -39h118q56 0 56 39v364q0 33 -20 40q-8 3 -50 3v23h180v-23q-43 0 -50 -2q-21 -7 -21 -41v-364
q0 -31 22 -37q7 -2 49 -2l19 -144h-27q-15 79 -26 93q-18 24 -83 24h-649v27q43 0 50 2q24 6 24 37v364q0 31 -24 37q-7 2 -50 2v27z" />
    <glyph glyph-name="uni044A" unicode="&#x44a;" 
d="M352 525q-61 0 -122 -106l-27 4l39 129h271v-27q-41 0 -48 -2q-22 -6 -22 -37v-145q155 0 211 -13q131 -29 131 -131q0 -141 -242 -141h-207v27q41 0 48 2q22 6 22 37v364q0 29 -14 36q-7 3 -40 3zM740 197q0 117 -202 117h-95v-192q0 -17 23 -28q20 -11 42 -11
q99 -1 149 15q83 25 83 99z" />
    <glyph glyph-name="uni044B" unicode="&#x44b;" 
d="M186 552h183v-27q-41 0 -48 -2q-22 -6 -22 -37v-145q153 0 208 -13q128 -29 128 -131q0 -141 -242 -141h-207v27q41 0 48 2q22 6 22 37v364q0 31 -22 37q-7 2 -48 2v27zM393 83q75 0 126 21q71 30 71 93q0 117 -202 117h-89v-192q0 -17 19 -28t40 -11h35zM631 552h184
v-27q-42 0 -48 -2q-22 -6 -22 -37v-364q0 -31 22 -37q6 -2 48 -2v-27h-184v27q43 0 50 2q24 6 24 37v364q0 31 -24 37q-7 2 -50 2v27z" />
    <glyph glyph-name="uni044C" unicode="&#x44c;" 
d="M266 552h181v-27q-42 0 -49 -2q-22 -6 -22 -37v-145q154 0 210 -13q129 -29 129 -131q0 -141 -238 -141h-211v27q44 0 50 2q24 6 24 37v364q0 31 -24 38q-6 1 -50 1v27zM477 83q75 0 126 21q69 30 69 93q0 66 -72 96q-51 21 -130 21h-94v-192q0 -17 22 -28t43 -11h36z
" />
    <glyph glyph-name="uni044D" unicode="&#x44d;" 
d="M461 568q111 0 180 -81q66 -76 66 -189q0 -98 -64 -175q-67 -83 -163 -83q-107 0 -191 94l27 16q74 -78 145 -78q92 0 149 71q52 64 52 155q0 13 -2 39q-21 -19 -57 -35q-40 -18 -66 -18q-17 0 -52.5 25t-52.5 25q-7 0 -14 -3q-25 -11 -70 -56l-12 19q51 69 102 69
q21 0 57 -23.5t56 -23.5t56 20q31 17 49 33q-11 71 -66 121t-129 50q-51 0 -83.5 -36.5t-37.5 -88.5h-27v118q98 35 148 35z" />
    <glyph glyph-name="uni044E" unicode="&#x44e;" 
d="M141 552h187v-27q-42 0 -48 -2q-23 -6 -23 -37v-164h154q3 98 59 168q61 78 155 78q108 0 170 -82q57 -74 57 -184q0 -98 -63 -177q-68 -85 -164 -85q-97 0 -158 81q-55 73 -57 173h-153v-172q0 -31 23 -37q6 -2 48 -2v-27h-187v27q44 0 50 2q24 6 24 37v364q0 31 -24 38
q-6 1 -50 1v27zM625 68q85 0 137 79q44 68 44 155q0 97 -39 160q-47 78 -142 78q-82 0 -131 -84q-41 -71 -41 -154q0 -78 44 -150q51 -84 128 -84z" />
    <glyph glyph-name="uni044F" unicode="&#x44f;" 
d="M535 525q-80 0 -120 -14q-64 -22 -64 -85q0 -100 176 -100h112v160q0 17 -22.5 28t-44.5 11h-37zM639 298q-139 0 -149 1l-107 -243h-107v27q44 0 64 11q25 13 43 52l74 158q-50 2 -99 38t-49 81q0 84 77 112q46 17 149 17h211v-27q-42 0 -48 -2q-22 -6 -22 -37v-364
q0 -31 22 -37q6 -2 48 -2v-27h-181v27q44 0 50 2q24 6 24 37v176z" />
    <glyph glyph-name="uni0451" unicode="&#x451;" 
d="M374 715q20 0 34 -13t14 -33q0 -21 -14 -35.5t-34 -14.5t-34.5 15t-14.5 35t14 33t35 13zM632 715q47 0 47 -46q0 -22 -13 -36t-34 -14t-34 15t-13 35q0 19 14 32.5t33 13.5zM500 540q-63 0 -110 -59q-40 -52 -48 -116h309q0 70 -38 119q-42 56 -113 56zM339 337
q-2 -26 -2 -39q0 -84 41 -149q48 -77 130 -77q72 0 160 70l12 -20q-92 -82 -172 -82q-105 0 -165 79q-54 71 -54 179q0 102 53 181q60 89 158 89q91 0 149 -71q54 -67 54 -160h-364z" />
    <glyph glyph-name="uni2015" unicode="&#x2015;" 
d="M13 416v49h966v-49h-966z" />
    <glyph glyph-name="quoteleft" unicode="&#x2018;" 
d="M813 869l11 -16q-62 -62 -62 -94q0 -9 17 -17q24 -10 32 -17q17 -15 17 -44q0 -22 -16 -38.5t-39 -16.5q-32 0 -51 21.5t-19 53.5q0 97 110 168z" />
    <glyph glyph-name="quoteright" unicode="&#x2019;" 
d="M227 876q31 0 52 -28q18 -26 18 -58q0 -87 -117 -160l-8 12q70 67 70 98q0 11 -19 19q-29 12 -36 17q-19 15 -19 42q0 26 16.5 42t42.5 16z" />
    <glyph glyph-name="quotedblleft" unicode="&#x201c;" 
d="M906 869l12 -16q-63 -60 -63 -94q0 -10 17 -17q25 -11 33 -17q17 -15 17 -44q0 -22 -16 -38.5t-39 -16.5q-32 0 -51 21.5t-19 53.5q0 97 109 168zM680 869l11 -16q-62 -62 -62 -94q0 -10 17 -17q24 -11 32 -17q17 -15 17 -44q0 -22 -16 -38.5t-38 -16.5q-32 0 -51.5 21
t-19.5 54q0 97 110 168z" />
    <glyph glyph-name="quotedblright" unicode="&#x201d;" 
d="M137 876q29 0 49 -29q17 -26 17 -57q0 -87 -113 -160l-12 16q70 63 70 94q0 11 -18 19q-27 12 -34 17q-18 15 -18 42q0 26 16.5 42t42.5 16zM367 876q31 0 51 -27t20 -59q0 -87 -114 -160l-11 16q70 63 70 94q0 11 -19 19q-29 12 -36 17q-19 15 -19 42q0 58 58 58z" />
    <glyph glyph-name="dagger" unicode="&#x2020;" 
d="M355 611q14 0 61.5 -23.5t67.5 -26.5q-2 28 -26 70t-24 66q0 25 16.5 41.5t41.5 16.5t42 -16.5t17 -41.5q0 -14 -22.5 -62.5t-24.5 -73.5q23 2 58 24t55 22q25 0 42 -15t17 -40q0 -24 -17.5 -43t-41.5 -19q-12 0 -50 24q-42 25 -63 29q1 -46 18.5 -72.5t59.5 -47.5
q-63 -92 -63 -290v-55q1 -36 1 -53h-51q0 144 -6 204q-13 120 -57 194q77 39 78 121q-26 -3 -70.5 -26.5t-58.5 -23.5q-21 0 -35.5 18.5t-14.5 39.5q0 22 14.5 40.5t35.5 18.5z" />
    <glyph glyph-name="daggerdbl" unicode="&#x2021;" 
d="M355 661q15 0 64 -23t68 -26q-3 6 -30 48q-19 28 -19 52q0 25 16.5 42t41.5 17q23 0 41 -18t18 -41t-20 -52q-22 -34 -26 -48q21 3 55 25q31 21 49 21q25 0 42 -15t17 -40q0 -24 -17.5 -43.5t-41.5 -19.5q-11 0 -48 25t-57 29q4 -56 78 -81q-44 -18 -59 -41.5t-15 -71.5
q0 -63 62 -110q-64 -29 -69 -73q22 3 57 27q32 23 51 23q59 0 59 -59q0 -23 -18 -40.5t-41 -17.5q-13 0 -49 22q-40 24 -59 27q4 -13 27 -51q19 -31 19 -57q0 -21 -19 -36t-40 -15t-39.5 15t-18.5 36q0 25 22 57q27 38 31 52q-30 -1 -74 -25.5t-58 -24.5q-21 0 -35.5 18.5
t-14.5 39.5q0 23 14 41t36 18q15 0 63.5 -24.5t69.5 -26.5q-6 44 -74 74q41 27 55.5 55t14.5 77q0 61 -74 91q74 26 78 82q-25 -3 -72.5 -27t-60.5 -24q-20 0 -35 19t-15 40q0 22 14 40t36 18z" />
    <glyph glyph-name="twodotenleader" unicode="&#x2025;" 
d="M262 466q26 0 44 -18t18 -44t-18.5 -44.5t-43.5 -18.5t-44 19t-19 44t18.5 43.5t44.5 18.5zM742 466q26 0 44.5 -18.5t18.5 -43.5t-19 -44t-44 -19t-43.5 18.5t-18.5 44.5t18 44t44 18z" />
    <glyph glyph-name="ellipsis" unicode="&#x2026;" 
d="M492 466q26 0 44.5 -18.5t18.5 -43.5t-19 -44t-44 -19t-43.5 18.5t-18.5 44.5t18 44t44 18zM176 466q26 0 44 -18t18 -44t-18.5 -44.5t-43.5 -18.5t-44 19t-19 44t18.5 43.5t44.5 18.5zM824 466q26 0 44.5 -18.5t18.5 -43.5t-19 -44t-44 -19t-43.5 18.5t-18.5 44.5t18 44
t44 18z" />
    <glyph glyph-name="perthousand" unicode="&#x2030;" 
d="M835 9q-70 0 -108.5 39t-38.5 107q0 64 42.5 106t104.5 42q63 0 105.5 -41.5t42.5 -106.5q0 -68 -39 -107t-109 -39zM165 564q-69 0 -108.5 39.5t-39.5 107.5q0 64 43 104.5t105 40.5q63 0 105.5 -40.5t42.5 -104.5q0 -68 -39.5 -107.5t-108.5 -39.5zM154 10h-50l384 841
h49zM476 9q-70 0 -108 39t-38 107q0 65 42 106.5t104 41.5q63 0 105.5 -41.5t42.5 -106.5q0 -67 -39.5 -106.5t-108.5 -39.5zM835 275q-48 0 -71 -43q-17 -31 -17 -73q0 -45 17 -79q23 -46 71 -46t71 44q18 34 18 81q0 41 -18 73q-24 43 -71 43zM165 833q-48 0 -73 -45
q-19 -33 -19 -74q0 -44 19 -78q24 -45 73 -45q50 0 73 45q17 32 17 78q0 41 -18 74q-24 45 -72 45zM476 275q-46 0 -70 -39q-19 -32 -19 -77t18 -79q23 -46 71 -46q86 0 86 125q0 43 -16 73q-22 43 -70 43z" />
    <glyph glyph-name="minute" unicode="&#x2032;" 
d="M344 849q16 0 29.5 -13.5t13.5 -29.5q0 -10 -23 -34l-169 -173l-15 12l120 212q15 26 44 26z" />
    <glyph glyph-name="second" unicode="&#x2033;" 
d="M203 845q17 0 30 -13t13 -30q0 -11 -22 -34l-169 -173l-16 12l121 212q15 26 43 26zM406 845q17 0 30 -13t13 -30q0 -11 -22 -34l-169 -173l-16 12l121 212q15 26 43 26z" />
    <glyph glyph-name="uni203B" unicode="&#x203b;" 
d="M779 784l32 -31l-362 -361l350 -352l-26 -31l-355 352l-355 -355l-29 31l352 355l-361 361l35 31l358 -361zM408 201q31 0 52.5 -22t21.5 -53q0 -30 -22 -52t-52 -22t-52 22t-22 52q0 31 21.5 53t52.5 22zM135 474q30 0 52 -22t22 -52t-22 -52t-52 -22q-31 0 -52.5 21.5
t-21.5 52.5q0 32 21.5 53t52.5 21zM697 474q30 0 52 -22t22 -52t-22 -52t-52 -22t-52 22t-22 52t22 52t52 22zM408 763q30 0 52 -22t22 -52t-22 -52t-52 -22t-52 22t-22 52t22 52t52 22z" />
    <glyph glyph-name="uni2074" unicode="&#x2074;" 
d="M249 595v199h-2l-123 -199h125zM341 595v-37h-49v-67h-43v67h-147v40l167 267h23v-270h49z" />
    <glyph glyph-name="uni207F" unicode="&#x207f;" 
d="M284 422v21q29 2 40 13.5t11 40.5v192q0 41 -22 75q-25 37 -60 37q-38 0 -99 -68v-236q0 -29 11 -40.5t40 -13.5v-21h-143v21q29 2 40 13.5t11 40.5v219q0 46 -8 55q-5 5 -13 6q-5 0 -30 -1v18l92 46v-66q53 61 114 61q49 0 78.5 -41.5t29.5 -102.5v-194q0 -29 11 -40.5
t40 -13.5v-21h-143z" />
    <glyph glyph-name="uni2081" unicode="&#x2081;" 
d="M328 -40h-180v10h11q38 0 48 7t10 41v225q0 36 -16 36q-8 0 -28 -10q-26 -13 -29 -14l-6 9q54 27 118 72l5 -5v-313q0 -32 18 -42q10 -6 38 -6h11v-10z" />
    <glyph glyph-name="uni2082" unicode="&#x2082;" 
d="M330 -39h-197v8l95 107q61 69 61 117q0 77 -72 77q-27 0 -47.5 -18.5t-28.5 -45.5l-10 2q7 46 36.5 72.5t74.5 26.5q42 0 66 -24.5t24 -66.5q0 -41 -43 -95q-20 -27 -76 -87l-36 -40h108q27 0 40 7.5t24 31.5l10 -2z" />
    <glyph glyph-name="uni2083" unicode="&#x2083;" 
d="M187 118v10q35 2 63.5 25.5t28.5 57.5q0 58 -58 58q-56 0 -85 -54l-10 6q36 84 117 84q30 0 55 -19t25 -48q0 -40 -53 -83q71 -23 71 -89q0 -65 -43.5 -100t-110.5 -35q-21 0 -40 8q-24 10 -24 28q0 19 19 19q17 0 40.5 -17.5t40.5 -17.5q34 0 56.5 23t22.5 57
q0 87 -115 87z" />
    <glyph glyph-name="uni2084" unicode="&#x2084;" 
d="M249 66v182h-2l-124 -182h126zM341 66v-35h-50v-91h-42v91h-148v38l166 239h24v-242h50z" />
    <glyph glyph-name="uni2103" unicode="&#x2103;" 
d="M592 672q27 0 69.5 -10.5t57.5 -10.5t53 21l58 -167l-20 -10q-34 60 -92 105q-66 51 -126 51q-112 0 -188 -98q-69 -90 -69 -203q0 -130 75 -214t195 -84q71 0 132 50q44 34 97 108l21 -13q-56 -83 -103 -121q-66 -53 -147 -53q-150 0 -234 92q-81 88 -81 235
q0 135 82 227q86 95 220 95zM180 886q45 0 77.5 -33.5t32.5 -79.5q0 -44 -33 -77t-77 -33q-46 0 -79.5 32.5t-33.5 77.5q0 47 33 80t80 33zM180 699q30 0 52 22t22 52t-22 53.5t-52 23.5q-32 0 -54.5 -22.5t-22.5 -54.5t22.5 -53t54.5 -21z" />
    <glyph glyph-name="uni2109" unicode="&#x2109;" 
d="M367 667h473l61 -143l-25 -8q-55 78 -100 99q-50 25 -195 25q-82 0 -82 -61v-193h89q78 0 98 10q30 16 42 83h27v-208h-27q-10 62 -45 78q-22 11 -95 11h-89v-249q0 -41 27 -49q8 -3 66 -3v-27h-230v27q49 0 63 5q31 10 31 47v468q0 43 -24 54q-14 7 -65 7v27zM180 886
q45 0 77.5 -33.5t32.5 -79.5q0 -44 -33 -77t-77 -33q-46 0 -79.5 32.5t-33.5 77.5q0 47 33 80t80 33zM180 699q30 0 52 22t22 52t-22 53.5t-52 23.5q-32 0 -54.5 -22.5t-22.5 -54.5t22.5 -53t54.5 -21z" />
    <glyph glyph-name="uni2113" unicode="&#x2113;" 
d="M698 193q18 -3 30 -39q-41 -106 -141 -116q-66 34 -104 105q-22 -17 -64 -48q-31 -22 -49 -22t-29 30q36 26 117 81q-41 138 -41 215q0 124 30 231q41 149 124 149q58 0 88 -58q24 -47 24 -118q0 -84 -52 -218q-49 -128 -106 -206q38 -81 78 -81q39 0 72 54q7 14 23 41z
M570 720q-50 0 -81 -140q-22 -103 -22 -183q0 -93 28 -168q56 87 99 197q46 119 46 194q0 36 -13 62q-19 38 -57 38z" />
    <glyph glyph-name="uni2116" unicode="&#x2116;" 
d="M519 729h171v-29q-126 5 -126 -46v-637h-16l-337 557h-8v-391q0 -181 -96 -181q-39 0 -67.5 28t-28.5 62q0 39 8 55q11 23 43 23q18 0 31.5 -13t13.5 -28q0 -9 -4 -16q-16 -27 -16 -52q0 -35 26 -35q62 0 62 147v460q-25 40 -42 55q-26 20 -67 20v21h94l361 -586h-2v586z
M989 67q0 -19 -13.5 -32.5t-32.5 -13.5q-41 0 -41 52q0 44 45 44q18 0 30 -15.5t12 -34.5zM937 257q0 -89 -43 -157q-49 -79 -133 -79q-86 0 -137 78q-43 67 -44 158q-1 89 41 154q49 75 134 75q89 0 139 -73q43 -63 43 -156zM881 249q0 209 -126 209q-62 0 -93 -66
q-27 -56 -27 -148q0 -73 35 -132q38 -63 93 -63q61 0 93 75q25 57 25 125z" />
    <glyph glyph-name="uni2121" unicode="&#x2121;" 
d="M394 544l-17 -1q-11 89 -25 118q-19 36 -64 36h-52v-561q0 -56 9 -72.5t45 -20.5l1 -25h-152v25q39 5 49 37q4 13 4 67v550h-54q-43 0 -61 -32.5t-28 -118.5h-15v182h360v-184zM750 275h-328q-6 -25 -6 -52q0 -75 45.5 -130t115.5 -55q91 0 176 168l16 -7
q-25 -79 -79 -130q-58 -55 -130 -55q-86 0 -135 56.5t-49 154.5q0 117 52.5 183.5t145.5 66.5q79 0 126.5 -56t49.5 -144zM425 301h275q0 70 -37 108.5t-104 38.5q-50 0 -90 -48q-37 -44 -44 -99zM844 108v462q0 56 -13 65q-7 5 -64 5v16q29 6 63 21q56 25 60 27v-596
q0 -37 16 -53t61 -19v-16h-200v16q45 3 61 19t16 53z" />
    <glyph glyph-name="trademark" unicode="&#x2122;" 
d="M930 408v-23h-144v23q33 1 42.5 8t9.5 39v288h-2l-147 -355h-9l-150 355h-2v-284q0 -34 9 -43t41 -8v-23h-127v23q36 1 42.5 9t6.5 44v286q0 17 -13 21h-28v21h96l133 -320l140 320h102v-21q-32 0 -35 -1q-14 -4 -14 -27v-284q0 -31 8 -38.5t41 -9.5zM258 761v-308
q0 -33 14 -41q9 -4 49 -4v-23h-169v23q39 0 48 5q15 8 15 40v308h-45q-41 0 -57 -15t-16 -56h-26v99h331v-99h-26q0 41 -16 56t-57 15h-45z" />
    <glyph glyph-name="Omega" unicode="&#x2126;" 
d="M820 427q0 -100 -59 -180q-64 -86 -174 -118v-57h130q37 0 52 16t15 52v48h29v-164h-259v126q83 31 144 105q67 82 67 174q0 122 -76 195q-70 68 -176 68q-112 0 -187 -74q-79 -78 -78 -204q1 -88 60 -160.5t154 -102.5v-127h-256v164h27v-49q0 -67 70 -67h125v57
q-107 29 -169.5 108.5t-63.5 185.5q-2 126 91 214.5t228 88.5q141 0 223.5 -80t82.5 -219z" />
    <glyph glyph-name="uni212B" unicode="&#x212b;" 
d="M446 642l55 27l245 -545q36 -81 133 -84v-27h-229v27q59 0 59 39q0 2 -32 74q-16 38 -33 75h-347q-15 -31 -57 -121q-4 -13 -4 -23q0 -27 30 -35q8 -2 61 -5v-27h-229v27q68 0 114 84q52 95 121 255q93 216 113 259zM313 251h319l-161 362zM492 876q36 0 59 -27t23 -63
q0 -35 -24 -60.5t-58 -25.5q-36 0 -61 25t-25 61q0 37 25 63.5t61 26.5zM492 724q23 0 41 19t18 43q0 26 -16.5 46t-42.5 20q-27 0 -44.5 -19.5t-17.5 -46.5q0 -26 18 -44t44 -18z" />
    <glyph glyph-name="onethird" unicode="&#x2153;" 
d="M695 43q-65 21 -65 43q0 9 7.5 17t15.5 8q22 0 47 -17q1 -1 17 -16q9 -9 19 -9q39 0 67.5 19t28.5 57q0 65 -33 91q-28 21 -91 22v27q62 19 72 25q33 17 33 54q0 30 -21 54.5t-51 24.5q-53 0 -99 -75l-9 3q35 96 115 96q42 0 69 -21q31 -23 31 -65q0 -28 -17 -55
q-21 -33 -56 -41q42 -10 68.5 -46t26.5 -76q0 -59 -47 -92q-42 -29 -104 -29q-12 0 -24 1zM160 354v19q15 1 42 7q22 9 22 33v256q0 34 -17 34q-4 0 -7.5 -1.5t-11.5 -4t-15 -4.5v16l91 47v-347q0 -9 3 -14q7 -10 34 -11q2 0 24 -2v-28h-165zM277 46h-43l464 698h43z" />
    <glyph glyph-name="twothirds" unicode="&#x2154;" 
d="M347 353h-192v35q50 56 101 112q57 67 57 107q0 49 -10 73q-17 37 -62 37q-54 0 -87 -87l-14 3q27 114 118 114q41 0 68 -34.5t27 -74.5q0 -53 -66 -133q-48 -56 -97 -112h101q33 0 49.5 9t34.5 35l8 -2zM695 43q-65 21 -65 43q0 9 7.5 17t15.5 8q22 0 47 -17
q1 -1 17 -16q9 -9 19 -9q39 0 67.5 19t28.5 57q0 65 -33 91q-28 21 -91 22v27q62 19 72 25q33 17 33 54q0 30 -21 54.5t-51 24.5q-29 0 -52 -23q-14 -14 -38 -52l-18 3q35 96 115 96q42 0 69 -21q31 -23 31 -65q0 -28 -17 -55q-21 -33 -56 -41q42 -10 68.5 -46t26.5 -76
q0 -59 -47 -92q-42 -29 -104 -29q-12 0 -24 1zM277 46h-43l464 698h43z" />
    <glyph glyph-name="oneeighth" unicode="&#x215b;" 
d="M736 39q-52 0 -85 26q-37 28 -37 80q0 73 85 113l-48 48q-24 29 -24 59q0 52 34 81.5t85 29.5q44 0 75 -25q33 -28 33 -72q0 -59 -101 -109q38 -25 76 -49q45 -35 45 -70q0 -52 -44 -84q-39 -28 -94 -28zM278 43h-45l466 702h41zM157 354v12q31 2 43 6q22 9 22 32v264
q0 33 -18 33q-6 0 -18 -5q-18 -8 -19 -8v13l97 59v-356q0 -20 23 -25q3 -1 39 -3v-22h-169zM738 453q-29 0 -52.5 -23.5t-23.5 -52.5q0 -40 74 -92q79 43 79 93q0 34 -21 54.5t-56 20.5zM723 245q-69 -40 -69 -97q0 -86 91 -86q32 0 59.5 21t27.5 49q0 32 -41 66
q-6 6 -68 47z" />
    <glyph glyph-name="threeeighths" unicode="&#x215c;" 
d="M193 334q-78 0 -78 37q0 24 26 24q15 0 45 -17.5t49 -17.5q38 0 61.5 20.5t23.5 56.5q0 58 -43 80q-31 16 -92 16v11q45 14 78 37q45 32 45 71q0 30 -20 47.5t-49 17.5q-51 0 -95 -71l-20 2q36 100 122 100q44 0 73.5 -22t29.5 -64q0 -44 -57 -83q79 -36 79 -113
q1 -132 -178 -132zM278 43h-45l466 702h41zM736 39q-52 0 -85 26q-37 28 -37 80q0 73 85 113l-48 48q-24 29 -24 59q0 51 35 79q32 26 84 26q44 0 72 -22q30 -25 30 -69q0 -62 -95 -109q36 -25 73 -49q42 -35 42 -70q0 -52 -41 -84q-37 -28 -91 -28zM738 447
q-29 0 -52.5 -20.5t-23.5 -49.5q0 -40 74 -92q73 40 73 93q0 69 -71 69zM723 245q-69 -40 -69 -97q0 -86 91 -86q31 0 56 20.5t25 49.5q0 33 -38 66q-13 12 -65 47z" />
    <glyph glyph-name="fiveeighths" unicode="&#x215d;" 
d="M303 676h-124l-27 -65q63 -10 106 -41q49 -35 49 -84q0 -69 -42.5 -108.5t-110.5 -39.5q-19 0 -38 13.5t-19 31.5q0 22 26 22q13 0 34.5 -16t37.5 -16q36 0 56.5 25t20.5 62q0 64 -54 88q-53 16 -105 31l61 136q126 0 141 12h13zM278 43h-45l466 702h41zM736 39
q-52 0 -85 26q-37 28 -37 80q0 73 85 113l-48 48q-24 29 -24 59q0 51 35 79q32 26 84 26q44 0 72 -22q30 -25 30 -69q0 -62 -95 -109q36 -25 73 -49q42 -35 42 -70q0 -52 -41 -84q-37 -28 -91 -28zM738 447q-29 0 -52.5 -20.5t-23.5 -49.5q0 -40 74 -92q73 40 73 93
q0 69 -71 69zM723 245q-69 -40 -69 -97q0 -86 91 -86q31 0 56 20.5t25 49.5q0 33 -38 66q-13 12 -65 47z" />
    <glyph glyph-name="seveneighths" unicode="&#x215e;" 
d="M239 349h-33l108 327h-122q-30 0 -52 -55l-17 2l35 91h205zM278 43h-45l466 702h41zM736 39q-52 0 -85 26q-37 28 -37 80q0 73 85 113l-48 48q-24 29 -24 59q0 51 35 79q32 26 84 26q44 0 72 -22q30 -25 30 -69q0 -62 -95 -109q36 -25 73 -49q42 -35 42 -70
q0 -52 -41 -84q-37 -28 -91 -28zM738 447q-29 0 -52.5 -20.5t-23.5 -49.5q0 -40 74 -92q73 40 73 93q0 69 -71 69zM723 245q-69 -40 -69 -97q0 -86 91 -86q31 0 56 20.5t25 49.5q0 33 -38 66q-13 12 -65 47z" />
    <glyph glyph-name="uni2160" unicode="&#x2160;" 
d="M613 720q-61 3 -70 -10q-19 -19 -19 -33v-563q0 -47 46 -47h47v-30h-244v30h54q42 0 42 47v560q0 17 -12 31.5t-30 14.5h-54v30h240v-30z" />
    <glyph glyph-name="uni2161" unicode="&#x2161;" 
d="M757 720h-60q-15 0 -26 -13.5t-11 -29.5v-563q0 -47 40 -47h57v-30h-514v30h54q16 0 30 11q18 13 18 36v563q0 43 -45 43h-57v30h514v-30zM557 67q45 0 45 50v560q0 15 -15 29t-30 14h-110q-43 0 -43 -43v-557q0 -31 9 -42t37 -11h107z" />
    <glyph glyph-name="uni2162" unicode="&#x2162;" 
d="M823 37h-640v30h30q21 0 38 15t17 35v557q0 43 -51 43h-34v33h640v-33h-33q-37 0 -37 -43v-550q0 -30 8 -42q9 -15 36 -15h26v-30zM427 67q54 0 54 57v550q0 17 -18 30t-36 13h-64q-43 0 -43 -43v-550q0 -57 47 -57h60zM570 67h73q23 0 40.5 14t17.5 36v557
q0 18 -18.5 30.5t-35.5 12.5h-74q-40 0 -40 -43v-550q0 -57 37 -57z" />
    <glyph glyph-name="uni2163" unicode="&#x2163;" 
d="M604 138l149 519q0 5 2 13.5t2 13.5q0 36 -30 36h-30v30h183v-30h-30q-50 0 -60 -56l-183 -640h-24l-190 643q-2 19 -16 36t-30 17h-24q-17 0 -29.5 -13t-12.5 -30v-563q0 -47 42 -47h47v-30h-243v30h53q19 0 34 13t15 34v560q0 16 -15 31t-34 15h-53v30h423v-30h-53
q-49 0 -49 -43z" />
    <glyph glyph-name="uni2164" unicode="&#x2164;" 
d="M420 750v-30h-57q-45 0 -45 -40l193 -576l192 556q7 20 7 27q0 33 -33 33h-27v30h193v-30h-30q-55 0 -73 -53l-223 -643h-34l-220 643q-18 53 -60 53h-43v30h260z" />
    <glyph glyph-name="uni2165" unicode="&#x2165;" 
d="M367 720h-57q-13 0 -29 -10q-20 -13 -16 -26l152 -553l156 533q5 17 5 27q0 17 -18 26l-11.5 1.5t-21.5 1.5v30h343v-30h-47q-48 0 -48 -53v-543q0 -57 55 -57h40v-30h-243v30h53q46 0 46 60v540q0 53 -53 53q-46 0 -60 -46l-193 -650h-27l-173 633q-9 32 -27 50
q-19 10 -63 10v33h237v-30z" />
    <glyph glyph-name="uni2166" unicode="&#x2166;" 
d="M343 750v-30q-35 0 -43 -3q-18 -7 -44 -40l119 -533l118 536q0 1 2.5 6.5t2.5 9.5q0 13 -25 21q-2 0 -14.5 1.5t-21.5 1.5v30h443v-30q-44 0 -53 -10l-16 -12q-10 -10 -13 -21v-567q0 -8 12 -19q8 -7 17 -14q14 -10 53 -10v-30h-360v30q40 0 47 3q13 7 27 13q17 12 17 31
v566q0 14 -11 25.5t-22 11.5q-42 0 -48 -27l-147 -670h-30l-143 647q-9 26 -23 40q-19 13 -54 13v30h210zM651 677v-570q0 -40 52 -40q50 0 50 47v560q0 20 -15.5 33t-30.5 13q-48 0 -56 -43z" />
    <glyph glyph-name="uni2167" unicode="&#x2167;" 
d="M303 717h-50q-15 0 -28 -14t-13 -29l109 -520l102 520q0 26 -10 36q-10 7 -36 7v33h533v-33q-30 0 -40 -10q-22 -9 -22 -20v-570q0 -17 22 -37q10 -9 40 -13v-30h-470v30q43 0 57 10q22 22 22 37v566q0 21 -36 34q-22 0 -30 -40l-126 -650h-30l-134 653q-5 27 -16 33
q-10 10 -50 10v30h206v-33zM717 657v-540q0 -50 40 -50q20 0 27 7q12 11 12 46v537q0 60 -36 60q-43 0 -43 -60zM571 677v-563q0 -47 46 -47q35 0 46 47v563q0 40 -50 40q-42 0 -42 -40z" />
    <glyph glyph-name="uni2168" unicode="&#x2168;" 
d="M633 67h50q24 0 24 25q0 15 -10 35l-111 223l-133 -226q-18 -31 -18 -39q0 -18 38 -18h34v-30h-377v30h43q19 0 32.5 14t13.5 36v557q0 21 -19.5 33.5t-39.5 12.5h-30v30h450v-30h-50q-54 0 -54 -31q0 -7 3 -15l125 -250l123 243q7 15 7 27q0 26 -24 26h-30v30h197v-30
h-27q-62 0 -93 -63l-134 -269l150 -294q15 -29 41 -29q4 0 14 1t15 1h30v-30h-240v30zM570 380l-150 297q-22 43 -60 43h-43q-16 0 -29 -11q-17 -14 -17 -39v-560q0 -43 42 -43h30q26 0 53 26q24 23 37 54z" />
    <glyph glyph-name="uni2169" unicode="&#x2169;" 
d="M470 717h-50q-36 0 -36 -21q0 -7 4 -16l132 -266l132 260q5 10 5 19q0 24 -27 24h-37v33h214v-33h-44q-60 0 -90 -60l-140 -276l108 -197q41 -75 72 -99q22 -18 57 -18h33v-30h-260v30h40q31 0 31 29q0 14 -11 31l-110 213l-116 -190q-27 -45 -27 -63q0 -20 30 -20h37
v-30h-214v30h37q51 0 110 97l127 210l-150 296q-24 47 -70 47h-57v33h270v-33z" />
    <glyph glyph-name="uni2170" unicode="&#x2170;" 
d="M563 694q0 -25 -20.5 -46t-45.5 -21q-30 0 -48.5 18.5t-18.5 48.5q0 26 19 46t48 20q24 0 43 -17.5t23 -48.5zM617 37h-244v30h54q39 0 39 47v320q0 45 -14 53q-5 3 -49 3h-20v24q41 4 65 15q19 8 76 45v-460q0 -47 46 -47h47v-30z" />
    <glyph glyph-name="uni2171" unicode="&#x2171;" 
d="M687 694q0 -25 -21 -46t-46 -21q-30 0 -48.5 18.5t-18.5 48.5q0 26 19 46t48 20q24 0 43 -17.5t24 -48.5zM433 694q0 -25 -20.5 -46t-45.5 -21q-30 0 -48.5 18.5t-18.5 48.5q0 26 19 46t48 20q24 0 43 -17.5t23 -48.5zM757 37h-514v30h54q15 0 30 12t15 35v320
q0 45 -12 53q-6 3 -48 3h-20v24q40 4 63 15q16 7 76 45v-454q0 -31 10.5 -42t38.5 -11h107q42 0 42 50v317q0 45 -14 53q-5 3 -49 3h-20v24q42 4 65 14t79 46v-460q0 -47 40 -47h57v-30z" />
    <glyph glyph-name="uni2172" unicode="&#x2172;" 
d="M777 694q0 -25 -21 -46t-46 -21q-30 0 -48.5 18.5t-18.5 48.5q0 26 19 46t48 20q24 0 43 -17.5t24 -48.5zM563 694q0 -25 -20.5 -46t-45.5 -21q-30 0 -48.5 18.5t-18.5 48.5q0 26 19 46t48 20q24 0 43 -17.5t23 -48.5zM353 694q0 -25 -20.5 -46t-45.5 -21
q-30 0 -48.5 18.5t-18.5 48.5q0 26 19 46t48 20q24 0 43 -17.5t23 -48.5zM823 37h-640v30h30q21 0 38 15t17 35v317q0 45 -14 53q-5 3 -49 3h-20v24q40 4 63 15q16 7 75 45v-450q0 -57 44 -57h60q51 0 51 57v310q0 45 -14 53q-5 3 -49 3h-20v24q40 4 63 15q16 7 75 45v-450
q0 -57 37 -57h73q49 0 49 50v317q0 45 -12 53q-6 3 -48 3h-20v24q41 4 65 15q19 8 76 45v-450q0 -30 8 -42q9 -15 36 -15h26v-30z" />
    <glyph glyph-name="uni2173" unicode="&#x2173;" 
d="M317 694q0 -25 -21 -46t-46 -21q-30 0 -48.5 18.5t-18.5 48.5q0 26 19 46t48 20q24 0 43 -17.5t24 -48.5zM890 514q-32 -6 -47 -17q-35 -11 -66 -83l-167 -390h-17l-180 393q-27 60 -39 74q-2 2 -21 13q-5 3 -46 10v23h233v-27q-47 0 -57 -10q-10 -6 -19 -11
q-11 -9 -11 -23q0 -13 9 -32l152 -328l131 304q10 20 10 36q0 25 -25 48q-12 11 -60 16v24h220v-20zM370 37h-243v30h53q19 0 34 13t15 34v320q0 45 -14 53q-6 3 -50 3h-20v24q41 4 65 15q19 8 77 45v-460q0 -47 36 -47h47v-30z" />
    <glyph glyph-name="uni2174" unicode="&#x2174;" 
d="M787 514q-32 -6 -47 -17q-36 -11 -67 -83l-166 -390h-17l-180 393q-27 60 -39 74q-2 2 -21 13q-8 4 -47 10v23h234v-27q-47 0 -57 -10q-11 -6 -22 -13t-11 -21q0 -13 9 -32l157 -331l129 307q9 22 9 37q0 24 -24 47q-12 11 -60 16v24h220v-20z" />
    <glyph glyph-name="uni2175" unicode="&#x2175;" 
d="M833 694q0 -25 -20.5 -46t-45.5 -21q-30 0 -48.5 18.5t-18.5 48.5q0 26 19 46t48 20q24 0 43 -17.5t23 -48.5zM890 37h-243v30h53q20 0 39 13t19 34v320q0 45 -14 53q-6 3 -50 3h-20v24q39 4 60 15q7 3 73 45v-460q0 -47 36 -47h47v-30zM637 507q-16 -2 -37 -17
q-29 -8 -60 -83l-160 -390h-17l-173 393q-26 60 -39 74q0 1 -21 13q-14 6 -47 10v23h234v-26q-45 0 -57 -10q-10 -6 -21 -13t-11 -21q0 -13 11 -33l145 -334l122 311q11 22 11 37q0 24 -24 46q-12 11 -60 17v23h204v-20z" />
    <glyph glyph-name="uni2176" unicode="&#x2176;" 
d="M860 694q0 -25 -20.5 -46t-46.5 -21q-30 0 -48 18.5t-18 48.5q0 26 18.5 46t47.5 20q24 0 43 -17.5t24 -48.5zM680 694q0 -25 -20.5 -46t-46.5 -21q-30 0 -48 18.5t-18 48.5q0 26 18.5 46t47.5 20q24 0 43 -17.5t24 -48.5zM917 37h-407v30h37q16 0 30 11q18 13 18 36v320
q0 41 -1 44q-5 12 -32 12h-20v24q29 0 44 12q42 36 62 48v-454q0 -31 10 -42t39 -11h33q43 0 43 50v317q0 39 -14 49q-10 7 -50 7h-20v24q40 4 62 15q11 5 74 45v-460q0 -47 48 -47h44v-30zM510 507q-16 -2 -37 -17q-36 -9 -60 -83l-126 -390h-17l-123 393q-19 61 -35 76
q-13 5 -25 11q-5 4 -34 10v23h204v-26q-30 0 -40 -10q-22 -13 -22 -30q0 -13 7 -37l86 -308l91 285q10 31 10 41q0 22 -22 42q-10 9 -13 11q-7 3 -27 6v23h183v-20z" />
    <glyph glyph-name="uni2177" unicode="&#x2177;" 
d="M897 694q0 -25 -21 -46t-46 -21q-30 0 -48.5 18.5t-18.5 48.5q0 26 19 46t48 20q24 0 43 -17.5t24 -48.5zM750 694q0 -25 -20.5 -46t-46.5 -21q-30 0 -48 18.5t-18 48.5q0 26 18.5 46t47.5 20q24 0 43 -17.5t24 -48.5zM603 694q0 -25 -20.5 -46t-45.5 -21
q-30 0 -48.5 18.5t-18.5 48.5q0 26 19 46t48 20q24 0 43 -17.5t23 -48.5zM943 37h-503v30h30q21 0 39.5 15t18.5 35v317q0 45 -6 53q-2 3 -21 3h-20v24q32 3 44 15q28 27 55 45v-450q0 -34 4 -43q6 -14 29 -14h10q52 0 52 57v310q0 44 -12 53q-4 3 -31 3h-20v24q34 4 51 15
q32 22 64 45v-450q0 -33 3 -42q5 -15 23 -15h20q23 0 40.5 14t17.5 36v317q0 44 -14 53q-5 3 -36 3h-20v24q37 4 55 15q34 22 67 45v-450q0 -30 8 -42q9 -15 36 -15h16v-30zM447 507q-24 -4 -40 -20q-18 -19 -24 -29q-10 -16 -20 -51l-110 -390h-16l-107 393q-24 60 -37 75
q-12 6 -23 12q-6 4 -37 10v23h204v-26q-24 0 -28.5 -3t-8.5 -7q-24 -14 -24 -44q0 -11 3 -23l75 -307l72 284q11 42 11 45q0 20 -20 38q-10 9 -13 11q-7 3 -27 6v23h170v-20z" />
    <glyph glyph-name="uni2178" unicode="&#x2178;" 
d="M313 694q0 -25 -20.5 -46t-45.5 -21q-30 0 -48.5 18.5t-18.5 48.5q0 26 19 46t48 20q24 0 43 -17.5t23 -48.5zM883 37h-250v30h50q17 0 17 12t-17 35l-103 136l-113 -130q-28 -27 -28 -39q0 -14 34 -14h34v-30h-377v30h43q20 0 37.5 14.5t17.5 35.5v317q0 39 -14 49
q-10 7 -49 7h-20v24q39 4 61 15q13 6 74 45v-464q0 -24 3 -30q6 -13 30 -13h30q35 0 104 77q116 133 116 130l-150 200q-21 28 -22 29q-14 14 -31 14h-40v30h260v-30h-50q-20 0 -37 -9.5t-17 -22.5q0 -7 6 -15l125 -170l120 164q9 13 9 25q0 28 -26 28h-30v30h197v-30h-27
q-46 0 -93 -63l-130 -174l125 -166q35 -47 91 -47h40v-30z" />
    <glyph glyph-name="uni2179" unicode="&#x2179;" 
d="M790 37h-250v30h50q18 0 18 13q0 12 -18 34q-110 140 -113 140l-110 -134q-28 -27 -28 -39q0 -14 34 -14h34v-30h-210v30h46q39 0 104 77l113 133l-157 197q-11 15 -22 29q-14 14 -31 14h-40v30h260v-30h-50q-19 0 -36.5 -9.5t-17.5 -22.5q0 -8 6 -15l125 -155
q4 0 120 149q10 12 10 25q0 28 -27 28h-30v30h197v-30h-27q-42 0 -93 -63l-130 -162l142 -178q37 -47 91 -47h40v-30z" />
    <glyph glyph-name="arrowleft" unicode="&#x2190;" 
d="M305 572l19 -20l-125 -133h746v-39h-746l125 -125l-19 -19q-131 101 -262 164q137 60 262 172z" />
    <glyph glyph-name="arrowup" unicode="&#x2191;" 
d="M500 857q61 -118 172 -262l-20 -19l-132 128v-746h-40v746l-132 -128l-20 19q120 154 172 262z" />
    <glyph glyph-name="arrowright" unicode="&#x2192;" 
d="M695 572q125 -112 262 -172q-140 -68 -262 -164l-19 19l125 125h-746v39h746l-125 133z" />
    <glyph glyph-name="arrowdown" unicode="&#x2193;" 
d="M480 841h40v-746l132 129l20 -20q-107 -135 -172 -261q-55 116 -172 261l20 20l132 -129v746z" />
    <glyph glyph-name="arrowboth" unicode="&#x2194;" 
d="M692 238l11 -15l128 106q2 2 97 63v21q-89 45 -224 168l-13 -13q67 -93 134 -144h-649q67 51 134 144l-13 13q-135 -123 -224 -168v-21q40 -25 97 -63l128 -106l11 15q-60 79 -130 143h642q-59 -50 -129 -143z" />
    <glyph glyph-name="arrowupdn" unicode="&#x2195;" 
d="M336 212l-15 -11l106 -128q2 -2 63 -97h21q45 89 168 224l-13 13q-93 -67 -144 -134v649q51 -67 144 -134l13 13q-123 135 -168 224h-21q-25 -40 -63 -97l-106 -128l15 -11q79 60 143 130v-642q-50 59 -143 129z" />
    <glyph glyph-name="uni2196" unicode="&#x2196;" 
d="M832 126l-30 -30l-569 569q6 -46 5 -89q-1 -37 -12 -108h-19q-7 179 -39 277l15 15q46 -11 113 -24l165 -16l-3 -18q-103 -14 -193 -9z" />
    <glyph glyph-name="uni2197" unicode="&#x2197;" 
d="M793 468h-19q-11 71 -12 108q-1 43 5 89l-569 -569l-30 30l567 567q-90 -5 -193 9l-3 18l165 16q5 1 113 24l15 -15q-32 -98 -39 -277z" />
    <glyph glyph-name="uni2198" unicode="&#x2198;" 
d="M832 111l-15 -15q-46 11 -113 24l-165 16l3 18q103 14 193 9l-567 567l30 30l569 -569q-6 46 -5 89q1 37 12 108h19q7 -179 39 -277z" />
    <glyph glyph-name="uni2199" unicode="&#x2199;" 
d="M832 730l-567 -567q90 5 193 -9l3 -18l-165 -16q-5 -1 -113 -24l-15 15q32 98 39 277h19q11 -71 12 -108q1 -43 -5 -89l569 569z" />
    <glyph glyph-name="arrowdblright" unicode="&#x21d2;" 
d="M637 712l308 -304l-308 -305l-28 31l137 141h-695v47h741l83 86l-83 86h-741v46h695l-137 141z" />
    <glyph glyph-name="arrowdblboth" unicode="&#x21d4;" 
d="M359 712l32 -35l-143 -141h494l-144 145l31 31l316 -312l-316 -305l-31 31l148 145h-504l149 -145l-32 -31l-316 305zM198 314h593l88 86l-90 90h-589l-91 -90z" />
    <glyph glyph-name="universal" unicode="&#x2200;" 
d="M496 -8l-397 794l42 18l139 -281h434l139 281l39 -18zM300 481l196 -396l197 396h-393z" />
    <glyph glyph-name="partialdiff" unicode="&#x2202;" 
d="M578 781q80 0 118 -70q31 -56 31 -143q0 -91 -38 -210q-42 -135 -108 -220q-80 -102 -175 -102q-70 0 -108 47q-36 43 -36 114q0 110 65 196q70 93 177 93q69 0 151 -82q27 95 27 164q0 172 -117 172q-50 0 -89 -31q-30 -29 -59 -59l-26 15q74 116 187 116zM642 359
q-17 33 -58.5 62.5t-70.5 29.5q-101 0 -159 -92q-50 -79 -50 -190q0 -42 27.5 -72t71.5 -30q79 0 158 114q66 96 81 178z" />
    <glyph glyph-name="existential" unicode="&#x2203;" 
d="M203 751h594v-687h-594v47h547v273h-547v47h547v273h-547v47z" />
    <glyph glyph-name="gradient" unicode="&#x2207;" 
d="M500 65l-320 640h640zM244 666l259 -521l255 521h-514z" />
    <glyph glyph-name="element" unicode="&#x2208;" 
d="M797 677v-47h-281q-104 0 -174 -47q-79 -53 -91 -152h546v-47h-546q7 -95 77 -151q67 -52 164 -52h305v-47h-305q-126 0 -206 71q-83 74 -83 199q0 130 94 205q85 68 219 68h281z" />
    <glyph glyph-name="suchthat" unicode="&#x220b;" 
d="M207 677h277q133 0 221 -69q96 -75 96 -204q0 -132 -78 -215q-80 -86 -211 -86h-305v47h305q103 0 169.5 65t71.5 169h-546v47h545q-11 99 -92 152q-72 47 -176 47h-277v47z" />
    <glyph glyph-name="product" unicode="&#x220f;" 
d="M751 684v-584q0 -47 16 -62q19 -18 74 -18v-18h-228v18q55 0 73.5 16t18.5 64v584q0 44 -24 62t-75 18h-196q-99 0 -99 -80v-584q0 -56 18 -69q15 -11 75 -11v-18h-229v18q59 0 74 12t15 68v584q0 21 -18 41q-12 12 -23.5 25t-54.5 13h-23v19h726v-19h-23q-97 0 -97 -79z
" />
    <glyph glyph-name="summation" unicode="&#x2211;" 
d="M810 260l-36 -199h-556v19l300 314l-284 342v17h500l43 -193l-25 -8q-48 90 -75 122q-29 36 -66 46q-26 6 -102 6h-194l260 -317l-281 -293h344q65 0 97 43q15 19 49 106z" />
    <glyph glyph-name="radical" unicode="&#x221a;" 
d="M1000 900v-47h-414l-313 -891l-132 278l-71 -51l-27 35l137 105l93 -214l278 785h449z" />
    <glyph glyph-name="proportional" unicode="&#x221d;" 
d="M297 626q115 0 225 -181q56 84 97 122q65 59 139 59q49 0 96 -22t72 -60l-35 -27q-51 62 -133 62q-68 0 -125 -62q-16 -18 -83 -119q47 -78 75 -108q53 -58 113 -58q94 0 153 62l35 -27q-30 -39 -84 -62q-50 -20 -104 -20q-71 0 -128 57q-25 25 -87 117q-66 -93 -93 -119
q-61 -59 -133 -59q-91 0 -155 64t-64 155q0 93 63 159.5t156 66.5zM495 401q-44 78 -78 116q-57 62 -120 62q-74 0 -123 -52.5t-49 -126.5q0 -71 50.5 -121.5t121.5 -50.5q63 0 118 60q26 28 80 113z" />
    <glyph glyph-name="infinity" unicode="&#x221e;" 
d="M285 626q142 0 216 -163q43 80 89 117q57 46 137 46q96 0 161 -61.5t65 -156.5q0 -94 -66 -158.5t-160 -64.5q-144 0 -229 167q-39 -80 -81 -119q-56 -52 -132 -52q-97 0 -163.5 65t-66.5 162q0 98 67 159q64 59 163 59zM727 236q77 0 126 48t49 124q0 69 -52.5 118.5
t-122.5 49.5q-74 0 -126 -50q-41 -38 -76 -117q71 -173 202 -173zM285 232q60 0 113 56q47 49 73 121q-37 82 -67 115q-47 52 -119 52q-75 0 -126 -46q-54 -48 -54 -122q0 -75 52 -125.5t128 -50.5z" />
    <glyph glyph-name="angle" unicode="&#x2220;" 
d="M777 790l36 -27l-629 -629h679v-47h-789z" />
    <glyph glyph-name="uni2225" unicode="&#x2225;" 
d="M560 -79v962h53v-962h-53zM392 -79v962h53v-962h-53z" />
    <glyph glyph-name="logicaland" unicode="&#x2227;" 
d="M500 806l367 -742l-47 -28l-320 665l-332 -665l-47 28z" />
    <glyph glyph-name="logicalor" unicode="&#x2228;" 
d="M172 779l328 -672l320 672l47 -28l-367 -750l-375 750z" />
    <glyph glyph-name="intersection" unicode="&#x2229;" 
d="M523 771q129 0 207.5 -80t78.5 -209v-449h-47v449q0 107 -66 174.5t-173 67.5q-110 0 -182 -55q-79 -61 -79 -168v-468h-47v468q0 128 93 202q85 68 215 68z" />
    <glyph glyph-name="union" unicode="&#x222a;" 
d="M501 33q-129 0 -207.5 80t-78.5 209v449h47v-449q0 -107 66 -174.5t173 -67.5q110 0 182 55q79 61 79 168v468h47v-468q0 -128 -92 -202q-86 -68 -216 -68z" />
    <glyph glyph-name="integral" unicode="&#x222b;" 
d="M527 794q-78 0 -78 -101q0 -62 68 -270q65 -199 65 -301q0 -61 -39 -111q-42 -53 -102 -53q-29 0 -47.5 17t-18.5 46q0 18 12.5 30.5t30.5 12.5q38 0 47 -47q74 0 74 105q0 72 -70 266q-63 175 -63 277q0 74 37 125q41 59 112 59q25 0 43.5 -13.5t18.5 -37.5
q0 -47 -43 -47q-47 0 -47 43z" />
    <glyph glyph-name="uni222C" unicode="&#x222c;" 
d="M367 794q-41 0 -63 -31q-19 -27 -19 -70q0 -60 68.5 -268.5t68.5 -302.5q0 -61 -39 -111q-42 -53 -102 -53q-30 0 -50 16.5t-20 46.5q0 18 12.5 30.5t30.5 12.5q43 0 51 -47q74 0 74 105q0 71 -72 266q-65 176 -65 277q0 76 38 127q42 57 115 57q24 0 41 -14t17 -37
q0 -47 -43 -47t-43 43zM699 794q-41 0 -63 -31q-19 -27 -19 -70q0 -62 68 -270q65 -199 65 -301q0 -61 -39 -111q-42 -53 -102 -53q-29 0 -47.5 17t-18.5 46q0 18 12.5 30.5t30.5 12.5q38 0 47 -47q74 0 74 105q0 72 -70 266q-63 175 -63 277q0 76 38 127q42 57 115 57
q24 0 41 -14t17 -37q0 -47 -43 -47t-43 43z" />
    <glyph glyph-name="uni222E" unicode="&#x222e;" 
d="M515 332q-28 -49 -103 -91l19 -68q11 -33 11 -62q0 -109 -137 -132q-12 -2 -23 -2q-61 0 -61 44q0 8 3 16q7 18 35 18q47 0 70 -34q73 22 73 80q0 15 -5 28q-4 10 -25 101q-22 -10 -51 -10q-38 0 -72 14q-48 19 -77 66.5t-29 103.5q0 70 46 126q29 35 74 55q-8 32 -10 57
q-2 20 -2 37q0 77 40 119q35 36 92 40q36 2 63.5 -11.5t27.5 -34.5q0 -10 -6 -19q-12 -19 -28 -19q-22 0 -66 49q-37 -6 -60 -39t-23 -80q0 -22 5 -45l9 -38q36 16 109 2q54 -10 90 -67q32 -53 32 -117q0 -50 -21 -87zM312 563q29 -94 86 -285q45 22 73 61t28 84q0 21 -7 43
q-35 107 -122 107q-27 0 -58 -10zM358 263q-1 3 -86 291q-33 -14 -60 -53q-30 -44 -30 -94q0 -29 11 -57q17 -43 56 -68q36 -24 76 -24q17 0 33 5z" />
    <glyph glyph-name="therefore" unicode="&#x2234;" 
d="M492 736q25 0 44 -19t19 -44t-18.5 -43.5t-44.5 -18.5t-44 18t-18 44t18.5 44.5t43.5 18.5zM223 185q27 0 44.5 -18t17.5 -45q0 -26 -18 -44t-44 -18t-44.5 18t-18.5 44q0 27 18 45t45 18zM781 185q26 0 44.5 -18.5t18.5 -44.5q0 -25 -18.5 -43.5t-44.5 -18.5t-44 18
t-18 44q0 27 17.5 45t44.5 18z" />
    <glyph glyph-name="uni2235" unicode="&#x2235;" 
d="M215 755q27 0 46.5 -19.5t19.5 -46.5t-19.5 -47t-46.5 -20t-47 20t-20 47q0 28 19.5 47t47.5 19zM492 201q27 0 47 -20t20 -47t-20 -46.5t-47 -19.5t-46.5 19.5t-19.5 46.5q0 28 19 47.5t47 19.5zM781 755q28 0 47.5 -19t19.5 -47q0 -27 -20 -47t-47 -20q-28 0 -47 19.5
t-19 47.5t19 47t47 19z" />
    <glyph glyph-name="similar" unicode="&#x223c;" 
d="M289 521q53 0 201 -89.5t196 -89.5q51 0 114 44q25 18 96 81l29 -28q-131 -135 -253 -135q-54 0 -194.5 88t-189.5 88q-55 0 -107 -43q-44 -36 -71 -88l-32 12q23 59 78 105q63 55 133 55z" />
    <glyph glyph-name="uni223D" unicode="&#x223d;" 
d="M273 587q-75 0 -127 -50.5t-52 -125.5t50.5 -129t125.5 -54q78 0 153 105l130 196q83 105 181 105q91 0 151 -69t60 -161q0 -88 -62 -151.5t-149 -63.5q-83 0 -156 51l12 43q76 -51 144 -51q70 0 119 51t49 121q0 74 -46 129q-49 58 -122 58q-81 0 -158 -105l-130 -196
q-82 -105 -176 -105q-92 0 -155.5 66.5t-63.5 159.5q0 92 65 155.5t157 63.5q73 0 141 -47l-12 -43q-69 47 -129 47z" />
    <glyph glyph-name="uni2252" unicode="&#x2252;" 
d="M141 318h746v-47h-746v47zM289 716q24 0 41.5 -17t17.5 -41t-17.5 -41.5t-41.5 -17.5t-41.5 17.5t-17.5 41.5t17.5 41t41.5 17zM734 177q25 0 42 -16.5t17 -41.5t-17 -42t-42 -17t-41.5 17t-16.5 42q0 24 17 41t41 17zM141 517h746v-47h-746v47z" />
    <glyph glyph-name="notequal" unicode="&#x2260;" 
d="M867 529h-398l-75 207l-39 -12l71 -195h-301v-43h316l57 -157h-373v-43h388l77 -210l39 11l-72 199h310v43h-326l-56 157h382v43z" />
    <glyph glyph-name="equivalence" unicode="&#x2261;" 
d="M124 582v42h741v-42h-741zM124 383v42h741v-42h-741zM124 192v42h741v-42h-741z" />
    <glyph glyph-name="lessequal" unicode="&#x2264;" 
d="M194 365v50l606 223v-54l-552 -194l552 -194v-54zM176 42v51h622v-51h-622z" />
    <glyph glyph-name="greaterequal" unicode="&#x2265;" 
d="M214 139v54l540 194l-540 194v54l596 -223v-50zM211 42v52h605v-52h-605z" />
    <glyph glyph-name="uni226A" unicode="&#x226a;" 
d="M648 798l28 -31l-508 -367l508 -360l-28 -31l-558 391zM891 798l27 -31l-504 -367l504 -360l-27 -31l-555 391z" />
    <glyph glyph-name="uni226B" unicode="&#x226b;" 
d="M352 802l554 -402l-554 -387l-28 31l504 356l-504 371zM105 794l555 -394l-555 -391l-27 31l504 360l-504 363z" />
    <glyph glyph-name="propersubset" unicode="&#x2282;" 
d="M875 697v-47h-469q-107 0 -168 -80q-54 -71 -54 -182q0 -108 66.5 -173t175.5 -65h449v-47h-449q-129 0 -209 78t-80 207q0 131 68 216q73 93 201 93h469z" />
    <glyph glyph-name="propersuperset" unicode="&#x2283;" 
d="M137 697h449q127 0 208 -77.5t81 -204.5q0 -149 -117 -235q-104 -77 -258 -77h-363v47h363q133 0 224 64q104 73 104 201q0 106 -68 170.5t-174 64.5h-449v47z" />
    <glyph glyph-name="reflexsubset" unicode="&#x2286;" 
d="M891 724v-47h-461q-99 0 -164 -47q-75 -53 -75 -148q0 -98 81 -152q71 -47 173 -47h446v-47h-446q-124 0 -207 59q-93 67 -93 187q0 117 87 183q78 59 198 59h461zM145 158h746v-47h-746v47z" />
    <glyph glyph-name="reflexsuperset" unicode="&#x2287;" 
d="M125 724h461q118 0 198 -61q87 -66 87 -181q0 -119 -94 -186q-84 -60 -207 -60h-445v47h445q102 0 173 47q81 54 81 152q0 94 -74 148q-66 47 -164 47h-461v47zM125 158h750v-47h-750v47z" />
    <glyph glyph-name="uni2299" unicode="&#x2299;" 
d="M623 405q0 -125 -121 -125q-125 0 -125 125q0 121 121 121q125 0 125 -121zM500 12q-160 0 -275.5 115.5t-115.5 275.5q0 161 115 276.5t276 115.5t276.5 -115.5t115.5 -276.5q0 -162 -115 -276.5t-277 -114.5zM500 747q-141 0 -243 -101t-102 -243q0 -140 102 -241.5
t243 -101.5q142 0 244 101t102 242t-102 242.5t-244 101.5z" />
    <glyph glyph-name="perpendicular" unicode="&#x22a5;" 
d="M477 775h46v-621h348v-47h-746v47h352v621z" />
    <glyph glyph-name="uni2312" unicode="&#x2312;" 
d="M503 820q187 0 321 -158l-14 -14q-153 132 -307 132q-165 0 -313 -132l-14 14q141 158 327 158z" />
    <glyph glyph-name="uni2460" unicode="&#x2460;" 
d="M500 5q-187 0 -313.5 127t-126.5 313q0 181 124 310q127 133 316 133q185 0 314 -130t129 -313q0 -181 -125 -309q-128 -131 -318 -131zM500 31q170 0 289 114q124 119 124 300q0 176 -120 296t-293 120q-169 0 -290 -119q-123 -122 -123 -297q0 -169 121 -291.5
t292 -122.5zM624 148h-205v10q50 3 64 14q18 13 18 54v414q0 40 -33 40q-20 0 -55 -13v9l123 82q6 -1 6 -6v-538q0 -34 15 -44t67 -13v-9z" />
    <glyph glyph-name="uni2461" unicode="&#x2461;" 
d="M500 5q-186 0 -313 127t-127 313q0 185 127.5 314t312.5 129q184 0 313.5 -129.5t129.5 -313.5q0 -185 -128.5 -312.5t-314.5 -127.5zM500 31q175 0 294 119t119 295q0 174 -119.5 295t-293.5 121q-172 0 -292.5 -122t-120.5 -294q0 -170 121.5 -292t291.5 -122zM712 253
l-47 -96h-326v15q23 58 58 100q20 24 68 66.5t75 75.5q85 106 85 169q0 55 -36.5 96t-90.5 41q-70 0 -108 -45q-20 -24 -44 -88l-16 4q35 164 165 164q68 0 120.5 -49t52.5 -116q0 -57 -43 -116q-7 -9 -85 -94q-42 -44 -84 -89q-51 -58 -60 -95h200q42 0 58.5 10.5
t37.5 49.5z" />
    <glyph glyph-name="uni2462" unicode="&#x2462;" 
d="M500 5q-187 0 -313.5 127t-126.5 313q0 181 124 310q127 133 316 133q185 0 314 -130t129 -313q0 -181 -125 -309q-128 -131 -318 -131zM500 31q170 0 289 114q124 119 124 300q0 176 -120 296t-293 120q-169 0 -290 -119q-123 -122 -123 -297q0 -169 121 -291.5
t292 -122.5zM693 302q0 -78 -52.5 -123.5t-132.5 -45.5q-44 0 -92 22q-58 26 -58 64q0 29 35 29q20 0 36 -21.5t32 -42.5q22 -23 56 -23q48 0 85 24q51 33 51 101q0 66 -49 109.5t-116 43.5q-18 0 -35 -3l-1 9q154 59 154 156q0 41 -29 71.5t-70 30.5q-83 0 -137 -104l-10 2
q34 135 157 135q55 0 96 -44q38 -41 38 -90q0 -74 -81 -137q123 -44 123 -163z" />
    <glyph glyph-name="uni2463" unicode="&#x2463;" 
d="M500 5q-187 0 -313.5 127t-126.5 313q0 181 124 310q127 133 316 133q185 0 314 -130t129 -313q0 -181 -125 -309q-128 -131 -318 -131zM500 31q170 0 289 114q124 119 124 300q0 176 -120 296t-293 120q-169 0 -290 -119q-123 -122 -123 -297q0 -169 121 -291.5
t292 -122.5zM541 330v374l-242 -374h242zM541 297h-270l-1 36l271 420h37l1 -421l88 -1v-34h-88v-82q0 -47 8.5 -54t58.5 -7v-17h-162v18q44 0 50.5 5.5t6.5 53.5v83z" />
    <glyph glyph-name="uni2464" unicode="&#x2464;" 
d="M500 5q-187 0 -313.5 127t-126.5 313q0 181 124 310q127 133 316 133q185 0 314 -130t129 -313q0 -181 -125 -309q-128 -131 -318 -131zM500 31q170 0 289 114q124 119 124 300q0 176 -120 296t-293 120q-169 0 -290 -119q-123 -122 -123 -297q0 -169 121 -291.5
t292 -122.5zM675 755l-29 -51q-4 -6 -26 -6h-161l-57 -130q267 -45 267 -210q0 -96 -69 -161.5t-161 -65.5q-37 0 -71 12q-45 14 -45 51q0 13 9 22q16 18 32 18q15 0 34 -16q14 -12 27 -24q32 -21 67 -21q58 0 102 51t44 124q0 92 -94 138q-73 35 -174 35q-17 0 -14 9
q0 1 1 4l92 203h181q24 0 41 22z" />
    <glyph glyph-name="uni2465" unicode="&#x2465;" 
d="M500 5q-187 0 -313.5 127t-126.5 313q0 181 124 310q127 133 316 133q185 0 314 -130t129 -313q0 -181 -125 -309q-128 -131 -318 -131zM500 31q170 0 289 114q124 119 124 300q0 176 -120 296t-293 120q-169 0 -290 -119q-123 -122 -123 -297q0 -169 121 -291.5
t292 -122.5zM688 348q0 -83 -49 -145q-52 -66 -129 -66t-134 73q-61 77 -61 194q0 146 106 254t248 108l2 -10q-114 -25 -191 -87q-86 -71 -108 -175q67 42 139 42q76 0 124 -46q53 -51 53 -142zM654 322q0 99 -52 149q-43 42 -111 42q-42 0 -79 -16.5t-50 -41t-13 -66.5
q0 -84 42 -154q48 -80 124 -75q53 3 96 51t43 111z" />
    <glyph glyph-name="uni2466" unicode="&#x2466;" 
d="M500 5q-187 0 -313.5 127t-126.5 313q0 181 124 310q127 133 316 133q185 0 314 -130t129 -313q0 -181 -125 -309q-128 -131 -318 -131zM500 31q170 0 289 114q124 119 124 300q0 176 -120 296t-293 120q-169 0 -290 -119q-123 -122 -123 -297q0 -169 121 -291.5
t292 -122.5zM684 713l-185 -597h-51l170 574l-187 -2q-42 -1 -58 -11q-19 -11 -47 -59l-12 6q20 52 34 70q11 16 16 31h320v-12z" />
    <glyph glyph-name="uni2467" unicode="&#x2467;" 
d="M500 5q-187 0 -313.5 127t-126.5 313q0 181 124 310q127 133 316 133q185 0 314 -130t129 -313q0 -181 -125 -309q-128 -131 -318 -131zM500 31q170 0 289 114q124 119 124 300q0 176 -120 296t-293 120q-169 0 -290 -119q-123 -122 -123 -297q0 -169 121 -291.5
t292 -122.5zM681 248q0 -63 -47 -99.5t-124 -36.5q-70 0 -122 41.5t-52 104.5q0 48 14 74q12 23 45 47q40 28 81 56q-77 61 -99 89.5t-23 70.5q-1 58 43 98.5t117 41.5q65 1 103 -38q35 -36 36 -90q1 -43 -24 -77q-29 -41 -102 -86q103 -82 113 -93q41 -43 41 -103zM607 610
q0 44 -26 72q-29 30 -80 31q-39 0 -73 -33.5t-34 -72.5q0 -75 111 -147q102 75 102 150zM640 236q0 57 -30 90q-14 16 -114 91q-119 -74 -119 -147q0 -60 45 -99q40 -37 92 -37q51 0 88.5 29.5t37.5 72.5z" />
    <glyph glyph-name="uni2468" unicode="&#x2468;" 
d="M500 5q-186 0 -313 127t-127 313q0 185 127.5 314t312.5 129q184 0 313.5 -129.5t129.5 -313.5q0 -185 -128.5 -312.5t-314.5 -127.5zM500 31q175 0 294 119t119 295q0 174 -119.5 295t-293.5 121q-172 0 -292.5 -122t-120.5 -294q0 -170 121.5 -292t291.5 -122zM366 111
l-3 14q249 67 294 288q-70 -59 -153 -59q-71 0 -118 57q-45 54 -45 126q0 86 45 144q48 63 132 63t141 -68q54 -65 54 -150q0 -22 -2 -33q-23 -165 -95 -254q-84 -103 -250 -128zM386 548q0 -66 36 -112q39 -51 103 -51q65 0 106 33.5t41 96.5q0 70 -40 132q-46 70 -112 70
q-62 0 -100 -55q-34 -49 -34 -114z" />
    <glyph glyph-name="uni2469" unicode="&#x2469;" 
d="M500 5q-187 0 -313.5 127t-126.5 313q0 181 124 310q127 133 316 133q185 0 314 -130t129 -313q0 -181 -125 -309q-128 -131 -318 -131zM500 31q170 0 289 114q124 119 124 300q0 176 -120 296t-293 120q-169 0 -290 -119q-123 -122 -123 -297q0 -169 121 -291.5
t292 -122.5zM816 446q1 -112 -46 -197q-50 -91 -126 -92q-70 -1 -119 82.5t-49 203.5t46 204q49 88 126 88q71 0 121 -91q46 -86 47 -198zM775 438q1 123 -39 200q-38 71 -90 71q-51 0 -88 -70q-40 -78 -40 -205q0 -118 40 -188q36 -64 90 -64q55 0 90.5 70t36.5 186z
M467 147h-205v19q50 3 64 14q18 13 18 54v405q0 40 -33 40q-20 0 -55 -13v9l123 82l5 -1v-1q-1 -1 1 -4v-529q0 -34 15 -44t67 -13v-18z" />
    <glyph glyph-name="uni246A" unicode="&#x246a;" 
d="M500 5q-187 0 -313.5 127t-126.5 313q0 181 124 310q127 133 316 133q185 0 314 -130t129 -313q0 -181 -125 -309q-128 -131 -318 -131zM500 31q170 0 289 114q124 119 124 300q0 176 -120 296t-293 120q-169 0 -290 -119q-123 -122 -123 -297q0 -169 121 -291.5
t292 -122.5zM467 147h-205v19q50 3 64 14q18 13 18 54v405q0 40 -33 40q-20 0 -55 -13v9l123 82q2 0 6 -6v-529q0 -34 15 -44t67 -13v-18zM770 147h-202v19q50 3 64 14q18 13 18 54v405q0 40 -33 40q-20 0 -55 -13v9l120 82q2 0 6 -6v-529q0 -34 15 -44t67 -13v-18z" />
    <glyph glyph-name="uni246B" unicode="&#x246b;" 
d="M499 5q-186 0 -313 127t-127 313q0 185 127.5 314t312.5 129q184 0 313.5 -129.5t129.5 -313.5q0 -185 -128.5 -312.5t-314.5 -127.5zM499 31q175 0 294 119t119 295q0 174 -119.5 295t-293.5 121q-172 0 -292.5 -122t-120.5 -294q0 -170 121.5 -292t291.5 -122zM445 147
h-205v10q47 3 62 12q20 13 20 56v414q0 40 -33 40q-18 0 -55 -13v9l123 82l5 -1q1 3 1 -543q0 -38 23 -49q11 -5 59 -8v-9zM802 242l-34 -92h-301v17q14 60 78 136q55 63 111 126q75 94 75 158q0 53 -36 95t-89 42q-56 0 -88 -39q-18 -22 -37 -74l-14 4q13 60 45 98
q38 43 95 43q80 0 125 -50q40 -45 40 -114q0 -55 -44 -113q-59 -72 -118 -143q-72 -90 -88 -145h186q37 0 52.5 9.5t33.5 44.5z" />
    <glyph glyph-name="uni246C" unicode="&#x246c;" 
d="M500 5q-186 0 -313 127t-127 313q0 185 127.5 314t312.5 129q184 0 313.5 -129.5t129.5 -313.5q0 -185 -128.5 -312.5t-314.5 -127.5zM500 31q175 0 294 119t119 295q0 174 -119.5 295t-293.5 121q-172 0 -292.5 -122t-120.5 -294q0 -170 121.5 -292t291.5 -122zM467 147
h-205v10q47 3 62 12q20 13 20 56v414q0 40 -33 40q-18 0 -55 -13v9l123 82l5 -1q1 3 1 -543q0 -38 23 -49q11 -5 59 -8v-9zM792 318q0 -73 -50 -117.5t-125 -44.5q-42 0 -86 20q-54 25 -54 61q0 15 9.5 26.5t23.5 11.5q19 0 34 -22.5t30 -44.5q21 -23 53 -23q42 0 80 25
q48 31 48 85q0 76 -56 118q-52 39 -133 39l-1 8q78 29 103 47q51 38 51 104q0 56 -29 88t-73 32q-46 0 -78 -26q-25 -22 -51 -71l-9 3q34 127 150 127q51 0 86 -37q37 -40 37 -107q0 -96 -82 -138q54 -19 88 -63.5t34 -100.5z" />
    <glyph glyph-name="uni246D" unicode="&#x246d;" 
d="M500 5q-187 0 -313.5 127t-126.5 313q0 181 124 310q127 133 316 133q185 0 314 -130t129 -313q0 -181 -125 -309q-128 -131 -318 -131zM500 31q170 0 289 114q124 119 124 300q0 176 -120 296t-293 120q-169 0 -290 -119q-123 -122 -123 -297q0 -169 121 -291.5
t292 -122.5zM467 147h-205v10q50 3 64 14q18 13 18 54v414q0 40 -33 40q-20 0 -55 -13v9l123 82l5 -1v-1q-1 -1 1 -4v-538q0 -34 15 -44t67 -13v-9zM793 307h-83v-144h-41v144h-250v39l255 391h36v-391h83v-39zM670 346v340l-221 -340h221z" />
    <glyph glyph-name="uni246E" unicode="&#x246e;" 
d="M500 5q-187 0 -313.5 127t-126.5 313q0 181 124 310q127 133 316 133q185 0 314 -130t129 -313q0 -181 -125 -309q-128 -131 -318 -131zM500 31q170 0 289 114q124 119 124 300q0 176 -120 296t-293 120q-169 0 -290 -119q-123 -122 -123 -297q0 -169 121 -291.5
t292 -122.5zM452 147h-205v10q50 3 67.5 15t17.5 53v414q0 40 -33 40q-20 0 -55 -13v9l120 82l5 -1v-1q-1 -1 1 -4v-538q0 -34 15 -44t67 -13v-9zM769 745l-24 -52q-3 -6 -24 -6h-155l-52 -128q104 -8 177 -56q84 -56 84 -143q0 -91 -69 -154.5t-159 -63.5q-33 0 -65 11
q-38 13 -38 43q0 12 7 22q19 27 36 27q13 0 28 -18q19 -26 20 -26q24 -19 55 -19q53 0 100.5 47t47.5 102q0 99 -91 148q-69 37 -165 37q-16 0 -13 9q0 1 1 4l86 199h171q21 0 38 21z" />
    <glyph glyph-name="uni2474" unicode="&#x2474;" 
d="M977 411q0 -224 -133 -446l-16 8q102 228 102 438q0 215 -102 437l16 8q133 -202 133 -445zM176 -27l-16 -8q-137 220 -137 446q0 243 137 445l16 -8q-106 -220 -106 -437q0 -210 106 -438zM418 101v33q27 1 68 9q14 8 14 43v414q0 36 -24 36q-17 0 -55 -14v30l114 74
q15 -4 15 -14v-538q0 -22 6 -29t28 -9q4 0 48 -3v-32h-214z" />
    <glyph glyph-name="uni2475" unicode="&#x2475;" 
d="M977 411q0 -224 -133 -446l-16 8q102 228 102 438q0 215 -102 437l16 8q133 -202 133 -445zM176 -27l-16 -8q-137 220 -137 446q0 243 137 445l16 -8q-106 -219 -106 -437q0 -211 106 -438zM667 114h-328v16q33 70 91.5 133t117.5 126q67 83 67 151q0 51 -35.5 86
t-87.5 35q-100 0 -144 -118l-22 5q17 64 59 105q46 45 107 45q69 0 117.5 -47.5t48.5 -117.5q0 -78 -109 -189q-66 -67 -86 -90q-46 -52 -73 -100h194q43 0 64 12.5t42 50.5l15 -5z" />
    <glyph glyph-name="uni2476" unicode="&#x2476;" 
d="M977 411q0 -224 -133 -446l-16 8q102 228 102 438q0 215 -102 437l16 8q133 -202 133 -445zM176 -27l-16 -8q-137 220 -137 446q0 243 137 445l16 -8q-106 -219 -106 -437q0 -211 106 -438zM508 89q-45 0 -94 22q-60 27 -60 68q0 17 11 30.5t28 13.5q23 0 57.5 -47.5
t75.5 -47.5q46 0 79 24q45 34 45 106q0 64 -45 101t-111 37q-23 0 -45 -4l3 19q83 31 106 48q51 37 51 102q0 46 -29.5 72.5t-72.5 26.5q-81 0 -135 -105l-16 3q37 145 164 145q58 0 96.5 -38.5t38.5 -96.5q0 -79 -78 -142q120 -45 120 -161q0 -80 -54 -128t-135 -48z" />
    <glyph glyph-name="uni2477" unicode="&#x2477;" 
d="M977 411q0 -224 -133 -446l-16 8q102 228 102 438q0 215 -102 437l16 8q133 -202 133 -445zM176 -27l-16 -8q-137 220 -137 446q0 243 137 445l16 -8q-106 -220 -106 -437q0 -210 106 -438zM583 254v-79q0 -36 1 -40q4 -17 27 -18h16q14 1 23 1v-24h-166v25q9 0 21 -1h14
q11 1 16.5 5.5t5.5 50.5v80h-277l3 31l272 432h42l1 -426h89v-37h-88zM541 655l-236 -364h236v364z" />
    <glyph glyph-name="uni2478" unicode="&#x2478;" 
d="M977 411q0 -224 -133 -446l-16 8q102 228 102 438q0 215 -102 437l16 8q133 -202 133 -445zM176 -27l-16 -8q-137 220 -137 446q0 243 137 445l16 -8q-106 -220 -106 -437q0 -210 106 -438zM655 668q-4 -7 -29 -7h-162l-51 -130q108 -3 181 -61q82 -64 82 -170
q0 -93 -69 -152q-64 -56 -156 -56q-43 0 -84.5 14t-41.5 45q0 12 7 24q13 22 31 22t45 -24l11 -9q38 -34 78 -34q56 0 100 61q41 57 41 117q0 84 -80 141q-75 53 -167 47q-4 0 -17 -3.5t-17 -2.5q-6 1 -3 8l93 203h183q23 0 41 23l8 -8z" />
    <glyph glyph-name="uni2479" unicode="&#x2479;" 
d="M977 411q0 -224 -133 -446l-16 8q102 228 102 438q0 215 -102 437l16 8q133 -202 133 -445zM176 -27l-16 -8q-137 220 -137 446q0 243 137 445l16 -8q-106 -220 -106 -437q0 -210 106 -438zM510 104q-74 0 -129 70q-59 75 -59 190q0 130 86.5 231t210.5 121l2 -7
q-190 -65 -234 -260q67 40 143 40q55 0 103.5 -56t48.5 -125q0 -81 -48 -141q-50 -63 -124 -63zM506 454q-38 0 -75.5 -16t-50.5 -40.5t-13 -61.5q0 -74 40 -136q45 -69 108 -65q55 3 89 47q33 41 33 100q0 68 -31 117q-36 55 -100 55z" />
    <glyph glyph-name="uni247A" unicode="&#x247a;" 
d="M977 411q0 -224 -133 -446l-16 8q102 228 102 438q0 215 -102 437l16 8q133 -202 133 -445zM176 -27l-16 -8q-137 220 -137 446q0 243 137 445l16 -8q-106 -220 -106 -437q0 -210 106 -438zM494 83h-37l170 549l-196 1q-39 0 -70 -30l-34 -34q16 40 42 110h310z" />
    <glyph glyph-name="uni247B" unicode="&#x247b;" 
d="M977 411q0 -224 -133 -446l-16 8q102 228 102 438q0 215 -102 437l16 8q133 -202 133 -445zM176 -27l-16 -8q-137 220 -137 446q0 243 137 445l16 -8q-106 -220 -106 -437q0 -210 106 -438zM507 66q-71 0 -122.5 43.5t-51.5 108.5q0 45 33 88q32 40 107 95q-75 59 -98 90
t-24 73q-1 59 44.5 98.5t118.5 39.5q65 0 109 -42q40 -38 40 -84q0 -80 -136 -166q84 -67 110 -98q39 -46 39 -98q0 -61 -46 -103q-48 -45 -123 -45zM501 676q-48 0 -86 -32.5t-38 -70.5q0 -61 131 -146q33 23 92 73q37 36 37 70q0 43 -35 73q-39 33 -101 33zM490 382
q-42 -27 -81 -71q-43 -50 -43 -81q0 -57 49 -97q44 -35 96 -35q48 0 85.5 35t37.5 78q0 44 -30 77q-23 25 -114 94z" />
    <glyph glyph-name="uni247C" unicode="&#x247c;" 
d="M977 411q0 -224 -133 -446l-16 8q102 228 102 438q0 215 -102 437l16 8q133 -202 133 -445zM176 -27l-16 -8q-137 220 -137 446q0 243 137 445l16 -8q-106 -219 -106 -437q0 -211 106 -438zM363 67l-4 21q127 35 196 93q78 65 102 174q-65 -50 -162 -50q-72 0 -117 57
q-40 52 -40 126q0 88 45 150q50 70 135 70q88 0 145 -71q52 -67 52 -157q0 -13 -1 -27q-19 -174 -95 -263q-82 -97 -256 -123zM512 683q-54 0 -95 -57q-36 -51 -36 -103q0 -192 141 -192q64 0 108 46q41 42 41 98q0 68 -37 130q-45 78 -122 78z" />
    <glyph glyph-name="uni247D" unicode="&#x247d;" 
d="M977 411q0 -224 -133 -446l-16 8q102 228 102 438q0 215 -102 437l16 8q133 -202 133 -445zM176 -27l-16 -8q-137 220 -137 446q0 243 137 445l16 -8q-106 -220 -106 -437q0 -210 106 -438zM644 114q-72 -1 -121.5 84t-49.5 205q0 121 46 206q50 90 129 90q73 0 123 -93
q47 -87 48 -200t-46 -199q-51 -92 -129 -93zM265 104v16q51 3 66.5 14t15.5 51v414q0 36 -30 36q-19 0 -58 -14v16l119 84l10 -2v-4l-2 -2q1 0 3 1v-541q0 -32 14.5 -41.5t67.5 -12.5v-15h-206zM646 675q-49 0 -86 -73q-41 -81 -41 -208q0 -117 41 -189q37 -65 88 -65
q53 0 89.5 71.5t37.5 186.5q1 123 -41 203q-38 74 -88 74z" />
    <glyph glyph-name="uni247E" unicode="&#x247e;" 
d="M977 411q0 -224 -133 -446l-16 8q102 228 102 438q0 215 -102 437l16 8q133 -202 133 -445zM176 -27l-16 -8q-137 220 -137 446q0 243 137 445l16 -8q-106 -220 -106 -437q0 -210 106 -438zM568 104v16q51 3 66.5 14t15.5 51v414q0 36 -30 36q-19 0 -58 -14v16l119 84
l10 -2v-4l-2 -2q1 0 3 1v-541q0 -32 14.5 -41.5t67.5 -12.5v-15h-206zM265 104v16q51 3 66.5 14t15.5 51v414q0 36 -30 36q-19 0 -58 -14v16l119 84l10 -2v-4l-2 -2q1 0 3 1v-541q0 -32 14.5 -41.5t67.5 -12.5v-15h-206z" />
    <glyph glyph-name="uni247F" unicode="&#x247f;" 
d="M977 411q0 -224 -133 -446l-16 8q102 228 102 438q0 215 -102 437l16 8q133 -202 133 -445zM176 -27l-16 -8q-137 220 -137 446q0 243 137 445l16 -8q-106 -219 -106 -437q0 -211 106 -438zM792 113h-294v18q26 64 83 137q52 61 103 123q26 32 46 75q23 50 23 84
q0 48 -30 89q-34 48 -89 48q-36 0 -77 -41q-37 -37 -52 -79l-20 6q12 56 57 101.5t87 45.5q66 0 117 -51t51 -117q0 -61 -44 -118q-55 -69 -110 -139q-82 -109 -84 -140h180q37 0 51 9.5t33 44.5l15 -5zM265 104v16q49 3 63 12q19 12 19 53v414q0 37 -30 37q-17 0 -58 -15
v16l119 84l10 -2v-261l1 -285q0 -27 10 -37.5t35 -13.5q18 -2 37 -3v-15h-206z" />
    <glyph glyph-name="uni2480" unicode="&#x2480;" 
d="M977 411q0 -224 -133 -446l-16 8q102 228 102 438q0 215 -102 437l16 8q133 -202 133 -445zM176 -27l-16 -8q-137 220 -137 446q0 243 137 445l16 -8q-106 -219 -106 -437q0 -211 106 -438zM617 113q-42 0 -88 20q-56 26 -56 64q0 16 10.5 28.5t26.5 12.5q22 0 50 -46.5
t67 -46.5q43 0 80 24q48 32 48 89q0 73 -51 114q-45 36 -118 38q-7 -1 -23 -1l-2 13l54 18q32 12 50 26q48 36 48 123q0 40 -24.5 71t-62.5 31q-83 0 -136 -101l-15 5q16 65 56.5 100.5t100.5 31.5q64 -5 98 -51q29 -39 29 -99q0 -79 -76 -137q52 -21 82.5 -63.5t30.5 -98.5
q0 -75 -51.5 -120t-127.5 -45zM265 104v16q49 3 63 12q19 12 19 53v414q0 37 -30 37q-17 0 -58 -15v16l119 84l10 -2v-261l1 -285q0 -27 10 -37.5t35 -13.5q18 -2 37 -3v-15h-206z" />
    <glyph glyph-name="uni2481" unicode="&#x2481;" 
d="M977 411q0 -224 -133 -446l-16 8q102 228 102 438q0 215 -102 437l16 8q133 -202 133 -445zM176 -27l-16 -8q-137 220 -137 446q0 243 137 445l16 -8q-106 -220 -106 -437q0 -210 106 -438zM714 264v-144h-42v144h-256v37l256 400h42v-397h83v-40h-83zM265 104v16
q51 3 66.5 14t15.5 51v414q0 36 -30 36q-19 0 -58 -14v16l119 84l10 -2v-4l-2 -2q1 0 3 1v-541q0 -32 14.5 -41.5t67.5 -12.5v-15h-206zM673 649l-221 -345h221v345z" />
    <glyph glyph-name="uni2482" unicode="&#x2482;" 
d="M977 411q0 -224 -133 -446l-16 8q102 228 102 438q0 215 -102 437l16 8q133 -202 133 -445zM176 -27l-16 -8q-137 220 -137 446q0 243 137 445l16 -8q-106 -219 -106 -437q0 -211 106 -438zM792 684q-12 -34 -41 -34h-153l-52 -128q102 -7 170 -60q78 -61 78 -163
q0 -88 -68 -147q-64 -55 -154 -55q-41 0 -73 11q-44 16 -44 48q0 15 15.5 33.5t31.5 18.5q15 0 37 -38t58 -38q58 0 106 47q53 50 53 121q0 87 -74 138q-64 44 -149 44q-5 0 -13.5 -1t-13.5 -1q-13 0 -13 6q0 2 88 206h173q21 0 38 22l8 -8q-1 -2 -8 -22zM265 104v24
q26 1 63 8q19 9 19 49v414q0 37 -30 37q-17 0 -58 -15v16l119 84l10 -2v-261l1 -285q0 -27 10 -35.5t35 -8.5q11 0 37 -1v-24h-206z" />
    <glyph glyph-name="uni249C" unicode="&#x249c;" 
d="M160 806l16 -8q-106 -220 -106 -437q0 -210 106 -438l-16 -8q-137 220 -137 446q0 243 137 445zM844 806q133 -202 133 -445q0 -224 -133 -446l-16 8q102 228 102 438q0 215 -102 437zM516 617q156 0 156 -109v-296q0 -60 45 -60q20 0 47 30l17 -20q-50 -52 -93 -52
q-47 0 -54 69q-41 -29 -97 -48q-59 -20 -108 -20q-43 0 -83 25q-50 31 -50 84q0 94 128 152q86 39 208 55v81q0 40 -38 62q-32 18 -78 18q-94 0 -121 -27t-39 -68q-9 -29 -22 -29q-24 0 -29 11q-4 7 -4 23q0 62 80 94q61 25 135 25zM450 144q37 0 96 24q52 21 86 46v182
q-108 -12 -181 -41q-113 -46 -113 -125q0 -43 36 -66q31 -20 76 -20z" />
    <glyph glyph-name="uni249D" unicode="&#x249d;" 
d="M160 806l16 -8q-106 -220 -106 -437q0 -210 106 -438l-16 -8q-137 220 -137 446q0 243 137 445zM844 806q133 -202 133 -445q0 -224 -133 -446l-16 8q102 228 102 438q0 215 -102 437zM374 767v-325q73 87 169 87q111 0 177 -81q61 -76 61 -189q0 -105 -68 -180
q-71 -78 -174 -78q-44 0 -97.5 21.5t-62.5 21.5q-11 0 -15 -17q-7 -22 -10 -26h-17v641q0 51 -55 51h-20q-14 -1 -21 -1v28q75 9 133 47zM374 178q0 -69 53 -110q49 -38 116 -38q71 0 129 57q66 65 66 172q0 90 -54 163q-61 82 -150 82q-45 0 -92 -35q-39 -30 -68 -75v-216z
" />
    <glyph glyph-name="uni249E" unicode="&#x249e;" 
d="M160 806l16 -8q-106 -220 -106 -437q0 -210 106 -438l-16 -8q-137 220 -137 446q0 243 137 445zM844 806q133 -202 133 -445q0 -224 -133 -446l-16 8q102 228 102 438q0 215 -102 437zM541 614q55 0 102 -24q58 -29 58 -79q0 -45 -41 -45q-48 0 -48 41q0 6 1.5 16t1.5 15
q0 24 -32 40q-26 13 -52 13q-96 0 -157 -73q-58 -68 -58 -161t66 -163q60 -65 125 -65q128 0 203 119l20 -12q-88 -135 -223 -135q-85 0 -156 66q-78 73 -78 176q0 117 75.5 194t192.5 77z" />
    <glyph glyph-name="uni249F" unicode="&#x249f;" 
d="M160 806l16 -8q-106 -220 -106 -437q0 -210 106 -438l-16 -8q-137 220 -137 446q0 243 137 445zM844 806q133 -202 133 -445q0 -224 -133 -446l-16 8q102 228 102 438q0 215 -102 437zM698 767v-651q0 -43 21 -56q12 -7 62 -11v-28q-35 0 -119 -12v97q-34 -47 -91.5 -76
t-117.5 -29q-103 0 -169 79q-61 74 -61 179q0 110 61 187q66 83 173 83q53 0 113 -27.5t92 -64.5v208q0 35 -25 43q-11 4 -56 4v28q33 3 61 17.5t56 29.5zM662 158v230q-35 56 -97 88q-54 28 -107 28q-71 0 -132 -68q-66 -74 -66 -177q0 -96 64 -168q59 -67 124 -66
q57 1 115 33q67 37 99 100z" />
    <glyph glyph-name="uni24A0" unicode="&#x24a0;" 
d="M160 806l16 -8q-106 -220 -106 -437q0 -210 106 -438l-16 -8q-137 220 -137 446q0 243 137 445zM844 806q133 -202 133 -445q0 -224 -133 -446l-16 8q102 228 102 438q0 215 -102 437zM508 608q98 0 160 -80q51 -66 59 -153h-420l-6 -51q0 -90 68 -147q60 -52 139 -52
q103 0 200 103l22 -16q-55 -57 -99 -83q-57 -33 -123 -33q-110 -1 -180 60.5t-70 167.5q0 111 69 195q73 89 181 89zM312 406h365q0 61 -45 112q-50 58 -124 58q-73 0 -128 -50.5t-68 -119.5z" />
    <glyph glyph-name="uni24A1" unicode="&#x24a1;" 
d="M160 806l16 -8q-106 -220 -106 -437q0 -210 106 -438l-16 -8q-137 220 -137 446q0 243 137 445zM844 806q133 -202 133 -445q0 -224 -133 -446l-16 8q102 228 102 438q0 215 -102 437zM603 736q32 0 56 -13q30 -17 30 -46q0 -31 -42 -31q-16 0 -41.5 19.5t-36.5 19.5
q-65 0 -65 -199h126v-31h-126v-399q0 -26 27 -34q17 -5 60 -5v-27h-207v27q45 0 57 3q24 8 24 36v399h-110v31h110q0 250 138 250z" />
    <glyph glyph-name="uni24A2" unicode="&#x24a2;" 
d="M160 806l16 -8q-106 -220 -106 -437q0 -210 106 -438l-16 -8q-137 220 -137 446q0 243 137 445zM844 806q133 -202 133 -445q0 -224 -133 -446l-16 8q102 228 102 438q0 215 -102 437zM484 685q94 0 151 -49q36 49 99 49q56 0 56 -41q0 -26 -40 -31q-19 0 -34.5 12.5
t-27.5 12.5q-17 0 -33 -20q36 -43 36 -105q0 -74 -72 -116q-60 -36 -139 -36q-72 0 -119 23q-17 -6 -39 -27q-25 -23 -25 -40q0 -35 116 -43q207 -14 217 -16q116 -19 116 -83t-97 -105q-80 -33 -165 -33q-82 0 -156 25q-101 34 -101 100q0 54 78 92q-19 6 -35 22t-16 34
q0 53 78 92q-66 45 -66 115q0 85 70 130q59 38 148 38zM350 243q-81 -34 -81 -79q0 -51 86 -75q57 -16 129 -16q57 0 131 23q92 29 91 71q0 23 -25 40q-19 12 -154 21q-159 12 -177 15zM480 395q60 0 112 29q60 34 60 86q0 68 -49 105q-45 34 -119 34q-71 0 -121 -31
q-58 -37 -58 -101q0 -57 60 -92q51 -30 115 -30z" />
    <glyph glyph-name="uni24A3" unicode="&#x24a3;" 
d="M160 806l16 -8q-106 -220 -106 -437q0 -210 106 -438l-16 -8q-137 220 -137 446q0 243 137 445zM844 806q133 -202 133 -445q0 -224 -133 -446l-16 8q102 228 102 438q0 215 -102 437zM334 755v-338q105 100 191 100q84 0 141 -47q61 -49 61 -129v-257q0 -35 26 -47
q16 -8 57 -9v-23h-204v23q85 2 85 56v257q0 74 -51 111q-43 31 -114 31q-96 0 -192 -100v-288q0 -41 23 -56q17 -11 58 -11v-23h-202v23q41 0 60 12q25 15 25 55v526q0 41 -15 50q-9 6 -54 6h-27v28q49 7 132 50z" />
    <glyph glyph-name="uni24A4" unicode="&#x24a4;" 
d="M160 806l16 -8q-106 -220 -106 -437q0 -210 106 -438l-16 -8q-137 220 -137 446q0 243 137 445zM844 806q133 -202 133 -445q0 -224 -133 -446l-16 8q102 228 102 438q0 215 -102 437zM512 734q24 0 42.5 -18.5t18.5 -42.5q0 -23 -19 -42t-42 -19q-24 0 -42.5 18.5
t-18.5 42.5q0 25 18 43t43 18zM545 533v-422q0 -45 19 -57q13 -9 63 -9v-28h-201v28q48 0 62 9q18 12 18 57v285q0 42 -20 51q-5 2 -61 5v26q37 4 64 18q16 8 56 37z" />
    <glyph glyph-name="uni24A5" unicode="&#x24a5;" 
d="M160 806l16 -8q-106 -220 -106 -437q0 -210 106 -438l-16 -8q-137 220 -137 446q0 243 137 445zM844 806q133 -202 133 -445q0 -224 -133 -446l-16 8q102 228 102 438q0 215 -102 437zM512 781q24 0 42.5 -18.5t18.5 -42.5t-18.5 -42.5t-42.5 -18.5q-25 0 -43 18t-18 43
t18 43t43 18zM547 576v-356q0 -130 -17 -183q-33 -103 -137 -103q-30 0 -46 16t-16 37q0 40 38 40q33 0 46 -12q18 -16 22 -18q8 -3 15 -3q58 0 58 222v223q0 39 -26 49q-10 4 -63 7v26q35 3 65.5 20t60.5 35z" />
    <glyph glyph-name="uni24A6" unicode="&#x24a6;" 
d="M160 806l16 -8q-106 -220 -106 -437q0 -210 106 -438l-16 -8q-137 220 -137 446q0 243 137 445zM844 806q133 -202 133 -445q0 -224 -133 -446l-16 8q102 228 102 438q0 215 -102 437zM355 751v-494l190 142q12 8 25 18.5t13 21.5q0 23 -67 27v31h257v-31
q-89 -13 -161 -55q-35 -21 -136 -101l160 -225q31 -31 58 -43q39 -16 106 -16v-25h-256v25q60 0 60 32q0 12 -8 25q-57 86 -149 205q-30 -24 -92 -71v-122q0 -40 18 -53q13 -9 53 -9v-32h-192v32q48 0 60 7q21 11 21 55v522q0 42 -16 51q-9 5 -55 5h-30v28q52 7 141 50z" />
    <glyph glyph-name="uni24A7" unicode="&#x24a7;" 
d="M160 806l16 -8q-106 -220 -106 -437q0 -210 106 -438l-16 -8q-137 220 -137 446q0 243 137 445zM844 806q133 -202 133 -445q0 -224 -133 -446l-16 8q102 228 102 438q0 215 -102 437zM543 736v-656q0 -40 21 -51q14 -8 58 -8v-31h-196v31q45 0 58 7q20 11 20 52v526
q0 45 -18 53q-5 2 -62 2v28q34 5 62 18.5t57 28.5z" />
    <glyph glyph-name="uni24A8" unicode="&#x24a8;" 
d="M160 806l16 -8q-106 -220 -106 -437q0 -210 106 -438l-16 -8q-137 220 -137 446q0 243 137 445zM844 806q133 -202 133 -445q0 -224 -133 -446l-16 8q102 228 102 438q0 215 -102 437zM283 626v-94q38 40 58 54q34 25 72 25q37 0 64 -23q19 -16 46 -58q35 37 57 51
q33 21 72 21q63 0 97 -47q30 -42 30 -105v-255q0 -40 18 -51q11 -6 56 -10v-31h-186v31q43 3 56 11q20 12 20 50v237q0 80 -27 110q-24 26 -82 26q-43 0 -96 -64q2 -10 -1 -27q-4 -20 -4 -27v-255q0 -39 18 -50q11 -7 55 -11v-31h-185v31q43 3 55 11q18 11 18 50v237
q0 145 -94 145q-29 0 -66 -28q-31 -23 -51 -51v-303q0 -39 16 -50q10 -7 55 -11v-31h-183v31q45 0 58 8q18 12 18 53v320q0 23 -12 28q-4 1 -33 1v32q25 1 43.5 17t37.5 33z" />
    <glyph glyph-name="uni24A9" unicode="&#x24a9;" 
d="M160 806l16 -8q-106 -220 -106 -437q0 -210 106 -438l-16 -8q-137 220 -137 446q0 243 137 445zM844 806q133 -202 133 -445q0 -224 -133 -446l-16 8q102 228 102 438q0 215 -102 437zM357 626v-98q48 42 84 60q46 24 99 24q60 0 115.5 -54t55.5 -122v-239q0 -43 20 -54
q9 -4 63 -9v-31h-209v31q51 4 63 9q23 12 23 54v234q0 62 -42.5 104.5t-107.5 42.5q-71 0 -164 -91v-292q0 -45 20 -55q12 -6 65 -6v-31h-210v31q52 2 63 7q23 11 23 54v307q0 33 -11 43q-5 4 -29 2q-33 -4 -31 -4v28q34 1 59 18.5t51 36.5z" />
    <glyph glyph-name="uni24AA" unicode="&#x24aa;" 
d="M160 806l16 -8q-106 -220 -106 -437q0 -210 106 -438l-16 -8q-137 220 -137 446q0 243 137 445zM844 806q133 -202 133 -445q0 -224 -133 -446l-16 8q102 228 102 438q0 215 -102 437zM504 626q116 0 191 -82.5t75 -198.5q0 -102 -79 -174t-183 -72q-118 0 -192 67
q-78 70 -78 187q0 116 75 194.5t191 78.5zM508 127q89 0 155.5 66t66.5 152q0 107 -56 176q-62 77 -170 77q-104 0 -167 -74q-59 -69 -59 -171q0 -96 65 -161t165 -65z" />
    <glyph glyph-name="uni24AB" unicode="&#x24ab;" 
d="M160 806l16 -8q-106 -220 -106 -437q0 -210 106 -438l-16 -8q-137 220 -137 446q0 243 137 445zM844 806q133 -202 133 -445q0 -224 -133 -446l-16 8q102 228 102 438q0 215 -102 437zM361 681v-103q71 79 174 79q111 0 180.5 -73.5t69.5 -183.5q0 -101 -64 -178
q-70 -83 -178 -83q-112 0 -182 93v-111q0 -38 27 -46q9 -3 61 -3v-32h-212v32q85 0 85 49v438q0 41 -49 41h-19q-12 -1 -18 -1v27q37 5 66 21t59 34zM361 278q43 -60 81.5 -84t96.5 -26q76 -3 140 62q67 70 67 170q0 95 -59 160q-62 68 -160 68t-166 -88v-262z" />
    <glyph glyph-name="uni24AC" unicode="&#x24ac;" 
d="M160 806l16 -8q-106 -220 -106 -437q0 -210 106 -438l-16 -8q-137 220 -137 446q0 243 137 445zM844 806q133 -202 133 -445q0 -224 -133 -446l-16 8q102 228 102 438q0 215 -102 437zM699 681v-573q0 -29 33 -37q12 -4 57 -5v-26h-216v26q47 0 62 6q22 8 22 36v114
q-34 -37 -98 -59q-58 -21 -114 -21q-108 0 -175 72t-67 181q0 121 76.5 197.5t197.5 76.5q34 0 84 -14q47 -14 78 -32zM657 258v320q-37 28 -91 45q-50 16 -91 16q-90 0 -157 -65q-72 -71 -72 -182q0 -97 64 -163q59 -61 134 -61q56 0 111 21q65 24 102 69z" />
    <glyph glyph-name="uni24AD" unicode="&#x24ad;" 
d="M977 361q0 -224 -133 -446l-16 8q102 228 102 438q0 215 -102 437l16 8q133 -202 133 -445zM176 -77l-16 -8q-137 220 -137 446q0 243 137 445l16 -8q-106 -220 -106 -437q0 -210 106 -438zM645 537q-11 0 -29.5 8.5t-31.5 8.5q-32 0 -80 -58q-44 -53 -44 -75v-217
q0 -42 32 -54q16 -6 56 -6v-29h-210v29q40 1 58 11q23 13 23 49v298q0 39 -33 39q-9 0 -20.5 -3t-12.5 -3v27q44 6 107 43v-132q69 134 182 134q49 0 49 -42q0 -28 -46 -28z" />
    <glyph glyph-name="uni24AE" unicode="&#x24ae;" 
d="M977 361q0 -225 -133 -446l-16 8q102 228 102 438q0 214 -102 437l16 8q133 -203 133 -445zM176 -77l-16 -8q-137 219 -137 446q0 242 137 445l16 -8q-106 -220 -106 -437q0 -210 106 -438zM516 94q-26 0 -78 10.5t-79 10.5q-20 0 -57 -27l-41 181l25 13q29 -72 91 -114
t139 -42q49 0 98 26q57 30 57 75q0 51 -103 93q-95 34 -191 69q-103 45 -103 106q0 65 62 103q51 31 121 31q24 0 70.5 -13t70.5 -13q11 0 61 25l34 -156l-24 -10q-34 62 -88 99q-57 39 -124 39q-48 0 -91 -25q-50 -28 -50 -73q0 -47 102 -87q95 -35 190 -69
q102 -47 102 -110q0 -67 -66 -107q-57 -35 -128 -35z" />
    <glyph glyph-name="uni24AF" unicode="&#x24af;" 
d="M160 806l16 -8q-106 -220 -106 -437q0 -210 106 -438l-16 -8q-137 220 -137 446q0 243 137 445zM844 806q133 -202 133 -445q0 -224 -133 -446l-16 8q102 228 102 438q0 215 -102 437zM449 705h28v-172h168v-32h-168v-337q0 -48 10 -71q15 -34 56 -34q40 0 90 65l19 -17
q-45 -86 -125 -86q-41 0 -65 42q-22 38 -22 95v343h-82v20q44 11 64 39q15 22 19.5 63.5t7.5 81.5z" />
    <glyph glyph-name="uni24B0" unicode="&#x24b0;" 
d="M160 806l16 -8q-106 -220 -106 -437q0 -210 106 -438l-16 -8q-137 220 -137 446q0 243 137 445zM844 806q133 -202 133 -445q0 -224 -133 -446l-16 8q102 228 102 438q0 215 -102 437zM688 604v-432q0 -38 78 -43v-22l-118 -16v87q-34 -34 -80 -57q-51 -26 -95 -26
q-78 0 -126.5 44.5t-48.5 119.5v216q0 36 -17 45q-7 3 -51 6v27q31 5 56 18.5t51 28.5v-341q0 -129 145 -129q39 0 91 28q47 26 75 58v260q0 32 -19 39q-8 3 -47 3v28q35 10 106 58z" />
    <glyph glyph-name="uni24B1" unicode="&#x24b1;" 
d="M160 806l16 -8q-106 -220 -106 -437q0 -210 106 -438l-16 -8q-137 220 -137 446q0 243 137 445zM844 806q133 -202 133 -445q0 -224 -133 -446l-16 8q102 228 102 438q0 215 -102 437zM208 591h199v-28q-34 0 -45 -2q-28 -6 -28 -27q0 -12 87 -186l98 -194l167 371
q0 32 -71 38v28h183v-28q-47 -8 -64 -19q-21 -13 -37 -51l-175 -398h-19l-207 417q-21 41 -88 51v28z" />
    <glyph glyph-name="uni24B2" unicode="&#x24b2;" 
d="M160 806l16 -8q-106 -220 -106 -437q0 -210 106 -438l-16 -8q-137 220 -137 446q0 243 137 445zM844 806q133 -202 133 -445q0 -224 -133 -446l-16 8q102 228 102 438q0 215 -102 437zM117 589h177v-27q-59 0 -58 -47l132 -364l102 302q-20 49 -35 70q-25 30 -66 39v27
h186v-27q-70 0 -69 -35l144 -376l130 363q0 36 -73 48v27h176v-27q-44 -5 -65 -31q-14 -17 -33 -68q-23 -60 -131 -370h-25l-126 326l-116 -326h-19l-146 392q-25 64 -85 77v27z" />
    <glyph glyph-name="uni24B3" unicode="&#x24b3;" 
d="M546 100v21q78 7 78 36q0 13 -23 40l-44 48q-30 33 -79 85q-26 -29 -137 -170q0 -38 77 -38v-22h-212v21q42 0 74 18q36 20 94 94q44 56 87 111q-51 60 -152 174q-35 38 -91 46v22h199v-21q-63 -3 -63 -31q0 -18 135 -167q119 139 119 167q0 11 -39 24q-12 4 -29 6v22
h218v-25q-57 0 -81 -15q-7 -4 -55 -52q-27 -27 -61 -70q-45 -56 -58 -71q47 -51 148 -163q31 -35 47 -47q27 -21 57 -21v-22h-209zM160 806l16 -8q-106 -220 -106 -437q0 -210 106 -438l-16 -8q-137 220 -137 446q0 243 137 445zM844 806q133 -202 133 -445
q0 -224 -133 -446l-16 8q102 228 102 438q0 215 -102 437z" />
    <glyph glyph-name="uni24B4" unicode="&#x24b4;" 
d="M160 806l16 -8q-106 -220 -106 -437q0 -210 106 -438l-16 -8q-137 220 -137 446q0 243 137 445zM844 806q133 -202 133 -445q0 -224 -133 -446l-16 8q102 228 102 438q0 215 -102 437zM186 602h211v-26q-77 -10 -77 -38l177 -360q16 20 169 342q0 25 -31 41
q-24 12 -53 15v26h215v-26q-58 -13 -90 -43l-202 -402q-43 -90 -70 -121q-49 -58 -119 -55q-64 2 -64 44q0 40 55 40q20 0 41 -19t32 -20q32 -2 96 137q-63 128 -193 382q-27 49 -97 57v26z" />
    <glyph glyph-name="uni24B5" unicode="&#x24b5;" 
d="M160 806l16 -8q-106 -220 -106 -437q0 -210 106 -438l-16 -8q-137 220 -137 446q0 243 137 445zM844 806q133 -202 133 -445q0 -224 -133 -446l-16 8q102 228 102 438q0 215 -102 437zM352 607h332v-30l-340 -441h177q89 0 123 30q20 17 71 112l20 -11l-51 -156h-387v24
l346 450h-129q-88 0 -117.5 -17.5t-81.5 -95.5l-26 11z" />
    <glyph glyph-name="uni24D0" unicode="&#x24d0;" 
d="M504 847q193 0 331 -140t138 -333q0 -191 -139 -330t-330 -139q-193 0 -329 138t-136 331q0 196 135 334.5t330 138.5zM504 -66q179 0 309.5 130.5t130.5 309.5q0 183 -128.5 313t-311.5 130t-309.5 -129.5t-126.5 -313.5q0 -181 128 -310.5t308 -129.5zM517 601
q49 1 88 -18q52 -27 52 -81v-275q0 -54 41 -54q18 0 42 27l15 -18q-47 -49 -83 -49q-33 0 -43.5 13t-14.5 51q-105 -72 -183 -72q-46 0 -77.5 37t-31.5 78q0 136 290 175v87q0 37 -29.5 59t-68.5 22q-51 0 -87 -23t-36 -52q0 -19 -11.5 -30.5t-24.5 -11.5q-23 0 -23 27
q0 51 69 82q55 25 116 26zM457 151q65 0 155 66v176q-85 -9 -154 -42q-92 -43 -92 -108q0 -41 27 -66.5t64 -25.5z" />
    <glyph glyph-name="uni24D1" unicode="&#x24d1;" 
d="M504 847q193 0 331 -140t138 -333q0 -191 -139 -330t-330 -139q-193 0 -329 138t-136 331q0 196 135 334.5t330 138.5zM504 -66q179 0 309.5 130.5t130.5 309.5q0 183 -128.5 313t-311.5 130t-309.5 -129.5t-126.5 -313.5q0 -181 128 -310.5t308 -129.5zM414 729v-293
q66 78 140 78q100 0 159 -73q55 -67 55 -169q0 -92 -69 -162.5t-163 -70.5q-27 0 -64 23q-42 25 -53 28q-10 2 -20 -19q-14 -31 -15 -32h-15v577q0 46 -49 46h-18q-12 -1 -19 -1v25q78 8 131 43zM414 199q0 -51 36.5 -92t85.5 -41q82 0 138 66q53 61 53 140q0 88 -36 144
q-46 71 -139 71q-83 0 -138 -88v-200z" />
    <glyph glyph-name="uni24D2" unicode="&#x24d2;" 
d="M504 847q193 0 331 -140t138 -333q0 -191 -139 -330t-330 -139q-193 0 -329 138t-136 331q0 196 135 334.5t330 138.5zM504 -66q179 0 309.5 130.5t130.5 309.5q0 183 -128.5 313t-311.5 130t-309.5 -129.5t-126.5 -313.5q0 -181 128 -310.5t308 -129.5zM547 626
q54 0 102 -25q58 -30 58 -78q0 -18 -14.5 -32.5t-26.5 -12.5q-32 6 -32 30q0 8 4 22.5t4 19.5q0 24 -42 39q-33 11 -63 11q-95 0 -159 -76q-59 -70 -59 -164q0 -93 64 -163q60 -65 124 -65q130 0 203 116l20 -12q-88 -135 -223 -135q-85 0 -156 69q-78 75 -78 179
q0 117 78.5 197t195.5 80z" />
    <glyph glyph-name="uni24D3" unicode="&#x24d3;" 
d="M504 847q193 0 331 -140t138 -333q0 -191 -139 -330t-330 -139q-193 0 -329 138t-136 331q0 196 135 334.5t330 138.5zM504 -66q179 0 309.5 130.5t130.5 309.5q0 183 -128.5 313t-311.5 130t-309.5 -129.5t-126.5 -313.5q0 -181 128 -310.5t308 -129.5zM668 729v-586
q0 -39 19 -50q11 -6 56 -10v-26q-37 0 -110 -10l-9 87q-68 -95 -176 -95q-93 0 -152 71q-55 67 -55 162q0 99 55 168q59 74 156 74q94 0 172 -82v187q0 32 -18 39q-8 3 -46 3v25q30 3 56 16t52 27zM460 65q51 0 97 36q42 31 67 80v207q-25 39 -69 68q-48 32 -92 32
q-86 0 -136 -69q-44 -62 -44 -147q0 -84 44 -142q49 -65 133 -65z" />
    <glyph glyph-name="uni24D4" unicode="&#x24d4;" 
d="M504 847q193 0 331 -140t138 -333q0 -191 -139 -330t-330 -139q-193 0 -329 138t-136 331q0 196 135 334.5t330 138.5zM504 -66q179 0 309.5 130.5t130.5 309.5q0 183 -128.5 313t-311.5 130t-309.5 -129.5t-126.5 -313.5q0 -181 128 -310.5t308 -129.5zM507 600
q91 0 144 -63q46 -55 53 -144h-375v-46q0 -79 54 -137t133 -58q87 0 171 89l19 -14q-50 -51 -89 -73q-50 -29 -110 -29q-95 0 -161 71q-64 68 -64 160q0 99 63.5 171.5t161.5 72.5zM334 421h324q-7 66 -43 106q-40 44 -108 44q-65 0 -115 -45q-46 -43 -58 -105z" />
    <glyph glyph-name="uni24D5" unicode="&#x24d5;" 
d="M504 847q193 0 331 -140t138 -333q0 -191 -139 -330t-330 -139q-193 0 -329 138t-136 331q0 196 135 334.5t330 138.5zM504 -66q179 0 309.5 130.5t130.5 309.5q0 183 -128.5 313t-311.5 130t-309.5 -129.5t-126.5 -313.5q0 -181 128 -310.5t308 -129.5zM608 699
q28 0 50.5 -17t22.5 -34q0 -21 -36 -21q-16 0 -31 20.5t-41 20.5q-56 0 -56 -194h134v-28h-134v-356q0 -31 81 -38v-25h-196v25q73 0 73 38v356h-99v28h99q0 104 16 147q28 78 117 78z" />
    <glyph glyph-name="uni24D6" unicode="&#x24d6;" 
d="M504 847q193 0 331 -140t138 -333q0 -191 -139 -330t-330 -139q-193 0 -329 138t-136 331q0 196 135 334.5t330 138.5zM504 -66q179 0 309.5 130.5t130.5 309.5q0 183 -128.5 313t-311.5 130t-309.5 -129.5t-126.5 -313.5q0 -181 128 -310.5t308 -129.5zM487 653
q83 0 135 -44q32 44 90 44q23 0 38 -14t15 -37q0 -30 -28 -30q-17 0 -36.5 16.5t-30.5 16.5q-20 0 -30 -13q33 -40 33 -94q0 -66 -65 -104q-54 -33 -125 -33q-64 0 -107 21q-16 -6 -34 -21q-22 -18 -22 -33q0 -29 86 -41q16 -2 169 -11q100 -7 122 -23q36 -27 36 -50
q0 -67 -98 -103q-70 -25 -162 -28q-70 -2 -132 21q-83 30 -83 89q0 52 77 89q-49 14 -49 47q0 48 64 80q-60 40 -60 104q0 76 63 117q54 34 134 34zM367 260q-65 -27 -65 -76q0 -81 187 -81q59 0 123 20q83 27 83 71q0 16 -27 33q-19 12 -139 20q-144 10 -162 13zM483 392
q60 0 100 24q47 29 47 81q0 70 -33.5 99.5t-108.5 29.5q-152 0 -152 -125q0 -109 147 -109z" />
    <glyph glyph-name="uni24D7" unicode="&#x24d7;" 
d="M504 847q193 0 331 -140t138 -333q0 -191 -139 -330t-330 -139q-193 0 -329 138t-136 331q0 196 135 334.5t330 138.5zM504 -66q179 0 309.5 130.5t130.5 309.5q0 183 -128.5 313t-311.5 130t-309.5 -129.5t-126.5 -313.5q0 -181 128 -310.5t308 -129.5zM365 737v-304
q77 90 188 90q66 0 115.5 -45t49.5 -113v-231q0 -31 24 -39q8 -3 51 -4v-28h-196v28q36 1 50 6q27 10 27 37v231q0 60 -40 93q-37 30 -97 30q-83 0 -172 -93v-251q0 -35 20 -46q13 -7 53 -7v-28h-185v28q39 0 51 7q19 11 19 46v473q0 36 -8 43t-48 7h-24v25q47 7 122 45z
" />
    <glyph glyph-name="uni24D8" unicode="&#x24d8;" 
d="M504 847q193 0 331 -140t138 -333q0 -191 -139 -330t-330 -139q-193 0 -329 138t-136 331q0 196 135 334.5t330 138.5zM504 -66q179 0 309.5 130.5t130.5 309.5q0 183 -128.5 313t-311.5 130t-309.5 -129.5t-126.5 -313.5q0 -181 128 -310.5t308 -129.5zM512 698
q22 0 38.5 -16.5t16.5 -38.5q0 -21 -17 -38t-38 -17q-22 0 -38.5 16.5t-16.5 38.5q0 23 16.5 39t38.5 16zM545 517v-380q0 -41 15 -51q11 -8 55 -8v-25h-186v25q44 0 57 8q17 11 17 51v257q0 38 -19 46q-3 1 -56 4v24q58 6 117 49z" />
    <glyph glyph-name="uni24D9" unicode="&#x24d9;" 
d="M504 847q193 0 331 -140t138 -333q0 -191 -139 -330t-330 -139q-193 0 -329 138t-136 331q0 196 135 334.5t330 138.5zM504 -66q179 0 309.5 130.5t130.5 309.5q0 183 -128.5 313t-311.5 130t-309.5 -129.5t-126.5 -313.5q0 -181 128 -310.5t308 -129.5zM524 748
q22 0 38.5 -16t16.5 -38t-16.5 -38.5t-38.5 -16.5q-23 0 -39 16t-16 39q0 22 16 38t39 16zM556 564v-350q0 -106 -37 -166q-40 -64 -118 -64q-34 0 -52.5 13t-18.5 31q0 28 33 28q11 0 38.5 -17.5t39.5 -17.5q40 0 60 58q15 41 15 88v274q0 35 -24 44q-7 3 -56 6v23
q32 3 62 18q10 4 58 32z" />
    <glyph glyph-name="uni24DA" unicode="&#x24da;" 
d="M504 847q193 0 331 -140t138 -333q0 -191 -139 -330t-330 -139q-193 0 -329 138t-136 331q0 196 135 334.5t330 138.5zM504 -66q179 0 309.5 130.5t130.5 309.5q0 183 -128.5 313t-311.5 130t-309.5 -129.5t-126.5 -313.5q0 -181 128 -310.5t308 -129.5zM379 723v-440
q114 84 171 127q34 26 34 38q0 15 -60 19v28h231v-28q-66 -9 -117 -35q-43 -22 -155 -109q42 -57 133 -173q52 -64 136 -79v-22h-198v22q56 4 56 26q0 8 -11 19l-18 16q-12 15 -128 169q-42 -33 -74 -57v-111q0 -36 16 -47q12 -9 48 -9v-28h-169v28q39 0 47 6q12 9 12 50
v470q0 46 -21 46q-5 0 -21.5 -2.5t-29.5 -2.5v25q32 4 61 21q53 31 57 33z" />
    <glyph glyph-name="uni24DB" unicode="&#x24db;" 
d="M504 847q193 0 331 -140t138 -333q0 -191 -139 -330t-330 -139q-193 0 -329 138t-136 331q0 196 135 334.5t330 138.5zM504 -66q179 0 309.5 130.5t130.5 309.5q0 183 -128.5 313t-311.5 130t-309.5 -129.5t-126.5 -313.5q0 -181 128 -310.5t308 -129.5zM539 699v-591
q0 -36 19 -46q12 -7 52 -7v-28h-181v28q40 0 51 6q18 10 18 47v474q0 41 -14 47q-4 2 -54 2v25q37 5 109 43z" />
    <glyph glyph-name="uni24DC" unicode="&#x24dc;" 
d="M504 847q193 0 331 -140t138 -333q0 -191 -139 -330t-330 -139q-193 0 -329 138t-136 331q0 196 135 334.5t330 138.5zM504 -66q179 0 309.5 130.5t130.5 309.5q0 183 -128.5 313t-311.5 130t-309.5 -129.5t-126.5 -313.5q0 -181 128 -310.5t308 -129.5zM313 600v-85
q34 36 52 49q31 22 65 22q75 0 96 -73q37 39 49 49q29 21 63 21q59 0 93 -49q29 -42 29 -100v-222q0 -36 12 -45q8 -7 45 -10v-28h-167v28q38 3 49 10q16 10 16 45v222q0 125 -85 125q-45 0 -98 -69v-278q0 -35 15 -45q9 -7 48 -10v-28h-166v28q38 3 49 10q16 10 16 45v249
q0 99 -80 101q-45 1 -101 -77v-273q0 -35 8.5 -43t46.5 -12v-28h-164v28q40 0 52 8q16 10 16 47v288q0 20 -12 25q-4 1 -31 1v29q24 1 44.5 15.5t39.5 29.5z" />
    <glyph glyph-name="uni24DD" unicode="&#x24dd;" 
d="M504 847q193 0 331 -140t138 -333q0 -191 -139 -330t-330 -139q-193 0 -329 138t-136 331q0 196 135 334.5t330 138.5zM504 -66q179 0 309.5 130.5t130.5 309.5q0 183 -128.5 313t-311.5 130t-309.5 -129.5t-126.5 -313.5q0 -181 128 -310.5t308 -129.5zM371 600v-88
q46 41 73 56q40 22 87 22q64 0 113 -47q46 -46 46 -103v-226q0 -39 18 -48q7 -4 56 -9v-28h-182v28q44 4 53 9q18 10 18 48v210q0 63 -36.5 96.5t-97.5 33.5q-69 0 -148 -77v-265q0 -40 18 -50q11 -5 58 -5v-28h-192v28q47 2 56 7q19 9 19 48v276q0 30 -3.5 38t-17.5 8h-13
q-11 -1 -19 -1v25q31 1 50 12z" />
    <glyph glyph-name="uni24DE" unicode="&#x24de;" 
d="M504 847q193 0 331 -140t138 -333q0 -191 -139 -330t-330 -139q-193 0 -329 138t-136 331q0 196 135 334.5t330 138.5zM504 -66q179 0 309.5 130.5t130.5 309.5q0 183 -128.5 313t-311.5 130t-309.5 -129.5t-126.5 -313.5q0 -181 128 -310.5t308 -129.5zM504 600
q104 0 171.5 -71.5t67.5 -175.5q0 -92 -73 -160t-166 -68q-102 0 -170.5 67t-68.5 161q0 105 67.5 176t171.5 71zM504 153q84 0 142 55.5t58 144.5q0 96 -49 155q-53 64 -151 64q-93 0 -147 -66q-50 -61 -50 -153q0 -87 54 -143.5t143 -56.5z" />
    <glyph glyph-name="uni24DF" unicode="&#x24df;" 
d="M504 847q193 0 331 -140t138 -333q0 -191 -139 -330t-330 -139q-193 0 -329 138t-136 331q0 196 135 334.5t330 138.5zM504 -66q179 0 309.5 130.5t130.5 309.5q0 183 -128.5 313t-311.5 130t-309.5 -129.5t-126.5 -313.5q0 -181 128 -310.5t308 -129.5zM394 616v-82
q63 71 156 71q99 0 162 -71t63 -171t-59 -166t-159 -66q-44 0 -86 19q-49 21 -77 59v-97q0 -34 25 -41q8 -3 54 -3v-29h-194v29q73 0 73 44v394q0 37 -33 37h-15q-10 -1 -15 -1v24q32 4 54 18q26 16 51 32zM394 247q23 -38 68 -61.5t95 -23.5q174 0 174 201q0 89 -44 147
q-48 64 -135 64q-97 0 -158 -79v-248z" />
    <glyph glyph-name="uni24E0" unicode="&#x24e0;" 
d="M504 847q193 0 331 -140t138 -333q0 -191 -139 -330t-330 -139q-193 0 -329 138t-136 331q0 196 135 334.5t330 138.5zM504 -66q179 0 309.5 130.5t130.5 309.5q0 183 -128.5 313t-311.5 130t-309.5 -129.5t-126.5 -313.5q0 -181 128 -310.5t308 -129.5zM677 619v-516
q0 -26 30 -31q25 0 51 -1v-29h-206v29q61 0 72 11t11 39v85q-31 -33 -86 -53q-51 -19 -101 -19q-102 0 -163 69q-55 63 -55 156q0 109 69 179t178 70q37 0 83 -12q53 -15 75 -36zM455 161q47 0 99.5 23t80.5 57v282q-18 22 -75 40q-47 15 -70 15q-101 0 -159 -60.5
t-58 -158.5q0 -88 46 -141q49 -57 136 -57z" />
    <glyph glyph-name="uni24E1" unicode="&#x24e1;" 
d="M504 847q193 0 331 -140t138 -333q0 -191 -139 -330t-330 -139q-193 0 -329 138t-136 331q0 196 135 334.5t330 138.5zM504 -66q179 0 309.5 130.5t130.5 309.5q0 183 -128.5 313t-311.5 130t-309.5 -129.5t-126.5 -313.5q0 -181 128 -310.5t308 -129.5zM494 600v-133
q27 58 49 83q37 40 93 40q59 0 59 -39q0 -28 -48 -28q-13 0 -29 5.5t-31 10.5q-24 8 -60 -50q-33 -53 -33 -83v-205q0 -26 8 -35t62 -9v-28h-187v28q39 2 50 6q25 9 25 38v287q0 21 -2 26q-3 13 -19 13h-13q-10 -1 -18 -1v25q31 2 51.5 17t42.5 32z" />
    <glyph glyph-name="uni24E2" unicode="&#x24e2;" 
d="M504 847q193 0 331 -140t138 -333q0 -191 -139 -330t-330 -139q-193 0 -329 138t-136 331q0 196 135 334.5t330 138.5zM504 -66q179 0 309.5 130.5t130.5 309.5q0 183 -128.5 313t-311.5 130t-309.5 -129.5t-126.5 -313.5q0 -181 128 -310.5t308 -129.5zM460 596
q24 0 67 -10.5t60 -10.5q10 0 52 21l29 -134l-29 -6q-63 115 -179 115q-46 0 -79 -17q-43 -22 -43 -64q0 -52 90 -86q84 -27 169 -55q90 -39 90 -104q0 -50 -63 -89q-57 -35 -117 -35q-43 0 -90 12q-38 10 -45 10q-17 0 -48 -22l-36 155l27 8q56 -136 198 -136q43 0 85 26
q47 30 47 72q0 43 -90 75l-168 56q-90 40 -90 105q0 50 53 83q48 31 110 31z" />
    <glyph glyph-name="uni24E3" unicode="&#x24e3;" 
d="M504 847q193 0 331 -140t138 -333q0 -191 -139 -330t-330 -139q-193 0 -329 138t-136 331q0 196 135 334.5t330 138.5zM504 -66q179 0 309.5 130.5t130.5 309.5q0 183 -128.5 313t-311.5 130t-309.5 -129.5t-126.5 -313.5q0 -181 128 -310.5t308 -129.5zM453 671h25v-155
h151v-29h-151v-303q0 -98 60 -98q24 0 47 21q9 8 34 41l17 -15q-43 -81 -111 -81q-83 0 -83 124v311h-68v18q39 10 56 36q14 20 17 57t6 73z" />
    <glyph glyph-name="uni24E4" unicode="&#x24e4;" 
d="M504 847q193 0 331 -140t138 -333q0 -191 -139 -330t-330 -139q-193 0 -329 138t-136 331q0 196 135 334.5t330 138.5zM504 -66q179 0 309.5 130.5t130.5 309.5q0 183 -128.5 313t-311.5 130t-309.5 -129.5t-126.5 -313.5q0 -181 128 -310.5t308 -129.5zM669 607v-405
q0 -39 70 -44v-25l-112 -15v78q-74 -74 -156 -74q-69 0 -109.5 39.5t-40.5 107.5v222q0 33 -17 40q-6 3 -47 6v24q49 8 108 42v-343q0 -105 119 -105q34 0 78 29q38 24 65 56v252q0 28 -17 35q-7 2 -43 2v26q43 13 102 52z" />
    <glyph glyph-name="uni24E5" unicode="&#x24e5;" 
d="M504 847q193 0 331 -140t138 -333q0 -191 -139 -330t-330 -139q-193 0 -329 138t-136 331q0 196 135 334.5t330 138.5zM504 -66q179 0 309.5 130.5t130.5 309.5q0 183 -128.5 313t-311.5 130t-309.5 -129.5t-126.5 -313.5q0 -181 128 -310.5t308 -129.5zM238 599h181v-25
q-31 0 -40 -2q-25 -5 -25 -24q0 -17 168 -366l116 288q17 44 17 70q0 28 -64 34v25h177v-25q-39 -7 -58.5 -22.5t-34.5 -51.5l-155 -377h-17l-186 405q-17 38 -79 46v25z" />
    <glyph glyph-name="uni24E6" unicode="&#x24e6;" 
d="M504 847q193 0 331 -140t138 -333q0 -191 -139 -330t-330 -139q-193 0 -329 138t-136 331q0 196 135 334.5t330 138.5zM504 -66q179 0 309.5 130.5t130.5 309.5q0 183 -128.5 313t-311.5 130t-309.5 -129.5t-126.5 -313.5q0 -181 128 -310.5t308 -129.5zM154 600h173v-24
q-28 0 -39 -7q-15 -9 -15 -35q0 -13 13 -52l93 -286l93 260q-23 59 -32 74q-23 38 -59 46v24h187v-24q-70 0 -70 -32q0 -3 14 -49l106 -301l93 298q9 27 9 41q0 31 -66 43v24h172v-24q-34 -5 -49 -17q-21 -19 -40 -72q-22 -60 -59 -177q-41 -130 -58 -177h-23l-113 293
l-105 -293h-17l-131 374q-19 57 -77 69v24z" />
    <glyph glyph-name="uni24E7" unicode="&#x24e7;" 
d="M504 847q193 0 331 -140t138 -333q0 -191 -139 -330t-330 -139q-193 0 -329 138t-136 331q0 196 135 334.5t330 138.5zM504 -66q179 0 309.5 130.5t130.5 309.5q0 183 -128.5 313t-311.5 130t-309.5 -129.5t-126.5 -313.5q0 -181 128 -310.5t308 -129.5zM236 596h191v-28
q-57 -4 -57 -23q0 -9 54 -79q45 -60 65 -82q20 24 123 161q0 11 -30 17q-19 3 -39 6v28h194v-28q-47 0 -77 -18q-15 -8 -37.5 -33t-58.5 -75.5t-56 -73.5q24 -27 69 -87.5t69 -87.5q18 -20 46 -26.5t56 -12.5v-28h-208v28q59 7 59 28q-49 66 -125 161q-22 -25 -128 -159
q0 -19 61 -30v-28h-176v28q28 0 50 13q31 18 91 90l84 104q-22 25 -68 84t-69 83q-31 33 -83 40v28z" />
    <glyph glyph-name="uni24E8" unicode="&#x24e8;" 
d="M504 847q193 0 331 -140t138 -333q0 -191 -139 -330t-330 -139q-193 0 -329 138t-136 331q0 196 135 334.5t330 138.5zM504 -66q179 0 309.5 130.5t130.5 309.5q0 183 -128.5 313t-311.5 130t-309.5 -129.5t-126.5 -313.5q0 -181 128 -310.5t308 -129.5zM237 600h198v-29
q-75 -11 -75 -29l161 -318q20 16 149 302q0 38 -65 45v29h190v-29q-68 -14 -88 -34q-150 -313 -190 -378q-77 -126 -151 -126q-26 0 -51 11q-32 14 -32 37q0 36 42 36q16 0 32.5 -21t33.5 -21q58 0 105 103q-58 117 -177 347q-21 39 -82 46v29z" />
    <glyph glyph-name="uni24E9" unicode="&#x24e9;" 
d="M504 847q193 0 331 -140t138 -333q0 -191 -139 -330t-330 -139q-193 0 -329 138t-136 331q0 196 135 334.5t330 138.5zM504 -66q179 0 309.5 130.5t130.5 309.5q0 183 -128.5 313t-311.5 130t-309.5 -129.5t-126.5 -313.5q0 -181 128 -310.5t308 -129.5zM368 600h311v-24
l-311 -428h154q81 0 112 25q20 16 64 98l17 -9l-48 -135h-356v21l311 428h-118q-78 0 -103 -15t-72 -86l-18 10z" />
    <glyph glyph-name="SF100000" unicode="&#x2500;" 
d="M1000 417v-33h-1000v33h1000z" />
    <glyph glyph-name="uni2501" unicode="&#x2501;" 
d="M1000 445v-89h-1000v89h1000z" />
    <glyph glyph-name="SF110000" unicode="&#x2502;" 
d="M517 900v-1000h-34v1000h34z" />
    <glyph glyph-name="uni2503" unicode="&#x2503;" 
d="M544 900v-1000h-88v1000h88z" />
    <glyph glyph-name="SF010000" unicode="&#x250c;" 
d="M1000 417v-33h-483v-484h-34v517h517z" />
    <glyph glyph-name="uni250D" unicode="&#x250d;" 
d="M481 445v-545h36v456h483v89h-519z" />
    <glyph glyph-name="uni250E" unicode="&#x250e;" 
d="M457 417v-517h88v484h455v33h-543z" />
    <glyph glyph-name="uni250F" unicode="&#x250f;" 
d="M1000 445v-89h-456v-456h-88v545h544z" />
    <glyph glyph-name="SF030000" unicode="&#x2510;" 
d="M517 417v-517h-34v484h-483v33h517z" />
    <glyph glyph-name="uni2511" unicode="&#x2511;" 
d="M519 445l-1 -545h-35v456h-483v89h519z" />
    <glyph glyph-name="uni2512" unicode="&#x2512;" 
d="M544 417v-517h-88v484h-456v33h544z" />
    <glyph glyph-name="uni2513" unicode="&#x2513;" 
d="M544 445v-545h-88v456h-456v89h544z" />
    <glyph glyph-name="SF020000" unicode="&#x2514;" 
d="M1000 417v-33h-517v516h34v-483h483z" />
    <glyph glyph-name="uni2515" unicode="&#x2515;" 
d="M484 353v547h36v-458h480v-89h-516z" />
    <glyph glyph-name="uni2516" unicode="&#x2516;" 
d="M458 382v518h88v-485h454v-33h-542z" />
    <glyph glyph-name="uni2517" unicode="&#x2517;" 
d="M1000 445v-89h-544v544h88v-455h456z" />
    <glyph glyph-name="SF040000" unicode="&#x2518;" 
d="M517 900v-516h-517v33h483v483h34z" />
    <glyph glyph-name="uni2519" unicode="&#x2519;" 
d="M517 353v547h-34v-458h-483v-89h517z" />
    <glyph glyph-name="uni251A" unicode="&#x251a;" 
d="M544 382v518h-88v-485h-456v-33h544z" />
    <glyph glyph-name="uni251B" unicode="&#x251b;" 
d="M544 900v-544h-544v89h456v455h88z" />
    <glyph glyph-name="SF080000" unicode="&#x251c;" 
d="M1000 417v-33h-483v-484h-34v1000h34v-483h483z" />
    <glyph glyph-name="uni251D" unicode="&#x251d;" 
d="M1000 445v-89h-483v-456h-34v1000h34v-455h483z" />
    <glyph glyph-name="uni251E" unicode="&#x251e;" 
d="M458 -100v1000h88v-485h454v-33h-502v-482h-40z" />
    <glyph glyph-name="uni251F" unicode="&#x251f;" 
d="M457 900v-1000h88v484h455v33h-507v483h-36z" />
    <glyph glyph-name="uni2520" unicode="&#x2520;" 
d="M1000 417v-33h-456v-484h-88v1000h88v-483h456z" />
    <glyph glyph-name="uni2521" unicode="&#x2521;" 
d="M481 -100v454l519 1v90h-460v455h-88v-1000h29z" />
    <glyph glyph-name="uni2522" unicode="&#x2522;" 
d="M456 900v-1000h88v455h456v89h-512v456h-32z" />
    <glyph glyph-name="uni2523" unicode="&#x2523;" 
d="M1000 445v-89h-456v-456h-88v1000h88v-455h456z" />
    <glyph glyph-name="SF090000" unicode="&#x2524;" 
d="M517 900v-1000h-34v484h-483v33h483v483h34z" />
    <glyph glyph-name="uni2525" unicode="&#x2525;" 
d="M517 900v-1000h-34v456h-483v89h483v455h34z" />
    <glyph glyph-name="uni2526" unicode="&#x2526;" 
d="M544 -100v1000h-88v-485h-456v-33h504v-482h40z" />
    <glyph glyph-name="uni2527" unicode="&#x2527;" 
d="M543 900v-1000h-87v484h-456v33h510v483h33z" />
    <glyph glyph-name="uni2528" unicode="&#x2528;" 
d="M544 900v-1000h-88v484h-456v33h456v483h88z" />
    <glyph glyph-name="uni2529" unicode="&#x2529;" 
d="M507 -100v455h-507v90h456v455h88v-1000h-37z" />
    <glyph glyph-name="uni252A" unicode="&#x252a;" 
d="M544 900v-1000h-88v456h-456v89h504v455h40z" />
    <glyph glyph-name="uni252B" unicode="&#x252b;" 
d="M544 900v-1000h-88v456h-456v89h456v455h88z" />
    <glyph glyph-name="SF060000" unicode="&#x252c;" 
d="M1000 416v-33h-483v-483h-34v483h-483v33h1000z" />
    <glyph glyph-name="uni252D" unicode="&#x252d;" 
d="M1000 411h-483v-511h-34v456h-483v89h1000v-34z" />
    <glyph glyph-name="uni252E" unicode="&#x252e;" 
d="M0 413h481v-513h36v456h483v89h-1000v-32z" />
    <glyph glyph-name="uni252F" unicode="&#x252f;" 
d="M1000 445v-89h-483v-456h-34v456h-483v89h1000z" />
    <glyph glyph-name="uni2530" unicode="&#x2530;" 
d="M1000 417v-33h-456v-484h-88v484h-456v33h1000z" />
    <glyph glyph-name="uni2531" unicode="&#x2531;" 
d="M1000 417h-456v-517h-88v456h-456v89h1000v-28z" />
    <glyph glyph-name="uni2532" unicode="&#x2532;" 
d="M0 445h1000v-89h-456v-456h-88v513h-456v32z" />
    <glyph glyph-name="uni2533" unicode="&#x2533;" 
d="M1000 445v-89h-456v-456h-88v456h-456v89h1000z" />
    <glyph glyph-name="SF070000" unicode="&#x2534;" 
d="M1000 416v-33h-1000v33h483v484h34v-484h483z" />
    <glyph glyph-name="uni2535" unicode="&#x2535;" 
d="M1000 380h-481l-1 520h-35v-458h-483v-89h1000v27z" />
    <glyph glyph-name="uni2536" unicode="&#x2536;" 
d="M0 382h484v518h36v-458h480v-89h-1000v29z" />
    <glyph glyph-name="uni2537" unicode="&#x2537;" 
d="M1000 445v-89h-1000v89h483v455h34v-455h483z" />
    <glyph glyph-name="uni2538" unicode="&#x2538;" 
d="M1000 417v-33h-1000v33h456v483h88v-483h456z" />
    <glyph glyph-name="uni2539" unicode="&#x2539;" 
d="M1000 356h-1000v89h456v455h88v-520h456v-24z" />
    <glyph glyph-name="uni253A" unicode="&#x253a;" 
d="M0 382h456v518h88v-455h456v-89h-1000v26z" />
    <glyph glyph-name="uni253B" unicode="&#x253b;" 
d="M1000 445v-89h-1000v89h456v455h88v-455h456z" />
    <glyph glyph-name="SF050000" unicode="&#x253c;" 
d="M1000 417v-33h-483v-484h-34v484h-483v33h483v483h34v-483h483z" />
    <glyph glyph-name="uni253D" unicode="&#x253d;" 
d="M516 -100l1 453h483v27h-481l-1 520h-35v-458h-483v-89h482v-453h34z" />
    <glyph glyph-name="uni253E" unicode="&#x253e;" 
d="M0 438h481v462h36v-455h483v-89h-483v-456h-36v503h-481v35z" />
    <glyph glyph-name="uni253F" unicode="&#x253f;" 
d="M1000 445v-89h-483v-456h-34v456h-483v89h483v455h34v-455h483z" />
    <glyph glyph-name="uni2540" unicode="&#x2540;" 
d="M491 -100v482h509v33h-454v485h-88v-484h-458v-34h459v-482h32z" />
    <glyph glyph-name="uni2541" unicode="&#x2541;" 
d="M543 900v-483h457v-33h-457v-484h-87v484h-456v33h508v483h35z" />
    <glyph glyph-name="uni2542" unicode="&#x2542;" 
d="M1000 417v-33h-456v-484h-88v484h-456v33h456v483h88v-483h456z" />
    <glyph glyph-name="uni2543" unicode="&#x2543;" 
d="M1000 384h-456v516h-88v-455h-456v-90h510v-455h34v456h456v28z" />
    <glyph glyph-name="uni2544" unicode="&#x2544;" 
d="M0 385h456v515h88v-455h456v-89h-512v-456h-32v454h-456v31z" />
    <glyph glyph-name="uni2545" unicode="&#x2545;" 
d="M544 900v-455h456v-28h-456v-517h-88v456h-456v89h511v455h33z" />
    <glyph glyph-name="uni2546" unicode="&#x2546;" 
d="M482 900v-455h518v-89h-456v-456h-88v521h-456v24h456v455h26z" />
    <glyph glyph-name="uni2547" unicode="&#x2547;" 
d="M509 -100v455h-509v90h456v455h88v-455h456v-89h-457v-456h-34z" />
    <glyph glyph-name="uni2548" unicode="&#x2548;" 
d="M544 900v-455h456v-89h-456v-456h-88v456h-456v89h510v455h34z" />
    <glyph glyph-name="uni2549" unicode="&#x2549;" 
d="M1000 419l-456 -1v-518h-88v456h-456v89h456v455h88v-455h456v-26z" />
    <glyph glyph-name="uni254A" unicode="&#x254a;" 
d="M0 445h456v455h88v-455h456v-89h-456v-456h-88v516h-456v29z" />
    <glyph glyph-name="uni254B" unicode="&#x254b;" 
d="M1000 445v-89h-456v-456h-88v456h-456v89h456v455h88v-455h456z" />
    <glyph glyph-name="shade" unicode="&#x2592;" 
d="M111 15v767h777v-767h-777zM850 749h-702v-702h702v702zM779 665q-25 0 -25 25q0 27 25 27q26 0 26 -27q0 -25 -26 -25zM814 487q-25 0 -25 26t25 26q27 0 27 -26q0 -10 -8.5 -18t-18.5 -8zM594 665q-26 0 -26 25q0 27 26 27q27 0 27 -27q0 -25 -27 -25zM662 486
q-26 0 -26 26q0 27 26 27q27 0 27 -27q0 -10 -8.5 -18t-18.5 -8zM411 667q-26 0 -26 25q0 27 26 27t26 -27q0 -25 -26 -25zM774 289q-25 0 -25 26t25 26t25 -26t-25 -26zM502 486q-26 0 -26 26q0 27 26 27t26 -27q0 -26 -26 -26zM238 667q-26 0 -26 25q0 27 26 27
q27 0 27 -27q0 -25 -27 -25zM814 89q-25 0 -25 26q0 27 25 27q27 0 27 -27q0 -10 -8.5 -18t-18.5 -8zM594 286q-26 0 -26 26q0 27 26 27q27 0 27 -27q0 -10 -8.5 -18t-18.5 -8zM329 488q-26 0 -26 25q0 27 26 27q27 0 27 -27q0 -10 -8.5 -17.5t-18.5 -7.5zM662 88
q-26 0 -26 26q0 27 26 27q27 0 27 -27q0 -10 -8.5 -18t-18.5 -8zM412 288q-26 0 -26 26q0 27 26 27q25 0 25 -27q0 -26 -25 -26zM185 488q-26 0 -26 25q0 27 26 27t26 -27q0 -10 -8 -17.5t-18 -7.5zM502 88q-26 0 -26 26q0 27 26 27t26 -27q0 -26 -26 -26zM238 288
q-26 0 -26 26q0 27 26 27q27 0 27 -27q0 -10 -8.5 -18t-18.5 -8zM329 90q-26 0 -26 26q0 27 26 27q27 0 27 -27q0 -10 -8.5 -18t-18.5 -8zM185 90q-26 0 -26 26q0 27 26 27t26 -27q0 -26 -26 -26z" />
    <glyph glyph-name="filledbox" unicode="&#x25a0;" 
d="M129 771h746v-735h-746v735z" />
    <glyph glyph-name="H22073" unicode="&#x25a1;" 
d="M129 771h746v-735h-746v735zM832 79v649h-660v-649h660z" />
    <glyph glyph-name="uni25A3" unicode="&#x25a3;" 
d="M103 3v791h790v-791h-790zM850 751h-707v-705h707v705zM371 270v258h254v-258h-254z" />
    <glyph glyph-name="uni25A4" unicode="&#x25a4;" 
d="M111 15v768h777v-768h-777zM850 750h-702v-142h702v142zM850 578h-702v-157h702v157zM850 392h-702v-168h702v168zM850 194h-702v-147h702v147z" />
    <glyph glyph-name="uni25A5" unicode="&#x25a5;" 
d="M111 15v768h777v-768h-777zM850 750h-148v-703h148v703zM664 750h-143v-703h143v703zM484 751h-148v-704h148v704zM300 751h-152v-704h152v704z" />
    <glyph glyph-name="uni25A6" unicode="&#x25a6;" 
d="M111 15v768h777v-768h-777zM850 750h-149v-156h149v156zM666 750h-145v-156h145v156zM850 562h-149v-154h149v154zM483 750h-147v-156h147v156zM666 562h-145v-154h145v154zM850 376h-149v-148h149v148zM850 194h-149v-147h149v147zM299 750h-151v-156h151v156zM666 376
h-145v-148h145v148zM483 562h-147v-154h147v154zM666 194h-145v-147h145v147zM483 376h-147v-148h147v148zM299 562h-152v-154h152v154zM483 194h-147v-147h147v147zM299 376h-151v-148h151v148zM299 194h-151v-147h151v147z" />
    <glyph glyph-name="uni25A7" unicode="&#x25a7;" 
d="M111 15v768h777v-768h-777zM850 750h-326l326 -325v325zM850 378l-373 372h-305l678 -674v302zM148 728v-306l372 -375h307zM148 374v-327h327z" />
    <glyph glyph-name="uni25A8" unicode="&#x25a8;" 
d="M111 15v768h777v-768h-777zM520 750l-372 -373v-305l680 678h-308zM148 750v-324l325 324h-325zM850 723l-678 -676h308l370 368v308zM850 366l-321 -319h321v319z" />
    <glyph glyph-name="uni25A9" unicode="&#x25a9;" 
d="M111 15v768h777v-768h-777zM523 750l153 -151l151 151h-304zM849 720l-149 -146l149 -149v295zM677 549l-155 -153l150 -148l153 152zM502 724l-155 -154l150 -149l154 154zM850 376l-153 -153l153 -151v304zM474 750h-308l156 -154l154 153zM672 198l-151 -151h302z
M148 719v-296l149 147zM497 372l-153 -150l153 -150l149 151zM322 545l-152 -150l151 -149l150 150zM149 370l-1 -297l149 148zM320 198l-153 -151h305z" />
    <glyph glyph-name="triagup" unicode="&#x25b2;" 
d="M500 798l438 -746h-872z" />
    <glyph glyph-name="uni25B3" unicode="&#x25b3;" 
d="M500 806l438 -750h-875zM855 99l-355 617l-355 -617h710z" />
    <glyph glyph-name="uni25B6" unicode="&#x25b6;" 
d="M847 443l-625 -410v808z" />
    <glyph glyph-name="uni25B7" unicode="&#x25b7;" 
d="M847 443l-625 -410v808zM736 443l-465 317v-640z" />
    <glyph glyph-name="triagdn" unicode="&#x25bc;" 
d="M74 747h856l-430 -734z" />
    <glyph glyph-name="uni25BD" unicode="&#x25bd;" 
d="M66 747h864l-430 -738zM500 99l348 605h-700z" />
    <glyph glyph-name="uni25C0" unicode="&#x25c0;" 
d="M778 33l-625 410l625 398v-808z" />
    <glyph glyph-name="uni25C1" unicode="&#x25c1;" 
d="M778 33l-625 410l625 398v-808zM729 120v640l-465 -317z" />
    <glyph glyph-name="uni25C6" unicode="&#x25c6;" 
d="M500 841l445 -441l-445 -446l-445 446z" />
    <glyph glyph-name="uni25C7" unicode="&#x25c7;" 
d="M500 845l445 -445l-445 -449l-441 449zM500 13l383 387l-383 383l-379 -383z" />
    <glyph glyph-name="uni25C8" unicode="&#x25c8;" 
d="M900 403l-400 -400l-400 400l400 400zM845 403l-340 345l-345 -345l340 -345zM752 404l-252 -242l-246 242l246 244z" />
    <glyph glyph-name="circle" unicode="&#x25cb;" 
d="M500 810q169 0 287.5 -120.5t118.5 -289.5q0 -167 -119.5 -286.5t-286.5 -119.5t-282.5 119.5t-115.5 286.5q0 169 115 289.5t283 120.5zM500 33q151 0 259 108t108 259q0 152 -107.5 261.5t-259.5 109.5q-151 0 -255 -109.5t-104 -261.5q0 -151 104.5 -259t254.5 -108z
M500 810q169 0 287.5 -120.5t118.5 -289.5q0 -167 -119.5 -286.5t-286.5 -119.5t-282.5 119.5t-115.5 286.5q0 169 115 289.5t283 120.5zM500 33q151 0 259 108t108 259q0 152 -107.5 261.5t-259.5 109.5q-151 0 -255 -109.5t-104 -261.5q0 -151 104.5 -259t254.5 -108z
M500 810q169 0 287.5 -120.5t118.5 -289.5q0 -167 -119.5 -286.5t-286.5 -119.5t-282.5 119.5t-115.5 286.5q0 169 115 289.5t283 120.5zM500 33q151 0 259 108t108 259q0 152 -107.5 261.5t-259.5 109.5q-151 0 -255 -109.5t-104 -261.5q0 -151 104.5 -259t254.5 -108z" />
    <glyph glyph-name="uni25CE" unicode="&#x25ce;" 
d="M500 849q184 0 314.5 -132.5t130.5 -316.5q0 -182 -131.5 -314t-313.5 -132q-184 0 -314.5 131t-130.5 315q0 187 129.5 318t315.5 131zM500 -3q165 0 283.5 119t118.5 284q0 167 -117.5 286.5t-284.5 119.5q-168 0 -285 -119t-117 -287q0 -166 118 -284.5t284 -118.5z
M500 697q123 0 210 -87t87 -210q0 -121 -88 -207t-209 -86q-122 0 -209.5 85.5t-87.5 207.5q0 124 86.5 210.5t210.5 86.5zM500 150q103 0 178.5 73.5t75.5 176.5q0 104 -75 179t-179 75q-105 0 -179.5 -74.5t-74.5 -179.5q0 -104 75 -177t179 -73z" />
    <glyph glyph-name="H18533" unicode="&#x25cf;" 
d="M500 849q184 0 314.5 -132.5t130.5 -316.5q0 -182 -131.5 -314t-313.5 -132q-184 0 -314.5 131t-130.5 315q0 187 129.5 318t315.5 131z" />
    <glyph glyph-name="uni25D0" unicode="&#x25d0;" 
d="M496 17q-156 0 -269.5 109.5t-113.5 265.5q0 159 112 270.5t271 111.5q160 0 273 -111t113 -271q0 -157 -114 -266t-272 -109zM494 735v-678q150 0 250 99q97 97 97 237q0 144 -101 243t-246 99z" />
    <glyph glyph-name="uni25D1" unicode="&#x25d1;" 
d="M510 14q-161 0 -273 110t-112 271q0 156 114.5 266t270.5 110t271 -110.5t115 -265.5q0 -159 -113.5 -270t-272.5 -111zM513 732q-144 0 -245 -97t-101 -239q0 -147 99 -245t247 -101v682z" />
    <glyph glyph-name="uni2605" unicode="&#x2605;" 
d="M500 853l102 -320h336l-274 -196l106 -316l-270 195l-273 -195l101 316l-273 196h343z" />
    <glyph glyph-name="uni2606" unicode="&#x2606;" 
d="M500 853l102 -320h339l-273 -204l105 -316l-273 199l-277 -199l105 316l-277 204h340zM500 263l195 -144l-78 222l192 149h-235l-74 230l-82 -230h-234l195 -149l-78 -222z" />
    <glyph glyph-name="uni260E" unicode="&#x260e;" 
d="M415 629q50 -10 81 -10q33 0 91 10v-54q-11 -1 -43 -9q-28 -7 -44 -7t-43 7q-33 10 -42 11v52zM499 474q67 0 110 -46t43 -114q0 -156 -150 -156q-155 0 -155 156q0 70 41.5 115t110.5 45zM334 629q-60 -12 -60 -48q0 -12 10 -35t10 -32q0 -7 -16 -20q-73 -60 -178 -60
q-33 0 -43 5q-18 8 -18 37q0 270 462 270q461 0 461 -261q0 -51 -33 -51q-47 0 -125 23q-93 28 -93 60q0 5 12.5 29t12.5 33q0 28 -66 51q-4 -21 -4 -41q0 -73 53 -148q15 -21 106 -122q22 -25 45.5 -107.5t23.5 -124.5q0 -17 -20 -17l-732 1q-34 0 -34 22q0 20 14 73
q10 39 20 77q11 46 62 102q75 83 87 100q44 65 44 140q0 21 -1 44zM387 663v-107q68 -20 109 -20q39 0 119 18v109q-79 -14 -126 -14q-41 0 -102 14zM499 502q-80 0 -132.5 -55t-52.5 -135q0 -81 50.5 -130.5t137.5 -49.5q88 0 136 49.5t48 134.5q0 80 -54.5 133t-132.5 53z
" />
    <glyph glyph-name="uni260F" unicode="&#x260f;" 
d="M932 428q-46 0 -124 23q-94 29 -94 62q0 12 10.5 36t10.5 36q0 26 -64 48q-6 -21 -6 -43q0 -71 56 -145q52 -60 105 -120q23 -26 48 -112q23 -80 23 -121q0 -21 -28 -21l-727 1q-36 0 -36 26q0 15 14 72q19 77 20 81q14 42 40 74q51 58 103 117q51 67 51 145q0 21 -2 45
q-57 -13 -57 -45q0 -12 10.5 -34.5t10.5 -33.5q0 -32 -92 -59q-76 -22 -123 -22q-44 0 -44 42q0 272 463 272q464 0 464 -263q0 -61 -32 -61zM491 718q-148 0 -261 -39q-161 -56 -161 -175q0 -17 5 -33q184 31 184 52q0 12 -8 34.5t-8 34.5q0 64 121 75q6 -58 6 -55
q0 -90 -46 -166q-19 -32 -90 -111q-54 -61 -65 -103.5t-26 -123.5h717q-1 12 -13 59q-9 38 -20 77t-35 70q-53 65 -107 130q-46 70 -46 164q0 29 5 62q125 -21 125 -76q0 -15 -9.5 -41l-9.5 -26q0 -27 78 -43q52 -8 103 -15q1 152 -155 211q-100 38 -284 38zM496 537
q-35 0 -110 21v110q64 -13 103 -13q44 0 128 13v-113q-86 -18 -121 -18zM502 130q-85 0 -137 49t-52 133q0 80 53 135.5t133 55.5t134.5 -54t54.5 -133q0 -87 -49.5 -136.5t-136.5 -49.5zM584 629q-63 -7 -93 -7q-25 0 -72 7v-47q10 -1 38 -9q23 -6 38 -6q17 0 45 5
q34 7 44 8v49zM499 472q-69 0 -109.5 -44.5t-40.5 -113.5q0 -154 153 -154q149 0 149 154q0 67 -42.5 112.5t-109.5 45.5z" />
    <glyph glyph-name="uni261C" unicode="&#x261c;" 
d="M77 560q-43 -23 -43 -44q0 -70 147 -70h35q22 1 28 1h101q-28 -31 -28 -67q0 -29 24 -59q-4 -15 -4 -25q0 -31 42 -57q9 -47 32.5 -64t73.5 -17q15 0 45 6t45 6q14 0 42 -2t42 -2q37 0 84 17q39 16 79 31q28 9 51 9q11 0 32.5 -10.5t32.5 -10.5q25 0 25 40v275
q0 35 -23 35q-8 0 -66 -44q-106 49 -185 68q-86 21 -194 21q-84 0 -219 -9q-169 -12 -199 -28zM906 250q-51 11 -50 11q-21 0 -93 -28t-118 -28h-48q52 19 61 48q2 7 -3 9q-3 1 -11 0q-4 -1 -11 -3q-49 -62 -147 -62q-38 0 -58 31h20q53 0 100 15q61 20 61 58q0 24 -20 24
q-8 0 -24 -18q-39 -43 -117 -43q-26 0 -38 6q-17 8 -29 33l16 4q17 -17 41 -17q47 0 122 80q97 -56 174 -56q59 0 59 27q0 20 -21 20q-9 0 -25.5 -5t-25.5 -5q-78 0 -170 79q-69 -104 -113 -104q-11 0 -11 13q0 52 57 99q54 45 107 47q14 0 34 4q8 6 8 16q0 21 -29 21
q-150 0 -218 -178q-10 -3 -9 -3q-21 0 -21 40q0 58 44 71l9 15l-4 11l-13 7q-88 -3 -226 -3q-74 0 -92 19l9 15q38 17 182 29q116 9 192 9q133 0 216 -18q98 -21 201 -80q24 16 32.5 24.5t20.5 31.5v-267q-15 0 -21 1z" />
    <glyph glyph-name="uni261E" unicode="&#x261e;" 
d="M928 562q43 -22 43 -44q0 -60 -106 -69q-20 -1 -47 -1q-12 0 -32 1h-25h-101q28 -32 28 -67q0 -29 -24 -59q4 -15 4 -25q0 -31 -42 -57q-9 -47 -33 -64t-73 -17q-15 0 -45 6t-45 6q-14 0 -42 -2t-42 -2q-36 0 -83 18l-80 30q-29 9 -51 9q-12 0 -32.5 -10.5t-32.5 -10.5
q-25 0 -25 40v275q0 35 23 35q12 0 66 -44q105 48 185 68q87 21 194 21q86 0 217 -9q169 -11 201 -28zM350 253q0 19 20 14q3 -1 11 -3q26 -38 59 -53q29 -12 79 -12q37 0 58 31q-46 -2 -41 -2q-41 0 -89 24q-57 27 -57 63q0 18 21 18q8 0 13.5 -9t9.5 -17q29 -41 123 -41
q27 0 41 8t26 32l-15 3q-17 -17 -42 -17q-47 0 -122 80q-97 -56 -174 -56q-59 0 -59 27q0 20 21 20q9 0 25.5 -5t25.5 -5q78 0 170 79q69 -104 113 -104q11 0 11 13q0 51 -66 102q-62 48 -116 50q-25 1 -27 1q-15 4 -15 19q0 21 29 21q79 0 145 -55q61 -50 91 -129l4 -2
q3 -1 5 -1q21 0 21 40q0 61 -44 71q-8 12 -8 18q0 7 16 15q88 -3 226 -3q74 0 91 19l-8 15q-40 17 -183 29q-113 9 -191 9q-132 0 -215 -18q-100 -21 -202 -80l-49 35v-231q0 -6 3 -16q12 1 20 3q40 10 44 10q26 0 96.5 -28t114.5 -28h18v10q-10 0 -19 12t-9 24z" />
    <glyph glyph-name="female" unicode="&#x2640;" 
d="M500 853q92 0 157.5 -67.5t65.5 -159.5q0 -81 -59.5 -145t-140.5 -72v-103h278v-47h-278v-297h-46v297h-274v47h274v103q-84 8 -144 70.5t-60 146.5q0 94 66.5 160.5t160.5 66.5zM500 454q72 0 124 50.5t52 121.5q0 73 -51 126.5t-125 53.5t-127 -53t-53 -127
q0 -72 53.5 -122t126.5 -50z" />
    <glyph glyph-name="male" unicode="&#x2642;" 
d="M344 344q51 51 124 61v349l-202 -207l-33 33l265 265l262 -262l-33 -33l-209 204v-348q84 -6 143 -65q63 -63 63 -154q0 -93 -66 -159t-162 -66q-91 0 -153 62q-66 66 -66 159q0 94 67 161zM625 63q51 51 51 125q0 71 -49 120q-53 53 -128 53q-72 0 -122 -50
q-53 -53 -53 -128q0 -74 52 -126q48 -48 118 -48q77 0 131 54z" />
    <glyph glyph-name="spade" unicode="&#x2660;" 
d="M496 858q76 -131 239 -325q195 -232 195 -331q0 -76 -63 -124q-58 -44 -137 -44q-52 0 -96 25q-30 17 -79 61q7 -125 70 -211h-262q66 82 75 211q-47 -49 -81 -66q-41 -20 -103 -20q-75 0 -125.5 47t-50.5 121q0 69 69 176q34 54 117 155q160 197 232 325z" />
    <glyph glyph-name="uni2661" unicode="&#x2661;" 
d="M496 -78q-36 69 -153 218q-133 169 -179 243q-86 137 -86 229q0 95 59 165q62 74 156 74q84 0 140 -73q45 -57 66 -150q53 223 220 223q95 0 155 -73q56 -68 56 -166q0 -90 -90 -227q-46 -71 -187 -244q-120 -149 -157 -219zM719 808q-77 0 -133 -76q-46 -63 -62 -149
h-55q-14 84 -54 146q-50 79 -123 79q-76 0 -123.5 -57.5t-47.5 -135.5q0 -80 75 -205q50 -83 159 -221q116 -149 142 -189q27 41 147 188q114 141 166 224q79 125 79 203q0 74 -47 132q-51 61 -123 61z" />
    <glyph glyph-name="club" unicode="&#x2663;" 
d="M500 854q91 0 155 -60.5t64 -150.5q0 -87 -59 -160q44 28 90 28q94 0 150 -63q53 -61 53 -156q0 -81 -59.5 -146t-139.5 -65q-155 0 -203 145q2 -188 66 -313h-226q64 127 66 313q-48 -145 -191 -145q-86 0 -152.5 63t-66.5 148q0 97 57 158t154 61q46 0 90 -28
q-63 73 -63 160q0 90 62 150.5t153 60.5z" />
    <glyph glyph-name="uni2664" unicode="&#x2664;" 
d="M742 40q-55 0 -106 28q-34 19 -88 66q8 -131 66 -219h-239q59 84 70 221q-51 -53 -84 -72q-44 -24 -107 -24q-72 0 -121 45.5t-49 116.5q0 66 88 200q50 77 179 243q116 150 145 201q122 -160 243 -321q179 -242 179 -317q0 -77 -49.5 -122.5t-126.5 -45.5zM497 777
q-108 -143 -217 -286q-155 -211 -155 -288q0 -58 41 -91.5t100 -33.5q57 0 114 41q50 37 82 91h20q-1 -190 -51 -257h130q-48 71 -49 257h18q35 -50 91 -88q63 -41 118 -41q140 0 140 128q0 55 -164 282q-3 3 -218 286z" />
    <glyph glyph-name="heart" unicode="&#x2665;" 
d="M293 851q80 0 136 -60q48 -52 67 -136q20 87 76 140q60 56 147 56q98 0 157 -72q54 -67 54 -167q0 -150 -197 -371q-163 -183 -237 -332q-34 68 -105 171q-67 95 -123 161q-89 104 -128 170q-62 105 -62 201q0 107 53 171q57 68 162 68z" />
    <glyph glyph-name="uni2667" unicode="&#x2667;" 
d="M746 83q-67 0 -106 28q-44 31 -75 110q4 -162 68 -302h-252q67 153 73 301q-21 -67 -75 -104q-50 -33 -117 -33q-88 0 -148.5 60.5t-60.5 148.5q0 91 60.5 157.5t148.5 66.5q39 0 98 -31q-69 88 -69 155q0 92 56 151q59 63 157 63q99 0 157.5 -59t58.5 -155
q0 -66 -78 -170q69 34 110 34q92 0 147 -62q52 -59 52 -150q0 -87 -59.5 -148t-145.5 -61zM752 456q-46 0 -80 -14q-22 -9 -69 -40l-30 54q101 89 101 174q0 179 -170 179q-68 0 -116 -46q-52 -49 -52 -129q0 -86 100 -169l-35 -60q-87 62 -134 62q-54 0 -103 -39
q-61 -48 -61 -133q0 -80 51 -123q48 -42 131 -42q112 0 156 157h53q0 -209 -41 -321h114q-48 162 -48 321h65q34 -88 52 -111q36 -47 108 -47q66 0 109 36q50 42 50 125q0 88 -51 132q-40 34 -100 34z" />
    <glyph glyph-name="uni2668" unicode="&#x2668;" 
d="M691 282q-35 -69 -81 -165q0 64 1 76q3 31 16 70q28 82 28 125q0 34 -22 100t-22 101q0 90 33 182q17 -160 17 -166q-1 -33 25 -108q27 -78 29 -116q2 -47 -24 -99zM500 186q-10 -22 -30 -67q-8 50 0 100q13 46 27 128q1 44 -23.5 124.5t-25.5 120.5q-1 39 28 120
q42 117 44 123q7 -38 7 -72q0 -32 -8 -82.5t-8 -78.5q0 -41 29.5 -115.5t29.5 -113.5q0 -62 -70 -187zM403 309q-13 -45 -75 -174q1 51 2 101q2 41 12 98q6 34 -4 83q-9 38 -18 75q-11 45 -12 76q-1 50 22 113q8 23 46 106q3 -14 3 -31q0 -26 -8 -76q-9 -53 -10 -72
q-1 -31 14 -92q13 -48 25 -95q10 -42 10 -66q0 -22 -7 -46zM784 317q64 -11 103 -45q45 -38 45 -95q0 -99 -165 -163q-133 -52 -260 -52q-122 0 -261 46q-178 57 -179 147q0 47 52 95q48 43 119 68q-110 -71 -110 -141q0 -66 161 -100q106 -22 211 -23q99 -1 222 33
q161 44 162 113q1 62 -100 117z" />
    <glyph glyph-name="uni2669" unicode="&#x2669;" 
d="M463 -46q-35 0 -58.5 22.5t-23.5 57.5q0 50 49 89q45 36 95 36q25 0 42 -11l-1 608h37v-668q0 -53 -44 -93.5t-96 -40.5z" />
    <glyph glyph-name="musicalnote" unicode="&#x266a;" 
d="M473 782h35q27 -36 103 -100q84 -69 113 -102q53 -61 53 -118q0 -96 -132 -203l-16 12q113 89 113 172q0 62 -90 129q-36 27 -144 86v-516q0 -64 -58.5 -124t-121.5 -60q-47 0 -76 21q-33 24 -33 69q0 54 64 97q58 40 115 40q42 0 75 -8v605z" />
    <glyph glyph-name="uni266C" unicode="&#x266c;" 
d="M674 81q-33 0 -61 20q-31 22 -31 55q0 49 46 87q43 37 92 37q31 0 55 -19v331l-394 -118v-411q0 -51 -47 -91t-99 -40q-32 0 -56 21t-24 54q0 49 46 87q43 36 92 36q31 0 51 -16v550l467 146v-598q0 -51 -43.5 -91t-93.5 -40zM775 741l-396 -118v-94q62 25 196 61
q152 40 200 57v94z" />
    <glyph glyph-name="uni266D" unicode="&#x266d;" 
d="M363 783h35v-372q102 102 184 102q63 0 100 -40.5t37 -103.5q0 -92 -133 -232q-102 -108 -215 -183h-8v829zM398 18q273 203 273 339q0 108 -110 108q-35 0 -89 -35q-46 -31 -74 -63v-349z" />
    <glyph glyph-name="uni3000" unicode="&#x3000;" 
 />
    <glyph glyph-name="uni3001" unicode="&#x3001;" 
d="M844 725q31 0 31 31q0 18 -16.5 27t-32.5 16l-187 93l-4 -23l177 -135q12 -9 32 -9z" />
    <glyph glyph-name="uni3002" unicode="&#x3002;" 
d="M789 841q52 0 88.5 -35t36.5 -86q0 -49 -38 -83t-87 -34q-48 0 -82.5 34.5t-34.5 82.5q0 50 33.5 85.5t83.5 35.5zM789 642q34 0 60 22t26 56q0 35 -25.5 58.5t-60.5 23.5q-33 0 -55.5 -24t-22.5 -58q0 -32 23 -55t55 -23z" />
    <glyph glyph-name="uni3003" unicode="&#x3003;" 
d="M582 611h90q-20 -122 -59 -213t-113 -190l-12 4q78 206 94 399zM410 611h90q-20 -122 -59 -213t-113 -190l-12 4q78 206 94 399z" />
    <glyph glyph-name="uni3008" unicode="&#x3008;" 
d="M908 826l32 -11l-204 -409l204 -414l-32 -11l-215 425z" />
    <glyph glyph-name="uni3009" unicode="&#x3009;" 
d="M307 406l-215 -425l-32 11l204 414l-204 409l32 11z" />
    <glyph glyph-name="uni300A" unicode="&#x300a;" 
d="M957 -5l-39 -15l-219 426l219 419l39 -15l-205 -405zM773 -5l-39 -15l-219 426l219 419l39 -15l-205 -405z" />
    <glyph glyph-name="uni300B" unicode="&#x300b;" 
d="M486 406l-219 -426l-39 15l204 410l-204 405l39 15zM302 406l-219 -426l-39 15l204 410l-204 405l39 15z" />
    <glyph glyph-name="uni300C" unicode="&#x300c;" 
d="M714 803v-460h-33v493h252v-33h-219z" />
    <glyph glyph-name="uni300D" unicode="&#x300d;" 
d="M47 -32v32h215v462h31v-494h-246z" />
    <glyph glyph-name="uni300E" unicode="&#x300e;" 
d="M929 801h-179v-420h-92v492h271v-72zM731 821h182v36h-239v-457h57v421z" />
    <glyph glyph-name="uni300F" unicode="&#x300f;" 
d="M70 37h197v414h102v-493h-299v79zM288 15h-200v-39h263v454h-63v-415z" />
    <glyph glyph-name="uni3010" unicode="&#x3010;" 
d="M934 853v-24q-106 -88 -150 -188q-42 -95 -42 -237q0 -141 43.5 -238.5t148.5 -191.5v-23h-250v902h250z" />
    <glyph glyph-name="uni3011" unicode="&#x3011;" 
d="M78 853h254v-902h-254v23q106 92 150.5 190.5t44.5 239.5q0 142 -44 239.5t-151 185.5v24z" />
    <glyph glyph-name="uni3013" unicode="&#x3013;" 
d="M152 166v53h691v-53h-691zM152 595v53h691v-53h-691z" />
    <glyph glyph-name="uni3014" unicode="&#x3014;" 
d="M914 828l16 -29l-204 -97v-598l204 -103l-16 -29l-227 111v642z" />
    <glyph glyph-name="uni3015" unicode="&#x3015;" 
d="M313 83l-227 -111l-16 29l204 103v598l-204 97l16 29l227 -103v-642z" />
    <glyph glyph-name="uni3041" unicode="&#x3041;" 
d="M238 525q39 -47 90 -47q23 0 88 9q14 75 14 97q0 18 -55 27v16q27 0 67 -7q54 -9 54 -24q0 -6 -10 -20t-27 -83l104 16q33 5 85 21q18 11 24 11q12 0 25.5 -13.5t13.5 -25.5q0 -11 -34 -16q-97 -17 -226 -34q-8 -47 -13 -105q59 15 153 13q3 8 3 17q0 20 -28 39l4 12
q63 -27 63 -55q0 -9 -3 -17q82 -14 130 -59q53 -51 53 -131q0 -115 -113 -173q-86 -43 -216 -46v16q113 7 186 53q92 57 92 162q0 125 -142 154q-48 -107 -158 -219q18 -39 18 -53q0 -19 -19 -19q-25 0 -39 33q-101 -88 -141 -88q-43 0 -67 39q-19 32 -19 78q0 71 55 134
q49 57 120 86l25 10q4 52 14 113q-63 -7 -81 -7q-61 0 -101 82zM582 336q-30 2 -45 2q-49 0 -101 -18q-2 -44 -2 -67q0 -50 16 -103q84 94 132 186zM392 304q-150 -68 -150 -197q0 -23 9 -45q11 -29 30 -29q36 0 128 76q-21 68 -17 195z" />
    <glyph glyph-name="uni3042" unicode="&#x3042;" 
d="M180 678q45 -59 105 -59q32 0 116 11q13 96 13 114q0 28 -70 39v20q33 0 85 -11q67 -13 67 -32q0 -5 -12 -23q-16 -26 -33 -99l112 16q89 14 114 29q21 14 30 14q15 0 31 -16t16 -31q0 -11 -42 -20q-86 -15 -271 -42q-12 -65 -18 -130q66 17 186 15q4 14 4 21
q0 25 -35 51l8 11q74 -28 74 -66q0 -8 -4 -22q102 -15 162 -71q65 -61 65 -161q0 -142 -138 -212q-107 -54 -265 -57v19q139 9 229 65q115 70 115 201q0 155 -179 188q-64 -133 -195 -268q23 -61 23 -69q0 -23 -28 -23q-21 0 -41 48q-66 -55 -82 -67q-60 -44 -95 -44
q-54 0 -82 45q-24 38 -24 96q0 100 83 181q70 68 176 106q6 66 15 137q-72 -10 -110 -10q-69 0 -117 98zM598 446q-8 0 -24 1h-25q-64 0 -129 -20q-2 -50 -2 -74q0 -68 18 -134q111 119 162 227zM377 412q-97 -42 -142 -91q-59 -62 -59 -155q0 -29 11 -56q15 -34 40 -34
q48 0 164 98q-21 92 -14 238z" />
    <glyph glyph-name="uni3043" unicode="&#x3043;" 
d="M195 568q33 -12 68 -34q46 -29 46 -52q0 -5 -8 -16q-15 -21 -28 -77q-11 -50 -11 -98q0 -58 15 -112q19 -67 55 -95l145 219l7 -4l-101 -195q-16 -30 -16 -48q0 -7 4 -21t4 -22q0 -15 -16 -15q-27 0 -59 39q-81 96 -81 254q0 34 9.5 101.5t9.5 101.5q0 30 -47 62z
M621 498q199 -120 199 -352q0 -54 -27 -54q-10 0 -26 18q-26 30 -126 36v12l125 12q0 184 -153 316z" />
    <glyph glyph-name="uni3044" unicode="&#x3044;" 
d="M133 736q38 -15 79 -42q54 -37 54 -63q0 -5 -12 -20q-25 -29 -41 -100q-14 -61 -14 -111q0 -71 22 -138q25 -81 72 -116l172 270l12 -8l-119 -239q-18 -36 -18 -58q0 -8 4 -25t4 -26q0 -19 -20 -19q-32 0 -72 47q-100 118 -100 312q0 41 12 121.5t12 120.5q0 36 -55 79z
M648 650q247 -148 247 -429q0 -67 -32 -67q-14 0 -32 23q-30 35 -159 44v15l156 12q0 228 -191 390z" />
    <glyph glyph-name="uni3045" unicode="&#x3045;" 
d="M359 631q49 -39 118 -39q21 0 61 7.5t60 7.5q9 0 26 -15t17 -24q0 -5 -26 -10q-80 -9 -181 -60l-8 12l74 46q-62 0 -87 10q-33 14 -61 61zM258 431q23 -58 55 -58q13 0 113 37t148 37q87 0 125 -48q35 -43 35 -132q0 -75 -26 -129q-71 -152 -376 -187v12q98 18 180 57
q104 50 143 117q29 49 29 130q0 72 -19 107q-25 46 -91 46q-48 0 -124 -30q-80 -32 -106 -66q-11 -14 -16 -14q-30 0 -57 45q-21 35 -29 73z" />
    <glyph glyph-name="uni3046" unicode="&#x3046;" 
d="M328 799q60 -47 145 -47q29 0 79.5 9.5t68.5 9.5q12 0 31.5 -17.5t19.5 -29.5q0 -7 -31 -12q-102 -13 -219 -74l-8 16l86 55q-75 0 -105 11q-42 16 -75 71zM203 556q29 -70 70 -70q7 0 97 30q155 56 220 56q106 0 153 -58q42 -53 42 -161q0 -109 -40 -179
q-94 -163 -452 -203v15q129 24 233 75q137 68 175 161q22 54 22 131q0 87 -23 128q-30 56 -110 56q-62 0 -149 -33q-91 -34 -128 -77q-12 -15 -20 -15q-39 0 -73 53q-26 41 -36 88z" />
    </font>
</defs>
</svg>
